G75*
%MOIN*%
%OFA0B0*%
%FSLAX24Y24*%
%IPPOS*%
%LPD*%
%AMOC8*
5,1,8,0,0,1.08239X$1,22.5*
%
%ADD10C,0.0000*%
%ADD11R,0.0594X0.0594*%
%ADD12C,0.0515*%
%ADD13C,0.0520*%
%ADD14C,0.0650*%
%ADD15OC8,0.1240*%
%ADD16R,0.0515X0.0515*%
%ADD17C,0.0768*%
%ADD18OC8,0.0520*%
%ADD19C,0.0500*%
%ADD20C,0.0400*%
%ADD21C,0.0860*%
%ADD22C,0.0160*%
%ADD23C,0.0240*%
D10*
X000680Y000680D02*
X000680Y020180D01*
X010680Y020180D01*
X010680Y000680D01*
X000680Y000680D01*
D11*
X003180Y001930D03*
X004180Y001930D03*
X005180Y001930D03*
X006180Y001930D03*
D12*
X010011Y005493D03*
X010011Y006280D03*
X010011Y007068D03*
X010011Y007855D03*
X010011Y008643D03*
X010011Y009430D03*
X010011Y010217D03*
X010011Y011005D03*
X010011Y011792D03*
X010011Y012580D03*
X003324Y014930D03*
X002536Y014930D03*
X001749Y014930D03*
X001349Y012580D03*
X001349Y011792D03*
X001349Y011005D03*
X001349Y010217D03*
X001349Y009430D03*
X001349Y008643D03*
X001349Y007855D03*
X001349Y007068D03*
X001349Y006280D03*
X001349Y005493D03*
D13*
X003920Y005680D02*
X004440Y005680D01*
X004440Y006680D02*
X003920Y006680D01*
X003920Y007680D02*
X004440Y007680D01*
X004440Y008680D02*
X003920Y008680D01*
X003920Y009680D02*
X004440Y009680D01*
X006920Y009680D02*
X007440Y009680D01*
X007440Y008680D02*
X006920Y008680D01*
X006920Y007680D02*
X007440Y007680D01*
X007440Y006680D02*
X006920Y006680D01*
X006920Y005680D02*
X007440Y005680D01*
X007440Y004680D02*
X006920Y004680D01*
X006920Y003680D02*
X007440Y003680D01*
X004440Y003680D02*
X003920Y003680D01*
X003920Y004680D02*
X004440Y004680D01*
D14*
X004680Y016855D02*
X004680Y017505D01*
X005680Y017505D02*
X005680Y016855D01*
X006680Y016855D02*
X006680Y017505D01*
D15*
X009180Y004180D03*
X009180Y002180D03*
D16*
X004111Y014930D03*
D17*
X004017Y019180D02*
X004784Y019180D01*
X006576Y019180D02*
X007343Y019180D01*
D18*
X008680Y010430D03*
X008680Y005430D03*
D19*
X009180Y002180D02*
X007180Y001180D01*
X005680Y001180D01*
X005180Y001680D01*
D20*
X005180Y001930D01*
X004665Y001398D02*
X004690Y001374D01*
X004697Y001357D01*
X005054Y001000D01*
X001000Y001000D01*
X001000Y005058D01*
X001057Y005016D01*
X001135Y004976D01*
X001219Y004949D01*
X001305Y004936D01*
X001349Y004936D01*
X001349Y005493D01*
X001349Y005493D01*
X001349Y004936D01*
X001393Y004936D01*
X001480Y004949D01*
X001563Y004976D01*
X001641Y005016D01*
X001712Y005068D01*
X001775Y005130D01*
X001826Y005201D01*
X001866Y005279D01*
X001893Y005362D01*
X001907Y005449D01*
X001907Y005493D01*
X001349Y005493D01*
X001907Y005493D01*
X001907Y005537D01*
X001893Y005624D01*
X001866Y005707D01*
X001826Y005785D01*
X001775Y005856D01*
X001758Y005873D01*
X001839Y005953D01*
X001927Y006166D01*
X001927Y006395D01*
X001839Y006608D01*
X001772Y006674D01*
X001839Y006741D01*
X001927Y006953D01*
X001927Y007183D01*
X001839Y007395D01*
X001772Y007461D01*
X001839Y007528D01*
X001927Y007740D01*
X001927Y007970D01*
X001839Y008182D01*
X001772Y008249D01*
X001839Y008315D01*
X001927Y008528D01*
X001927Y008757D01*
X001839Y008970D01*
X001772Y009036D01*
X001839Y009103D01*
X001927Y009315D01*
X001927Y009545D01*
X001839Y009757D01*
X001772Y009824D01*
X001839Y009890D01*
X001927Y010103D01*
X001927Y010332D01*
X001839Y010545D01*
X001772Y010611D01*
X001839Y010678D01*
X001927Y010890D01*
X001927Y011120D01*
X001839Y011332D01*
X001772Y011399D01*
X001839Y011465D01*
X001927Y011677D01*
X001927Y011907D01*
X001839Y012119D01*
X001779Y012180D01*
X002180Y012180D01*
X002180Y002985D01*
X002166Y002893D01*
X002180Y002838D01*
X002180Y002781D01*
X002216Y002694D01*
X002489Y001603D01*
X002666Y001364D01*
X002922Y001210D01*
X003217Y001166D01*
X003507Y001239D01*
X003709Y001389D01*
X003741Y001367D01*
X003796Y001345D01*
X003854Y001333D01*
X004180Y001333D01*
X004506Y001333D01*
X004564Y001345D01*
X004619Y001367D01*
X004665Y001398D01*
X004975Y001079D02*
X001000Y001079D01*
X001000Y001477D02*
X002582Y001477D01*
X002421Y001876D02*
X001000Y001876D01*
X001000Y002274D02*
X002321Y002274D01*
X002221Y002673D02*
X001000Y002673D01*
X001000Y003071D02*
X002180Y003071D01*
X002180Y003470D02*
X001000Y003470D01*
X001000Y003868D02*
X002180Y003868D01*
X002180Y004267D02*
X001000Y004267D01*
X001000Y004665D02*
X002180Y004665D01*
X002180Y005064D02*
X001707Y005064D01*
X001907Y005462D02*
X002180Y005462D01*
X002180Y005861D02*
X001770Y005861D01*
X001927Y006259D02*
X002180Y006259D01*
X002180Y006658D02*
X001789Y006658D01*
X001927Y007056D02*
X002180Y007056D01*
X002180Y007455D02*
X001779Y007455D01*
X001927Y007853D02*
X002180Y007853D01*
X002180Y008252D02*
X001775Y008252D01*
X001927Y008650D02*
X002180Y008650D01*
X002180Y009049D02*
X001784Y009049D01*
X001927Y009447D02*
X002180Y009447D01*
X002180Y009846D02*
X001794Y009846D01*
X001927Y010244D02*
X002180Y010244D01*
X002180Y010643D02*
X001804Y010643D01*
X001927Y011041D02*
X002180Y011041D01*
X002180Y011440D02*
X001813Y011440D01*
X001927Y011838D02*
X002180Y011838D01*
X003239Y013432D02*
X003943Y013432D01*
X003885Y013489D02*
X005160Y012215D01*
X005160Y009327D01*
X005239Y009135D01*
X005385Y008989D01*
X006135Y008239D01*
X006327Y008160D01*
X006580Y008160D01*
X006428Y008009D01*
X006340Y007795D01*
X006340Y007565D01*
X006428Y007351D01*
X006591Y007188D01*
X006643Y007167D01*
X006626Y007159D01*
X006555Y007107D01*
X006493Y007045D01*
X006441Y006974D01*
X006401Y006895D01*
X006374Y006811D01*
X006360Y006724D01*
X006360Y006680D01*
X007180Y006680D01*
X008000Y006680D01*
X008000Y006724D01*
X007986Y006811D01*
X007959Y006895D01*
X007919Y006974D01*
X007867Y007045D01*
X007805Y007107D01*
X007734Y007159D01*
X007717Y007167D01*
X007769Y007188D01*
X007932Y007351D01*
X008020Y007565D01*
X008020Y007795D01*
X007932Y008009D01*
X007769Y008172D01*
X007749Y008180D01*
X007769Y008188D01*
X007932Y008351D01*
X008020Y008565D01*
X008020Y008795D01*
X007932Y009009D01*
X007769Y009172D01*
X007749Y009180D01*
X007769Y009188D01*
X007932Y009351D01*
X008020Y009565D01*
X008020Y009795D01*
X007932Y010009D01*
X007769Y010172D01*
X007555Y010260D01*
X006805Y010260D01*
X006591Y010172D01*
X006428Y010009D01*
X006340Y009795D01*
X006340Y009565D01*
X006382Y009463D01*
X006200Y009645D01*
X006200Y012533D01*
X006121Y012725D01*
X004700Y014145D01*
X004700Y014965D01*
X004689Y014992D01*
X004689Y015251D01*
X004640Y015369D01*
X004550Y015459D01*
X004432Y015507D01*
X003790Y015507D01*
X003672Y015459D01*
X003638Y015425D01*
X003439Y015507D01*
X003209Y015507D01*
X002997Y015420D01*
X002930Y015353D01*
X002863Y015420D01*
X002651Y015507D01*
X002421Y015507D01*
X002288Y015452D01*
X002174Y015566D01*
X001898Y015680D01*
X001600Y015680D01*
X001324Y015566D01*
X001113Y015355D01*
X001000Y015082D01*
X001000Y019860D01*
X003943Y019860D01*
X003883Y019852D01*
X003796Y019829D01*
X003714Y019795D01*
X003636Y019750D01*
X003565Y019695D01*
X003501Y019632D01*
X003447Y019561D01*
X003402Y019483D01*
X003368Y019400D01*
X003344Y019314D01*
X003333Y019225D01*
X003333Y019180D01*
X003333Y019135D01*
X003344Y019046D01*
X003368Y018960D01*
X003402Y018877D01*
X003447Y018799D01*
X003501Y018728D01*
X003565Y018665D01*
X003636Y018610D01*
X003714Y018565D01*
X003796Y018531D01*
X003883Y018508D01*
X003972Y018496D01*
X004400Y018496D01*
X004400Y019180D01*
X003333Y019180D01*
X004400Y019180D01*
X004400Y019180D01*
X004400Y019180D01*
X004400Y018496D01*
X004829Y018496D01*
X004918Y018508D01*
X005005Y018531D01*
X005087Y018565D01*
X005165Y018610D01*
X005236Y018665D01*
X005300Y018728D01*
X005354Y018799D01*
X005399Y018877D01*
X005433Y018960D01*
X005456Y019046D01*
X005468Y019135D01*
X005468Y019180D01*
X005468Y019225D01*
X005456Y019314D01*
X005433Y019400D01*
X005399Y019483D01*
X005354Y019561D01*
X005300Y019632D01*
X005236Y019695D01*
X005165Y019750D01*
X005087Y019795D01*
X005005Y019829D01*
X004918Y019852D01*
X004858Y019860D01*
X006378Y019860D01*
X006177Y019777D01*
X005979Y019579D01*
X005872Y019320D01*
X005872Y019040D01*
X005979Y018781D01*
X006177Y018583D01*
X006436Y018476D01*
X007483Y018476D01*
X007742Y018583D01*
X007940Y018781D01*
X008047Y019040D01*
X008047Y019320D01*
X007940Y019579D01*
X007742Y019777D01*
X007541Y019860D01*
X010360Y019860D01*
X010360Y013047D01*
X010338Y013069D01*
X010126Y013157D01*
X009896Y013157D01*
X009684Y013069D01*
X009521Y012907D01*
X009433Y012694D01*
X009433Y012465D01*
X009521Y012252D01*
X009588Y012186D01*
X009521Y012119D01*
X009433Y011907D01*
X009433Y011677D01*
X009521Y011465D01*
X009588Y011399D01*
X009521Y011332D01*
X009433Y011120D01*
X009433Y010890D01*
X009521Y010678D01*
X009588Y010611D01*
X009521Y010545D01*
X009433Y010332D01*
X009433Y010103D01*
X009521Y009890D01*
X009588Y009824D01*
X009521Y009757D01*
X009433Y009545D01*
X009433Y009315D01*
X009521Y009103D01*
X009588Y009036D01*
X009521Y008970D01*
X009433Y008757D01*
X009433Y008528D01*
X009521Y008315D01*
X009588Y008249D01*
X009521Y008182D01*
X009433Y007970D01*
X009433Y007740D01*
X009521Y007528D01*
X009588Y007461D01*
X009521Y007395D01*
X009433Y007183D01*
X009433Y006953D01*
X009521Y006741D01*
X009588Y006674D01*
X009521Y006608D01*
X009433Y006395D01*
X009433Y006166D01*
X009521Y005953D01*
X009588Y005887D01*
X009521Y005820D01*
X009433Y005608D01*
X009433Y005378D01*
X009521Y005166D01*
X009684Y005003D01*
X009896Y004916D01*
X010126Y004916D01*
X010338Y005003D01*
X010360Y005026D01*
X010360Y001000D01*
X008095Y001000D01*
X008719Y001312D01*
X008791Y001240D01*
X009569Y001240D01*
X010120Y001791D01*
X010120Y002569D01*
X009569Y003120D01*
X008791Y003120D01*
X008240Y002569D01*
X008240Y002347D01*
X007045Y001750D01*
X006797Y001750D01*
X006797Y002291D01*
X006748Y002408D01*
X006684Y002472D01*
X006725Y002489D01*
X006871Y002635D01*
X007335Y003100D01*
X007555Y003100D01*
X007769Y003188D01*
X007932Y003351D01*
X008020Y003565D01*
X008020Y003795D01*
X007932Y004009D01*
X007769Y004172D01*
X007749Y004180D01*
X007769Y004188D01*
X007820Y004240D01*
X008018Y004240D01*
X008179Y004307D01*
X008260Y004388D01*
X008260Y004180D01*
X009180Y004180D01*
X009180Y004180D01*
X009180Y005100D01*
X009561Y005100D01*
X010100Y004561D01*
X010100Y004180D01*
X009180Y004180D01*
X009180Y004180D01*
X009180Y005100D01*
X009170Y005100D01*
X009260Y005190D01*
X009260Y005670D01*
X008920Y006010D01*
X008440Y006010D01*
X008100Y005670D01*
X008100Y005472D01*
X007784Y005156D01*
X007769Y005172D01*
X007749Y005180D01*
X007769Y005188D01*
X007932Y005351D01*
X008020Y005565D01*
X008020Y005795D01*
X007932Y006009D01*
X007769Y006172D01*
X007717Y006193D01*
X007734Y006201D01*
X007805Y006253D01*
X007867Y006315D01*
X007919Y006386D01*
X007959Y006465D01*
X007986Y006549D01*
X008000Y006636D01*
X008000Y006680D01*
X007180Y006680D01*
X007180Y006680D01*
X007180Y006680D01*
X006360Y006680D01*
X006360Y006636D01*
X006374Y006549D01*
X006401Y006465D01*
X006441Y006386D01*
X006493Y006315D01*
X006555Y006253D01*
X006626Y006201D01*
X006643Y006193D01*
X006591Y006172D01*
X006428Y006009D01*
X006340Y005795D01*
X006340Y005565D01*
X006428Y005351D01*
X006591Y005188D01*
X006611Y005180D01*
X006591Y005172D01*
X006428Y005009D01*
X006340Y004795D01*
X006340Y004565D01*
X006428Y004351D01*
X006591Y004188D01*
X006611Y004180D01*
X006591Y004172D01*
X006428Y004009D01*
X006340Y003795D01*
X006340Y003575D01*
X006215Y003450D01*
X004951Y003450D01*
X004959Y003465D01*
X004986Y003549D01*
X005000Y003636D01*
X005000Y003680D01*
X005000Y003724D01*
X004986Y003811D01*
X004959Y003895D01*
X004919Y003974D01*
X004867Y004045D01*
X004805Y004107D01*
X004734Y004159D01*
X004717Y004167D01*
X004769Y004188D01*
X004932Y004351D01*
X005020Y004565D01*
X005020Y004795D01*
X004932Y005009D01*
X004769Y005172D01*
X004749Y005180D01*
X004769Y005188D01*
X004932Y005351D01*
X005020Y005565D01*
X005020Y005795D01*
X004932Y006009D01*
X004769Y006172D01*
X004749Y006180D01*
X004769Y006188D01*
X004932Y006351D01*
X005020Y006565D01*
X005020Y006795D01*
X004932Y007009D01*
X004769Y007172D01*
X004749Y007180D01*
X004769Y007188D01*
X004932Y007351D01*
X005020Y007565D01*
X005020Y007795D01*
X004932Y008009D01*
X004769Y008172D01*
X004749Y008180D01*
X004769Y008188D01*
X004932Y008351D01*
X005020Y008565D01*
X005020Y008795D01*
X004932Y009009D01*
X004769Y009172D01*
X004749Y009180D01*
X004769Y009188D01*
X004932Y009351D01*
X005020Y009565D01*
X005020Y009795D01*
X004932Y010009D01*
X004769Y010172D01*
X004555Y010260D01*
X003805Y010260D01*
X003680Y010208D01*
X003680Y012829D01*
X003566Y013105D01*
X002499Y014172D01*
X002499Y014353D01*
X002651Y014353D01*
X002863Y014440D01*
X002930Y014507D01*
X002997Y014440D01*
X003209Y014353D01*
X003439Y014353D01*
X003638Y014435D01*
X003660Y014414D01*
X003660Y013827D01*
X003739Y013635D01*
X003885Y013489D01*
X003660Y013831D02*
X002840Y013831D01*
X002499Y014229D02*
X003660Y014229D01*
X004180Y013930D02*
X004180Y014861D01*
X004111Y014930D01*
X004584Y015425D02*
X010360Y015425D01*
X010360Y015823D02*
X001000Y015823D01*
X001000Y015425D02*
X001183Y015425D01*
X001000Y016222D02*
X004525Y016222D01*
X004552Y016210D02*
X004808Y016210D01*
X005045Y016309D01*
X005196Y016459D01*
X005203Y016448D01*
X005273Y016379D01*
X005353Y016321D01*
X005440Y016276D01*
X005534Y016246D01*
X005631Y016230D01*
X005680Y016230D01*
X005680Y017180D01*
X005680Y017180D01*
X005680Y018130D01*
X005729Y018130D01*
X005826Y018114D01*
X005920Y018084D01*
X006007Y018039D01*
X006087Y017981D01*
X006157Y017912D01*
X006164Y017901D01*
X006315Y018051D01*
X006552Y018150D01*
X006808Y018150D01*
X007045Y018051D01*
X007227Y017870D01*
X007325Y017633D01*
X007325Y016727D01*
X007227Y016490D01*
X007045Y016309D01*
X006808Y016210D01*
X006552Y016210D01*
X006315Y016309D01*
X006164Y016459D01*
X006157Y016448D01*
X006087Y016379D01*
X006007Y016321D01*
X005920Y016276D01*
X005826Y016246D01*
X005729Y016230D01*
X005680Y016230D01*
X005680Y017180D01*
X005680Y017180D01*
X005680Y018130D01*
X005631Y018130D01*
X005534Y018114D01*
X005440Y018084D01*
X005353Y018039D01*
X005273Y017981D01*
X005203Y017912D01*
X005196Y017901D01*
X005045Y018051D01*
X004808Y018150D01*
X004552Y018150D01*
X004315Y018051D01*
X004133Y017870D01*
X004035Y017633D01*
X004035Y016727D01*
X004133Y016490D01*
X004315Y016309D01*
X004552Y016210D01*
X004835Y016222D02*
X006525Y016222D01*
X006835Y016222D02*
X010360Y016222D01*
X010360Y016620D02*
X007281Y016620D01*
X007325Y017019D02*
X010360Y017019D01*
X010360Y017417D02*
X007325Y017417D01*
X007249Y017816D02*
X010360Y017816D01*
X010360Y018214D02*
X001000Y018214D01*
X001000Y017816D02*
X004111Y017816D01*
X004035Y017417D02*
X001000Y017417D01*
X001000Y017019D02*
X004035Y017019D01*
X004079Y016620D02*
X001000Y016620D01*
X001000Y018613D02*
X003633Y018613D01*
X003354Y019011D02*
X001000Y019011D01*
X001000Y019410D02*
X003371Y019410D01*
X003746Y019808D02*
X001000Y019808D01*
X002851Y015425D02*
X003009Y015425D01*
X004180Y013930D02*
X005680Y012430D01*
X005680Y009430D01*
X006430Y008680D01*
X007180Y008680D01*
X007832Y008252D02*
X009585Y008252D01*
X009433Y008650D02*
X008020Y008650D01*
X007892Y009049D02*
X009576Y009049D01*
X009433Y009447D02*
X007971Y009447D01*
X007999Y009846D02*
X009566Y009846D01*
X009433Y010244D02*
X009240Y010244D01*
X009240Y010198D02*
X009240Y010430D01*
X009240Y010662D01*
X008912Y010990D01*
X008680Y010990D01*
X008680Y010430D01*
X008680Y010430D01*
X009240Y010430D01*
X008680Y010430D01*
X008680Y010430D01*
X008680Y010430D01*
X008120Y010430D01*
X008120Y010662D01*
X008448Y010990D01*
X008680Y010990D01*
X008680Y010430D01*
X008680Y009870D01*
X008912Y009870D01*
X009240Y010198D01*
X009240Y010643D02*
X009556Y010643D01*
X009433Y011041D02*
X006200Y011041D01*
X006200Y010643D02*
X008120Y010643D01*
X008120Y010430D02*
X008120Y010198D01*
X008448Y009870D01*
X008680Y009870D01*
X008680Y010430D01*
X008680Y010430D01*
X008120Y010430D01*
X008120Y010244D02*
X007594Y010244D01*
X006766Y010244D02*
X006200Y010244D01*
X006200Y009846D02*
X006361Y009846D01*
X005725Y008650D02*
X005020Y008650D01*
X004892Y009049D02*
X005326Y009049D01*
X005160Y009447D02*
X004971Y009447D01*
X004999Y009846D02*
X005160Y009846D01*
X005160Y010244D02*
X004594Y010244D01*
X005160Y010643D02*
X003680Y010643D01*
X003680Y011041D02*
X005160Y011041D01*
X005160Y011440D02*
X003680Y011440D01*
X003680Y011838D02*
X005160Y011838D01*
X005138Y012237D02*
X003680Y012237D01*
X003680Y012635D02*
X004740Y012635D01*
X004341Y013034D02*
X003595Y013034D01*
X004700Y014229D02*
X010360Y014229D01*
X010360Y013831D02*
X005015Y013831D01*
X005413Y013432D02*
X010360Y013432D01*
X010360Y014628D02*
X004700Y014628D01*
X004689Y015026D02*
X010360Y015026D01*
X009648Y013034D02*
X005812Y013034D01*
X006158Y012635D02*
X009433Y012635D01*
X009537Y012237D02*
X006200Y012237D01*
X006200Y011838D02*
X009433Y011838D01*
X009547Y011440D02*
X006200Y011440D01*
X006123Y008252D02*
X004832Y008252D01*
X004996Y007853D02*
X006364Y007853D01*
X006386Y007455D02*
X004974Y007455D01*
X004884Y007056D02*
X006504Y007056D01*
X006360Y006658D02*
X005020Y006658D01*
X004839Y006259D02*
X006549Y006259D01*
X006367Y005861D02*
X004993Y005861D01*
X004977Y005462D02*
X006383Y005462D01*
X006483Y005064D02*
X004877Y005064D01*
X005020Y004665D02*
X006340Y004665D01*
X006513Y004267D02*
X004847Y004267D01*
X004968Y003868D02*
X006370Y003868D01*
X006234Y003470D02*
X004960Y003470D01*
X005000Y003680D02*
X004180Y003680D01*
X005000Y003680D01*
X004180Y003680D02*
X004180Y003680D01*
X004180Y001930D02*
X004180Y001333D01*
X004180Y001930D01*
X004180Y001930D01*
X004180Y001876D02*
X004180Y001876D01*
X004180Y001477D02*
X004180Y001477D01*
X002930Y002930D02*
X006430Y002930D01*
X007180Y003680D01*
X007306Y003071D02*
X008742Y003071D01*
X008799Y003260D02*
X009180Y003260D01*
X009561Y003260D01*
X010100Y003799D01*
X010100Y004180D01*
X009180Y004180D01*
X009180Y003260D01*
X009180Y004180D01*
X009180Y004180D01*
X009180Y004180D01*
X008260Y004180D01*
X008260Y003799D01*
X008799Y003260D01*
X008589Y003470D02*
X007981Y003470D01*
X007990Y003868D02*
X008260Y003868D01*
X008260Y004267D02*
X008082Y004267D01*
X008090Y005462D02*
X007977Y005462D01*
X007993Y005861D02*
X008290Y005861D01*
X007811Y006259D02*
X009433Y006259D01*
X009562Y005861D02*
X009070Y005861D01*
X009260Y005462D02*
X009433Y005462D01*
X009598Y005064D02*
X009624Y005064D01*
X009996Y004665D02*
X010360Y004665D01*
X010360Y004267D02*
X010100Y004267D01*
X010100Y003868D02*
X010360Y003868D01*
X010360Y003470D02*
X009771Y003470D01*
X009618Y003071D02*
X010360Y003071D01*
X010360Y002673D02*
X010017Y002673D01*
X010120Y002274D02*
X010360Y002274D01*
X010360Y001876D02*
X010120Y001876D01*
X010360Y001477D02*
X009806Y001477D01*
X010360Y001079D02*
X008252Y001079D01*
X008093Y002274D02*
X006797Y002274D01*
X006797Y001876D02*
X007296Y001876D01*
X006908Y002673D02*
X008343Y002673D01*
X009180Y003470D02*
X009180Y003470D01*
X009180Y003868D02*
X009180Y003868D01*
X009180Y004267D02*
X009180Y004267D01*
X009180Y004665D02*
X009180Y004665D01*
X009180Y005064D02*
X009180Y005064D01*
X009571Y006658D02*
X008000Y006658D01*
X007856Y007056D02*
X009433Y007056D01*
X009581Y007455D02*
X007974Y007455D01*
X007996Y007853D02*
X009433Y007853D01*
X008680Y010244D02*
X008680Y010244D01*
X008680Y010643D02*
X008680Y010643D01*
X005680Y016620D02*
X005680Y016620D01*
X005680Y017019D02*
X005680Y017019D01*
X005680Y017417D02*
X005680Y017417D01*
X005680Y017816D02*
X005680Y017816D01*
X006148Y018613D02*
X005168Y018613D01*
X005447Y019011D02*
X005884Y019011D01*
X005909Y019410D02*
X005429Y019410D01*
X005468Y019180D02*
X004400Y019180D01*
X004400Y019180D01*
X005468Y019180D01*
X005055Y019808D02*
X006253Y019808D01*
X007666Y019808D02*
X010360Y019808D01*
X010360Y019410D02*
X008010Y019410D01*
X008035Y019011D02*
X010360Y019011D01*
X010360Y018613D02*
X007771Y018613D01*
X004400Y018613D02*
X004400Y018613D01*
X004400Y019011D02*
X004400Y019011D01*
X003766Y010244D02*
X003680Y010244D01*
X001349Y005493D02*
X001349Y005493D01*
X001349Y005462D02*
X001349Y005462D01*
X001349Y005064D02*
X001349Y005064D01*
D21*
X002930Y002930D02*
X002930Y012430D01*
X002930Y012680D01*
X001749Y013861D01*
X001749Y014930D01*
X002930Y002930D02*
X003180Y001930D01*
D22*
X002930Y012430D02*
X002930Y012580D01*
X001349Y012580D01*
X002930Y012430D02*
X003180Y012580D01*
D23*
X007180Y004680D02*
X007930Y004680D01*
X008680Y005430D01*
M02*
