G75*
%MOIN*%
%OFA0B0*%
%FSLAX24Y24*%
%IPPOS*%
%LPD*%
%ADD10C,0.0000*%
%ADD11R,0.0634X0.0634*%
%ADD12C,0.0640*%
%ADD13C,0.0560*%
%ADD14C,0.0690*%
%ADD15C,0.1280*%
%ADD16R,0.0640X0.0640*%
%ADD17C,0.0808*%
%ADD18C,0.0560*%
D10*
X000680Y001055D02*
X000680Y020180D01*
X010680Y020180D01*
X010680Y001055D01*
X000680Y001055D01*
D11*
X003180Y002430D03*
X004180Y002430D03*
X005180Y002430D03*
X006180Y002430D03*
D12*
X010011Y005743D03*
X010011Y006530D03*
X010011Y007318D03*
X010011Y008105D03*
X010011Y008893D03*
X010011Y009680D03*
X010011Y010467D03*
X010011Y011255D03*
X010011Y012042D03*
X010011Y012830D03*
X006074Y014930D03*
X005286Y014930D03*
X004499Y014930D03*
X001349Y012830D03*
X001349Y012042D03*
X001349Y011255D03*
X001349Y010467D03*
X001349Y009680D03*
X001349Y008893D03*
X001349Y008105D03*
X001349Y007318D03*
X001349Y006530D03*
X001349Y005743D03*
D13*
X003920Y005930D02*
X004440Y005930D01*
X004440Y006930D02*
X003920Y006930D01*
X003920Y007930D02*
X004440Y007930D01*
X004440Y008930D02*
X003920Y008930D01*
X003920Y009930D02*
X004440Y009930D01*
X004440Y010930D02*
X003920Y010930D01*
X003920Y011930D02*
X004440Y011930D01*
X006920Y011930D02*
X007440Y011930D01*
X007440Y010930D02*
X006920Y010930D01*
X006920Y009930D02*
X007440Y009930D01*
X007440Y008930D02*
X006920Y008930D01*
X006920Y007930D02*
X007440Y007930D01*
X007440Y006930D02*
X006920Y006930D01*
X006920Y005930D02*
X007440Y005930D01*
D14*
X006680Y016855D02*
X006680Y017505D01*
X005680Y017505D02*
X005680Y016855D01*
X004680Y016855D02*
X004680Y017505D01*
D15*
X008680Y004430D03*
X008680Y002430D03*
D16*
X006861Y014930D03*
D17*
X006576Y019180D02*
X007343Y019180D01*
X004784Y019180D02*
X004017Y019180D01*
D18*
X008680Y012680D03*
X008680Y007680D03*
M02*
