G75*
%MOIN*%
%OFA0B0*%
%FSLAX24Y24*%
%IPPOS*%
%LPD*%
%AMOC8*
5,1,8,0,0,1.08239X$1,22.5*
%
%ADD10C,0.0000*%
%ADD11C,0.0060*%
%ADD12C,0.0040*%
%ADD13C,0.0050*%
%ADD14C,0.0100*%
%ADD15C,0.0030*%
%ADD16R,0.0240X0.0340*%
D10*
X000680Y001030D02*
X000680Y020180D01*
X010680Y020180D01*
X010680Y001030D01*
X000680Y001030D01*
D11*
X004530Y003180D02*
X005280Y003180D01*
X005282Y003219D01*
X005288Y003258D01*
X005297Y003296D01*
X005310Y003333D01*
X005327Y003369D01*
X005347Y003402D01*
X005371Y003434D01*
X005397Y003463D01*
X005426Y003489D01*
X005458Y003513D01*
X005491Y003533D01*
X005527Y003550D01*
X005564Y003563D01*
X005602Y003572D01*
X005641Y003578D01*
X005680Y003580D01*
X005719Y003578D01*
X005758Y003572D01*
X005796Y003563D01*
X005833Y003550D01*
X005869Y003533D01*
X005902Y003513D01*
X005934Y003489D01*
X005963Y003463D01*
X005989Y003434D01*
X006013Y003402D01*
X006033Y003369D01*
X006050Y003333D01*
X006063Y003296D01*
X006072Y003258D01*
X006078Y003219D01*
X006080Y003180D01*
X006830Y003180D01*
X006830Y010180D01*
X004530Y010180D01*
X004530Y003180D01*
X008080Y007080D02*
X008080Y007330D01*
X008130Y007380D01*
X008130Y009980D01*
X008080Y010030D01*
X008080Y010280D01*
X008082Y010297D01*
X008086Y010314D01*
X008093Y010330D01*
X008103Y010344D01*
X008116Y010357D01*
X008130Y010367D01*
X008146Y010374D01*
X008163Y010378D01*
X008180Y010380D01*
X009180Y010380D01*
X009197Y010378D01*
X009214Y010374D01*
X009230Y010367D01*
X009244Y010357D01*
X009257Y010344D01*
X009267Y010330D01*
X009274Y010314D01*
X009278Y010297D01*
X009280Y010280D01*
X009280Y010030D01*
X009230Y009980D01*
X009230Y007380D01*
X009280Y007330D01*
X009280Y007080D01*
X009278Y007063D01*
X009274Y007046D01*
X009267Y007030D01*
X009257Y007016D01*
X009244Y007003D01*
X009230Y006993D01*
X009214Y006986D01*
X009197Y006982D01*
X009180Y006980D01*
X008180Y006980D01*
X008163Y006982D01*
X008146Y006986D01*
X008130Y006993D01*
X008116Y007003D01*
X008103Y007016D01*
X008093Y007030D01*
X008086Y007046D01*
X008082Y007063D01*
X008080Y007080D01*
D12*
X006212Y004160D02*
X006212Y003860D01*
X006152Y003800D01*
X006032Y003800D01*
X005972Y003860D01*
X005972Y004160D01*
X005844Y004100D02*
X005784Y004160D01*
X005664Y004160D01*
X005604Y004100D01*
X005476Y004100D02*
X005416Y004160D01*
X005296Y004160D01*
X005236Y004100D01*
X005236Y004040D01*
X005476Y003800D01*
X005236Y003800D01*
X005604Y003860D02*
X005604Y003920D01*
X005664Y003980D01*
X005784Y003980D01*
X005844Y004040D01*
X005844Y004100D01*
X005724Y004220D02*
X005724Y003740D01*
X005664Y003800D02*
X005604Y003860D01*
X005664Y003800D02*
X005784Y003800D01*
X005844Y003860D01*
X005875Y017969D02*
X006081Y017969D01*
X005978Y017969D02*
X005978Y018279D01*
X006081Y018176D01*
X006197Y018279D02*
X006300Y018279D01*
X006249Y018279D02*
X006249Y018021D01*
X006300Y017969D01*
X006352Y017969D01*
X006404Y018021D01*
D13*
X007649Y015324D02*
X007649Y014536D01*
X007455Y010195D02*
X007455Y009895D01*
X007455Y010045D02*
X007905Y010045D01*
X007755Y009895D01*
X007680Y009734D02*
X007605Y009659D01*
X007605Y009434D01*
X007455Y009434D02*
X007905Y009434D01*
X007905Y009659D01*
X007830Y009734D01*
X007680Y009734D01*
X007605Y009584D02*
X007455Y009734D01*
D14*
X007649Y014339D02*
X003711Y014339D01*
X003711Y015560D01*
X007649Y015560D01*
X007649Y014339D01*
X007649Y015560D02*
X007649Y018237D01*
X006782Y018237D01*
X006782Y017843D01*
X004578Y017843D01*
X004578Y018237D01*
X003711Y018237D01*
X003711Y015560D01*
D15*
X004301Y015695D02*
X004301Y015880D01*
X004363Y015942D01*
X004425Y015942D01*
X004486Y015880D01*
X004486Y015695D01*
X004486Y015880D02*
X004548Y015942D01*
X004610Y015942D01*
X004672Y015880D01*
X004672Y015695D01*
X004301Y015695D01*
X004301Y016063D02*
X004301Y016187D01*
X004301Y016125D02*
X004672Y016125D01*
X004672Y016063D01*
X004548Y016371D02*
X004548Y016494D01*
X004486Y016556D01*
X004301Y016556D01*
X004301Y016371D01*
X004363Y016309D01*
X004425Y016371D01*
X004425Y016556D01*
X004486Y016677D02*
X004363Y016677D01*
X004301Y016739D01*
X004301Y016924D01*
X004301Y017045D02*
X004672Y017045D01*
X004548Y016924D02*
X004548Y016739D01*
X004486Y016677D01*
X004425Y017045D02*
X004548Y017231D01*
X004425Y017045D02*
X004301Y017231D01*
X005097Y016679D02*
X005097Y016493D01*
X005158Y016432D01*
X005282Y016432D01*
X005343Y016493D01*
X005343Y016679D01*
X005467Y016679D02*
X005097Y016679D01*
X005220Y016310D02*
X005220Y016063D01*
X005158Y016063D02*
X005282Y016063D01*
X005343Y016125D01*
X005343Y016248D01*
X005282Y016310D01*
X005220Y016310D01*
X005097Y016248D02*
X005097Y016125D01*
X005158Y016063D01*
X005097Y015942D02*
X005220Y015818D01*
X005220Y015880D02*
X005220Y015695D01*
X005097Y015695D02*
X005467Y015695D01*
X005467Y015880D01*
X005405Y015942D01*
X005282Y015942D01*
X005220Y015880D01*
X005945Y015942D02*
X006315Y015942D01*
X006315Y016063D02*
X005945Y016063D01*
X005945Y015942D02*
X006068Y015818D01*
X005945Y015695D01*
X006315Y015695D01*
X006130Y016063D02*
X006192Y016125D01*
X006192Y016248D01*
X006130Y016310D01*
X005945Y016310D01*
X005945Y016432D02*
X005945Y016555D01*
X005945Y016493D02*
X006192Y016493D01*
X006192Y016432D01*
X006315Y016493D02*
X006377Y016493D01*
X006254Y016739D02*
X006007Y016739D01*
X005945Y016801D01*
X006007Y016923D02*
X006130Y016923D01*
X006192Y016984D01*
X006192Y017108D01*
X006130Y017170D01*
X006068Y017170D01*
X006068Y016923D01*
X006007Y016923D02*
X005945Y016984D01*
X005945Y017108D01*
X006192Y016801D02*
X006192Y016677D01*
X006695Y016677D02*
X006695Y016801D01*
X006695Y016739D02*
X007065Y016739D01*
X007065Y016677D01*
X007065Y016493D02*
X006695Y016493D01*
X006695Y016432D02*
X006695Y016555D01*
X006757Y016923D02*
X006695Y016984D01*
X006695Y017108D01*
X006757Y017170D01*
X006880Y017170D01*
X006942Y017108D01*
X006942Y016984D01*
X006880Y016923D01*
X006757Y016923D01*
X006757Y017291D02*
X006695Y017353D01*
X006757Y017414D01*
X006695Y017476D01*
X006757Y017538D01*
X006942Y017538D01*
X006942Y017291D02*
X006757Y017291D01*
X007065Y016493D02*
X007065Y016432D01*
X006942Y016248D02*
X006880Y016310D01*
X006818Y016310D01*
X006818Y016063D01*
X006757Y016063D02*
X006880Y016063D01*
X006942Y016125D01*
X006942Y016248D01*
X007004Y015942D02*
X007065Y015942D01*
X007004Y015942D02*
X006880Y015818D01*
X006695Y015818D01*
X006757Y016063D02*
X006695Y016125D01*
X006695Y016248D01*
X006880Y015818D02*
X007004Y015695D01*
X007065Y015695D01*
D16*
X008680Y010550D03*
X008680Y006810D03*
M02*
