G75*
%MOIN*%
%OFA0B0*%
%FSLAX24Y24*%
%IPPOS*%
%LPD*%
%AMOC8*
5,1,8,0,0,1.08239X$1,22.5*
%
%ADD10C,0.0000*%
%ADD11R,0.0634X0.0634*%
%ADD12C,0.0555*%
%ADD13C,0.0560*%
%ADD14C,0.0690*%
%ADD15OC8,0.1280*%
%ADD16R,0.0555X0.0555*%
%ADD17C,0.0808*%
%ADD18OC8,0.0560*%
D10*
X000680Y000680D02*
X000680Y020180D01*
X010680Y020180D01*
X010680Y000680D01*
X000680Y000680D01*
D11*
X003180Y001930D03*
X004180Y001930D03*
X005180Y001930D03*
X006180Y001930D03*
D12*
X010011Y005493D03*
X010011Y006280D03*
X010011Y007068D03*
X010011Y007855D03*
X010011Y008643D03*
X010011Y009430D03*
X010011Y010217D03*
X010011Y011005D03*
X010011Y011792D03*
X010011Y012580D03*
X003324Y014930D03*
X002536Y014930D03*
X001749Y014930D03*
X001349Y012580D03*
X001349Y011792D03*
X001349Y011005D03*
X001349Y010217D03*
X001349Y009430D03*
X001349Y008643D03*
X001349Y007855D03*
X001349Y007068D03*
X001349Y006280D03*
X001349Y005493D03*
D13*
X003920Y005680D02*
X004440Y005680D01*
X004440Y006680D02*
X003920Y006680D01*
X003920Y007680D02*
X004440Y007680D01*
X004440Y008680D02*
X003920Y008680D01*
X003920Y009680D02*
X004440Y009680D01*
X006920Y009680D02*
X007440Y009680D01*
X007440Y008680D02*
X006920Y008680D01*
X006920Y007680D02*
X007440Y007680D01*
X007440Y006680D02*
X006920Y006680D01*
X006920Y005680D02*
X007440Y005680D01*
X007440Y004680D02*
X006920Y004680D01*
X006920Y003680D02*
X007440Y003680D01*
X004440Y003680D02*
X003920Y003680D01*
X003920Y004680D02*
X004440Y004680D01*
D14*
X004680Y016855D02*
X004680Y017505D01*
X005680Y017505D02*
X005680Y016855D01*
X006680Y016855D02*
X006680Y017505D01*
D15*
X009180Y004180D03*
X009180Y002180D03*
D16*
X004111Y014930D03*
D17*
X004017Y019180D02*
X004784Y019180D01*
X006576Y019180D02*
X007343Y019180D01*
D18*
X008680Y010430D03*
X008680Y005430D03*
M02*
