G75*
%MOIN*%
%OFA0B0*%
%FSLAX24Y24*%
%IPPOS*%
%LPD*%
%ADD10C,0.0000*%
%ADD11C,0.0050*%
%ADD12C,0.0030*%
%ADD13C,0.0040*%
%ADD14C,0.0080*%
%ADD15C,0.0100*%
%ADD16C,0.0060*%
D10*
X000680Y001055D02*
X000680Y020180D01*
X010680Y020180D01*
X010680Y001055D01*
X000680Y001055D01*
D11*
X000837Y003381D02*
X010523Y003381D01*
X010523Y013066D01*
X007649Y015979D01*
X003711Y015979D01*
X000837Y013066D01*
X000837Y003381D01*
X002680Y002930D02*
X002680Y001930D01*
X003680Y001930D01*
X003680Y002930D01*
X004680Y002930D01*
X004680Y001930D01*
X003680Y001930D01*
X003680Y002930D02*
X002680Y002930D01*
X002680Y009430D01*
X006680Y009430D01*
X006680Y002930D01*
X005680Y002930D01*
X005680Y001930D01*
X004680Y001930D01*
X004680Y002930D02*
X005680Y002930D01*
X005680Y001930D02*
X006680Y001930D01*
X006680Y002930D01*
D12*
X006365Y003257D02*
X006365Y003380D01*
X006303Y003442D01*
X006242Y003442D01*
X006180Y003380D01*
X006180Y003257D01*
X006118Y003195D01*
X006056Y003195D01*
X005995Y003257D01*
X005995Y003380D01*
X006056Y003442D01*
X006303Y003195D02*
X006365Y003257D01*
X005365Y003257D02*
X004995Y003257D01*
X004995Y003318D02*
X004995Y003195D01*
X005365Y003195D02*
X005365Y003318D01*
X004365Y003257D02*
X004365Y003380D01*
X004303Y003442D01*
X004180Y003442D01*
X004180Y003318D01*
X004303Y003195D02*
X004056Y003195D01*
X003995Y003257D01*
X003995Y003380D01*
X004056Y003442D01*
X004303Y003195D02*
X004365Y003257D01*
X003365Y003257D02*
X003365Y003380D01*
X003303Y003442D01*
X003056Y003442D01*
X002995Y003380D01*
X002995Y003257D01*
X003056Y003195D01*
X003303Y003195D01*
X003365Y003257D01*
X003856Y016445D02*
X003918Y016445D01*
X003980Y016507D01*
X003980Y016630D01*
X004042Y016692D01*
X004103Y016692D01*
X004165Y016630D01*
X004165Y016507D01*
X004103Y016445D01*
X003856Y016445D02*
X003795Y016507D01*
X003795Y016630D01*
X003856Y016692D01*
X003918Y016813D02*
X003795Y016937D01*
X004165Y016937D01*
X004165Y017060D02*
X004165Y016813D01*
D13*
X004777Y020200D02*
X004700Y020277D01*
X004777Y020200D02*
X004930Y020200D01*
X005007Y020277D01*
X005007Y020353D01*
X004930Y020430D01*
X004777Y020430D01*
X004700Y020507D01*
X004700Y020584D01*
X004777Y020660D01*
X004930Y020660D01*
X005007Y020584D01*
X005160Y020584D02*
X005237Y020660D01*
X005391Y020660D01*
X005467Y020584D01*
X005467Y020507D01*
X005160Y020200D01*
X005467Y020200D01*
X009479Y007696D02*
X009479Y007389D01*
X009479Y007543D02*
X009019Y007543D01*
X009172Y007389D01*
X009095Y007236D02*
X009019Y007159D01*
X009019Y007006D01*
X009095Y006929D01*
X009172Y006929D01*
X009249Y007006D01*
X009249Y007159D01*
X009325Y007236D01*
X009402Y007236D01*
X009479Y007159D01*
X009479Y007006D01*
X009402Y006929D01*
X009402Y006775D02*
X009019Y006775D01*
X008942Y007082D02*
X009556Y007082D01*
X009402Y006775D02*
X009479Y006699D01*
X009479Y006545D01*
X009402Y006468D01*
X009019Y006468D01*
X008235Y003690D02*
X008235Y003450D01*
X008235Y003570D02*
X007875Y003570D01*
X007995Y003450D01*
X008055Y003322D02*
X008055Y003202D01*
X008055Y003322D02*
X008175Y003322D01*
X008235Y003262D01*
X008235Y003142D01*
X008175Y003082D01*
X007935Y003082D01*
X007875Y003142D01*
X007875Y003262D01*
X007935Y003322D01*
D14*
X009470Y003209D02*
X009470Y003069D01*
X009540Y002999D01*
X009610Y002999D01*
X009680Y003069D01*
X009680Y003279D01*
X009820Y003279D02*
X009540Y003279D01*
X009470Y003209D01*
X009470Y003460D02*
X009750Y003460D01*
X009890Y003600D01*
X009750Y003740D01*
X009470Y003740D01*
X009820Y003279D02*
X009890Y003209D01*
X009890Y003069D01*
X009820Y002999D01*
X007680Y016180D02*
X003680Y016180D01*
X003680Y018180D01*
X007680Y018180D01*
X007680Y016180D01*
X006861Y018491D02*
X004499Y018491D01*
X004499Y018589D01*
X004499Y019771D02*
X004499Y019869D01*
X006861Y019869D01*
X006861Y019771D01*
X006861Y018589D02*
X006861Y018491D01*
X006074Y018885D02*
X005286Y018885D01*
X005286Y019475D02*
X006074Y019475D01*
D15*
X009680Y004680D02*
X009680Y004180D01*
X009680Y002680D02*
X009680Y002180D01*
X009430Y002430D02*
X009930Y002430D01*
D16*
X009680Y001730D02*
X009380Y001430D01*
X007980Y001430D01*
X007680Y001730D01*
X007680Y005130D01*
X007980Y005430D01*
X009380Y005430D01*
X009680Y005130D01*
M02*
