%
M48
M72
T01C0.0315
T02C0.0320
T03C0.0394
T04C0.0433
T05C0.0440
T06C0.0512
%
T01
X1349Y5743
X1349Y6530
X1349Y7318
X1349Y8105
X1349Y8893
X1349Y9680
X1349Y10467
X1349Y11255
X1349Y12042
X1349Y12830
X4499Y14930
X5286Y14930
X6074Y14930
X6861Y14930
X10011Y12830
X10011Y12042
X10011Y11255
X10011Y10467
X10011Y9680
X10011Y8893
X10011Y8105
X10011Y7318
X10011Y6530
X10011Y5743
T02
X4180Y3680
X4180Y4680
X4180Y5680
X4180Y6680
X4180Y7680
X4180Y8680
X4180Y9680
X7180Y9680
X7180Y8680
X7180Y7680
X7180Y6680
X7180Y5680
X7180Y4680
X7180Y3680
X8680Y6180
X8680Y11180
T03
X3180Y2180
X4180Y2180
X5180Y2180
X6180Y2180
T04
X4680Y17180
X5680Y17180
X6680Y17180
T05
X9180Y4430
X9180Y2430
T06
X4400Y19180
X6960Y19180
M30
