%
M48
M72
T01C0.0315
T02C0.0320
T03C0.0394
T04C0.0433
T05C0.0440
T06C0.0512
%
T01
X1349Y5493
X1349Y6280
X1349Y7068
X1349Y7855
X1349Y8643
X1349Y9430
X1349Y10217
X1349Y11005
X1349Y11792
X1349Y12580
X1749Y14930
X2536Y14930
X3324Y14930
X4111Y14930
X10011Y12580
X10011Y11792
X10011Y11005
X10011Y10217
X10011Y9430
X10011Y8643
X10011Y7855
X10011Y7068
X10011Y6280
X10011Y5493
T02
X4180Y3680
X4180Y4680
X4180Y5680
X4180Y6680
X4180Y7680
X4180Y8680
X4180Y9680
X7180Y9680
X7180Y8680
X7180Y7680
X7180Y6680
X7180Y5680
X7180Y4680
X7180Y3680
X8680Y5430
X8680Y10430
T03
X3180Y1930
X4180Y1930
X5180Y1930
X6180Y1930
T04
X4680Y17180
X5680Y17180
X6680Y17180
T05
X9180Y4180
X9180Y2180
T06
X4400Y19180
X6960Y19180
M30
