G75*
%MOIN*%
%OFA0B0*%
%FSLAX24Y24*%
%IPPOS*%
%LPD*%
%ADD10C,0.0000*%
%ADD11R,0.0594X0.0594*%
%ADD12C,0.0600*%
%ADD13C,0.0520*%
%ADD14C,0.0650*%
%ADD15C,0.1240*%
%ADD16R,0.0600X0.0600*%
%ADD17C,0.0768*%
%ADD18C,0.0520*%
%ADD19C,0.0160*%
%ADD20C,0.0410*%
%ADD21C,0.0400*%
%ADD22C,0.0300*%
%ADD23C,0.0320*%
D10*
X000680Y001055D02*
X000680Y020180D01*
X010680Y020180D01*
X010680Y001055D01*
X000680Y001055D01*
D11*
X003180Y002430D03*
X004180Y002430D03*
X005180Y002430D03*
X006180Y002430D03*
D12*
X010011Y005743D03*
X010011Y006530D03*
X010011Y007318D03*
X010011Y008105D03*
X010011Y008893D03*
X010011Y009680D03*
X010011Y010467D03*
X010011Y011255D03*
X010011Y012042D03*
X010011Y012830D03*
X006074Y014930D03*
X005286Y014930D03*
X004499Y014930D03*
X001349Y012830D03*
X001349Y012042D03*
X001349Y011255D03*
X001349Y010467D03*
X001349Y009680D03*
X001349Y008893D03*
X001349Y008105D03*
X001349Y007318D03*
X001349Y006530D03*
X001349Y005743D03*
D13*
X003920Y005930D02*
X004440Y005930D01*
X004440Y006930D02*
X003920Y006930D01*
X003920Y007930D02*
X004440Y007930D01*
X004440Y008930D02*
X003920Y008930D01*
X003920Y009930D02*
X004440Y009930D01*
X004440Y010930D02*
X003920Y010930D01*
X003920Y011930D02*
X004440Y011930D01*
X006920Y011930D02*
X007440Y011930D01*
X007440Y010930D02*
X006920Y010930D01*
X006920Y009930D02*
X007440Y009930D01*
X007440Y008930D02*
X006920Y008930D01*
X006920Y007930D02*
X007440Y007930D01*
X007440Y006930D02*
X006920Y006930D01*
X006920Y005930D02*
X007440Y005930D01*
D14*
X006680Y016855D02*
X006680Y017505D01*
X005680Y017505D02*
X005680Y016855D01*
X004680Y016855D02*
X004680Y017505D01*
D15*
X008680Y004430D03*
X008680Y002430D03*
D16*
X006861Y014930D03*
D17*
X006576Y019180D02*
X007343Y019180D01*
X004784Y019180D02*
X004017Y019180D01*
D18*
X008680Y012680D03*
X008680Y007680D03*
D19*
X008473Y007237D02*
X007784Y007237D01*
X007830Y007191D02*
X007701Y007320D01*
X007531Y007390D01*
X006828Y007390D01*
X006659Y007320D01*
X006530Y007191D01*
X006460Y007021D01*
X006460Y006838D01*
X006530Y006669D01*
X006659Y006540D01*
X006828Y006470D01*
X007531Y006470D01*
X007701Y006540D01*
X007830Y006669D01*
X007900Y006838D01*
X007900Y007021D01*
X007830Y007191D01*
X007877Y007078D02*
X009569Y007078D01*
X009587Y007035D02*
X009697Y006924D01*
X009587Y006814D01*
X009511Y006630D01*
X009511Y006431D01*
X009587Y006247D01*
X009697Y006137D01*
X009587Y006026D01*
X009511Y005842D01*
X009511Y005644D01*
X009587Y005460D01*
X009727Y005319D01*
X009911Y005243D01*
X010110Y005243D01*
X010294Y005319D01*
X010435Y005460D01*
X010480Y005569D01*
X010480Y001255D01*
X000880Y001255D01*
X000880Y005638D01*
X000881Y005631D01*
X000904Y005559D01*
X000939Y005491D01*
X000983Y005430D01*
X001037Y005377D01*
X001098Y005332D01*
X001165Y005298D01*
X001237Y005275D01*
X001312Y005263D01*
X001349Y005263D01*
X001349Y005743D01*
X001349Y005743D01*
X001349Y005263D01*
X001387Y005263D01*
X001462Y005275D01*
X001534Y005298D01*
X001601Y005332D01*
X001662Y005377D01*
X001715Y005430D01*
X001760Y005491D01*
X001794Y005559D01*
X001817Y005631D01*
X001829Y005705D01*
X001829Y005743D01*
X001829Y005781D01*
X001817Y005855D01*
X001794Y005927D01*
X001760Y005995D01*
X001715Y006056D01*
X001662Y006109D01*
X001646Y006120D01*
X001773Y006247D01*
X001849Y006431D01*
X001849Y006630D01*
X001773Y006814D01*
X001663Y006924D01*
X001673Y006934D01*
X002509Y006851D01*
X002590Y006799D01*
X003570Y006630D01*
X003659Y006540D01*
X003828Y006470D01*
X004531Y006470D01*
X004701Y006540D01*
X004830Y006669D01*
X004900Y006838D01*
X004900Y007021D01*
X004830Y007191D01*
X004701Y007320D01*
X004531Y007390D01*
X003868Y007390D01*
X002727Y007588D01*
X002572Y007553D01*
X002566Y007549D01*
X001744Y007630D01*
X001663Y007711D01*
X001726Y007774D01*
X002753Y007828D01*
X003521Y007692D01*
X003530Y007669D01*
X003659Y007540D01*
X003828Y007470D01*
X004531Y007470D01*
X004701Y007540D01*
X004830Y007669D01*
X004900Y007838D01*
X004900Y008021D01*
X004830Y008191D01*
X004701Y008320D01*
X004531Y008390D01*
X003828Y008390D01*
X003758Y008361D01*
X002864Y008520D01*
X002826Y008533D01*
X002796Y008532D01*
X002767Y008537D01*
X002727Y008528D01*
X001688Y008473D01*
X001663Y008499D01*
X001718Y008554D01*
X002567Y008580D01*
X003619Y008580D01*
X003659Y008540D01*
X003828Y008470D01*
X004531Y008470D01*
X004701Y008540D01*
X004830Y008669D01*
X004900Y008838D01*
X004900Y009021D01*
X004830Y009191D01*
X004701Y009320D01*
X004531Y009390D01*
X003828Y009390D01*
X003659Y009320D01*
X003619Y009280D01*
X002626Y009280D01*
X002621Y009282D01*
X002557Y009280D01*
X002492Y009280D01*
X002487Y009278D01*
X001696Y009253D01*
X001663Y009286D01*
X001773Y009397D01*
X001849Y009581D01*
X001849Y009779D01*
X001773Y009963D01*
X001663Y010074D01*
X001773Y010184D01*
X001849Y010368D01*
X001849Y010445D01*
X001953Y010341D01*
X002703Y009591D01*
X002850Y009530D01*
X003684Y009530D01*
X003828Y009470D01*
X004531Y009470D01*
X004701Y009540D01*
X004830Y009669D01*
X004900Y009838D01*
X004900Y010021D01*
X004830Y010191D01*
X004701Y010320D01*
X004531Y010390D01*
X003828Y010390D01*
X003684Y010330D01*
X003096Y010330D01*
X002580Y010846D01*
X002580Y011230D01*
X002591Y011203D01*
X002703Y011091D01*
X003203Y010591D01*
X003350Y010530D01*
X003684Y010530D01*
X003828Y010470D01*
X004531Y010470D01*
X004701Y010540D01*
X004830Y010669D01*
X004900Y010838D01*
X004900Y011021D01*
X004830Y011191D01*
X004701Y011320D01*
X004531Y011390D01*
X003828Y011390D01*
X003684Y011330D01*
X003596Y011330D01*
X003330Y011596D01*
X003330Y012163D01*
X003626Y012287D01*
X003530Y012191D01*
X003460Y012021D01*
X003460Y011838D01*
X003530Y011669D01*
X003659Y011540D01*
X003828Y011470D01*
X004531Y011470D01*
X004701Y011540D01*
X004830Y011669D01*
X004900Y011838D01*
X004900Y012021D01*
X004830Y012191D01*
X004701Y012320D01*
X004531Y012390D01*
X003874Y012390D01*
X006157Y013341D01*
X006270Y013454D01*
X006330Y013601D01*
X006330Y013760D01*
X006308Y013813D01*
X006389Y014519D01*
X006478Y014430D01*
X007244Y014430D01*
X007361Y014547D01*
X007361Y015313D01*
X007244Y015430D01*
X006478Y015430D01*
X006380Y015331D01*
X006357Y015354D01*
X006173Y015430D01*
X005974Y015430D01*
X005790Y015354D01*
X005680Y015243D01*
X005570Y015354D01*
X005386Y015430D01*
X005187Y015430D01*
X005003Y015354D01*
X004893Y015243D01*
X004782Y015354D01*
X004598Y015430D01*
X004399Y015430D01*
X004216Y015354D01*
X004075Y015213D01*
X003999Y015029D01*
X003999Y014831D01*
X004075Y014647D01*
X004216Y014506D01*
X004399Y014430D01*
X004598Y014430D01*
X004782Y014506D01*
X004876Y014600D01*
X004861Y014495D01*
X002115Y013580D01*
X002100Y013580D01*
X002040Y013555D01*
X001978Y013534D01*
X001967Y013525D01*
X001953Y013519D01*
X001907Y013473D01*
X001858Y013430D01*
X001851Y013417D01*
X001841Y013407D01*
X001816Y013346D01*
X001787Y013288D01*
X001786Y013273D01*
X001780Y013260D01*
X001780Y013194D01*
X001775Y013129D01*
X001780Y013115D01*
X001780Y013096D01*
X001773Y013113D01*
X001633Y013253D01*
X001449Y013330D01*
X001250Y013330D01*
X001066Y013253D01*
X000925Y013113D01*
X000880Y013003D01*
X000880Y019980D01*
X010480Y019980D01*
X010480Y013003D01*
X010435Y013113D01*
X010319Y013229D01*
X010311Y013285D01*
X010330Y013331D01*
X010330Y017635D01*
X010269Y017782D01*
X010157Y017894D01*
X010157Y017894D01*
X008725Y019326D01*
X008684Y019374D01*
X008669Y019382D01*
X008657Y019394D01*
X008599Y019418D01*
X008543Y019447D01*
X008526Y019448D01*
X008510Y019455D01*
X008447Y019455D01*
X007840Y019507D01*
X007838Y019511D01*
X007674Y019675D01*
X007460Y019764D01*
X006460Y019764D01*
X006245Y019675D01*
X006081Y019511D01*
X005992Y019296D01*
X005992Y019064D01*
X006081Y018849D01*
X006245Y018685D01*
X006460Y018596D01*
X007460Y018596D01*
X007674Y018685D01*
X007704Y018715D01*
X008250Y018669D01*
X009530Y017389D01*
X009530Y013331D01*
X009591Y013184D01*
X009599Y013175D01*
X009605Y013131D01*
X009587Y013113D01*
X009511Y012929D01*
X009511Y012730D01*
X009587Y012546D01*
X009697Y012436D01*
X009587Y012325D01*
X009511Y012142D01*
X009511Y011943D01*
X009587Y011759D01*
X009697Y011649D01*
X009587Y011538D01*
X009511Y011354D01*
X009511Y011155D01*
X009587Y010972D01*
X009697Y010861D01*
X009587Y010751D01*
X009511Y010567D01*
X009511Y010368D01*
X009587Y010184D01*
X009697Y010074D01*
X009587Y009963D01*
X009511Y009779D01*
X009511Y009581D01*
X009587Y009397D01*
X009697Y009286D01*
X009587Y009176D01*
X009511Y008992D01*
X009511Y008793D01*
X009587Y008609D01*
X009697Y008499D01*
X009587Y008388D01*
X009511Y008205D01*
X009511Y008006D01*
X009587Y007822D01*
X009697Y007711D01*
X009587Y007601D01*
X009511Y007417D01*
X009511Y007218D01*
X009587Y007035D01*
X009693Y006920D02*
X007900Y006920D01*
X007868Y006761D02*
X009565Y006761D01*
X009511Y006603D02*
X007763Y006603D01*
X007701Y006320D02*
X007531Y006390D01*
X006828Y006390D01*
X006659Y006320D01*
X006530Y006191D01*
X006460Y006021D01*
X006460Y005838D01*
X006530Y005669D01*
X006659Y005540D01*
X006828Y005470D01*
X007531Y005470D01*
X007701Y005540D01*
X007830Y005669D01*
X007900Y005838D01*
X007900Y006021D01*
X007830Y006191D01*
X007701Y006320D01*
X007735Y006286D02*
X009571Y006286D01*
X009511Y006444D02*
X005830Y006444D01*
X005830Y006286D02*
X006625Y006286D01*
X006504Y006127D02*
X005830Y006127D01*
X005830Y005969D02*
X006460Y005969D01*
X006472Y005810D02*
X005830Y005810D01*
X005830Y005652D02*
X006548Y005652D01*
X006773Y005493D02*
X005830Y005493D01*
X005830Y005335D02*
X009712Y005335D01*
X009573Y005493D02*
X007587Y005493D01*
X007812Y005652D02*
X009511Y005652D01*
X009511Y005810D02*
X007888Y005810D01*
X007900Y005969D02*
X009563Y005969D01*
X009688Y006127D02*
X007856Y006127D01*
X008349Y005230D02*
X007880Y004761D01*
X007880Y004460D01*
X008650Y004460D01*
X008650Y005230D01*
X008349Y005230D01*
X008295Y005176D02*
X005830Y005176D01*
X005830Y005018D02*
X008136Y005018D01*
X007978Y004859D02*
X005830Y004859D01*
X005830Y004701D02*
X007880Y004701D01*
X007880Y004542D02*
X005830Y004542D01*
X005830Y004384D02*
X007880Y004384D01*
X007880Y004400D02*
X007880Y004099D01*
X008349Y003630D01*
X008650Y003630D01*
X008650Y004400D01*
X008710Y004400D01*
X008710Y004460D01*
X009480Y004460D01*
X009480Y004761D01*
X009011Y005230D01*
X008710Y005230D01*
X008710Y004460D01*
X008650Y004460D01*
X008650Y004400D01*
X007880Y004400D01*
X007880Y004225D02*
X005830Y004225D01*
X005830Y004067D02*
X007912Y004067D01*
X008071Y003908D02*
X006011Y003908D01*
X005830Y003968D02*
X005830Y012193D01*
X008353Y013569D01*
X008407Y013591D01*
X008422Y013606D01*
X008441Y013617D01*
X008478Y013662D01*
X008519Y013703D01*
X008528Y013724D01*
X008541Y013741D01*
X008558Y013797D01*
X008580Y013850D01*
X008580Y013872D01*
X008586Y013893D01*
X008580Y013951D01*
X008580Y017260D01*
X008519Y017407D01*
X008407Y017519D01*
X008260Y017580D01*
X007205Y017580D01*
X007205Y017609D01*
X007125Y017802D01*
X006977Y017950D01*
X006784Y018030D01*
X006576Y018030D01*
X006383Y017950D01*
X006235Y017802D01*
X006167Y017639D01*
X006148Y017699D01*
X006112Y017769D01*
X006065Y017834D01*
X006009Y017890D01*
X005945Y017937D01*
X005874Y017973D01*
X005798Y017997D01*
X005720Y018010D01*
X005708Y018010D01*
X005708Y017208D01*
X005652Y017208D01*
X005652Y018010D01*
X005640Y018010D01*
X005562Y017997D01*
X005486Y017973D01*
X005415Y017937D01*
X005351Y017890D01*
X005295Y017834D01*
X005248Y017769D01*
X005212Y017699D01*
X005193Y017639D01*
X005125Y017802D01*
X004977Y017950D01*
X004784Y018030D01*
X004576Y018030D01*
X004383Y017950D01*
X004235Y017802D01*
X004155Y017609D01*
X004155Y016751D01*
X004235Y016558D01*
X004383Y016410D01*
X004576Y016330D01*
X004784Y016330D01*
X004977Y016410D01*
X005125Y016558D01*
X005193Y016721D01*
X005212Y016661D01*
X005248Y016591D01*
X005295Y016526D01*
X005351Y016470D01*
X005415Y016423D01*
X005486Y016387D01*
X005562Y016363D01*
X005640Y016350D01*
X005652Y016350D01*
X005652Y017152D01*
X005708Y017152D01*
X005708Y016350D01*
X005720Y016350D01*
X005798Y016363D01*
X005874Y016387D01*
X005945Y016423D01*
X006009Y016470D01*
X006065Y016526D01*
X006112Y016591D01*
X006148Y016661D01*
X006167Y016721D01*
X006235Y016558D01*
X006383Y016410D01*
X006576Y016330D01*
X006784Y016330D01*
X006977Y016410D01*
X007125Y016558D01*
X007205Y016751D01*
X007205Y016780D01*
X007780Y016780D01*
X007780Y014167D01*
X005257Y012791D01*
X005203Y012769D01*
X005188Y012754D01*
X005169Y012743D01*
X005132Y012698D01*
X005091Y012657D01*
X005082Y012636D01*
X005069Y012619D01*
X005052Y012563D01*
X005030Y012510D01*
X005030Y012488D01*
X005024Y012467D01*
X004059Y012467D01*
X004439Y012626D02*
X005074Y012626D01*
X005024Y012467D02*
X005030Y012409D01*
X005030Y003745D01*
X005025Y003731D01*
X005030Y003666D01*
X005030Y003600D01*
X005036Y003587D01*
X005037Y003572D01*
X005066Y003514D01*
X005091Y003453D01*
X005101Y003443D01*
X005108Y003430D01*
X005157Y003387D01*
X005203Y003341D01*
X005217Y003335D01*
X005228Y003326D01*
X005290Y003305D01*
X005350Y003280D01*
X005365Y003280D01*
X005780Y003142D01*
X005780Y002907D01*
X005683Y002810D01*
X005683Y002050D01*
X005800Y001933D01*
X006560Y001933D01*
X006677Y002050D01*
X006677Y002810D01*
X006580Y002907D01*
X006580Y003365D01*
X006585Y003379D01*
X006580Y003444D01*
X006580Y003510D01*
X006574Y003523D01*
X006573Y003538D01*
X006544Y003596D01*
X006519Y003657D01*
X006509Y003667D01*
X006502Y003680D01*
X006453Y003723D01*
X006407Y003769D01*
X006393Y003775D01*
X006382Y003784D01*
X006320Y003805D01*
X006260Y003830D01*
X006245Y003830D01*
X005830Y003968D01*
X005383Y003274D02*
X000880Y003274D01*
X000880Y003116D02*
X005780Y003116D01*
X005780Y002957D02*
X000880Y002957D01*
X000880Y002799D02*
X002683Y002799D01*
X002683Y002810D02*
X002800Y002927D01*
X003560Y002927D01*
X003677Y002810D01*
X003677Y002050D01*
X003560Y001933D01*
X002800Y001933D01*
X002683Y002050D01*
X002683Y002810D01*
X002683Y002640D02*
X000880Y002640D01*
X000880Y002482D02*
X002683Y002482D01*
X002683Y002323D02*
X000880Y002323D01*
X000880Y002165D02*
X002683Y002165D01*
X002727Y002006D02*
X000880Y002006D01*
X000880Y001848D02*
X008103Y001848D01*
X007944Y002006D02*
X006633Y002006D01*
X006677Y002165D02*
X007860Y002165D01*
X007860Y002090D02*
X008340Y001610D01*
X009020Y001610D01*
X009500Y002090D01*
X009500Y002770D01*
X009020Y003250D01*
X008340Y003250D01*
X007860Y002770D01*
X007860Y002090D01*
X007860Y002323D02*
X006677Y002323D01*
X006677Y002482D02*
X007860Y002482D01*
X007860Y002640D02*
X006677Y002640D01*
X006677Y002799D02*
X007889Y002799D01*
X008047Y002957D02*
X006580Y002957D01*
X006580Y003116D02*
X008206Y003116D01*
X008229Y003750D02*
X006426Y003750D01*
X006547Y003591D02*
X010480Y003591D01*
X010480Y003433D02*
X006581Y003433D01*
X006580Y003274D02*
X010480Y003274D01*
X010480Y003116D02*
X009154Y003116D01*
X009313Y002957D02*
X010480Y002957D01*
X010480Y002799D02*
X009471Y002799D01*
X009500Y002640D02*
X010480Y002640D01*
X010480Y002482D02*
X009500Y002482D01*
X009500Y002323D02*
X010480Y002323D01*
X010480Y002165D02*
X009500Y002165D01*
X009416Y002006D02*
X010480Y002006D01*
X010480Y001848D02*
X009257Y001848D01*
X009099Y001689D02*
X010480Y001689D01*
X010480Y001531D02*
X000880Y001531D01*
X000880Y001689D02*
X008261Y001689D01*
X008710Y003630D02*
X009011Y003630D01*
X009480Y004099D01*
X009480Y004400D01*
X008710Y004400D01*
X008710Y003630D01*
X008710Y003750D02*
X008650Y003750D01*
X008650Y003908D02*
X008710Y003908D01*
X008710Y004067D02*
X008650Y004067D01*
X008650Y004225D02*
X008710Y004225D01*
X008710Y004384D02*
X008650Y004384D01*
X008650Y004542D02*
X008710Y004542D01*
X008710Y004701D02*
X008650Y004701D01*
X008650Y004859D02*
X008710Y004859D01*
X008710Y005018D02*
X008650Y005018D01*
X008650Y005176D02*
X008710Y005176D01*
X009065Y005176D02*
X010480Y005176D01*
X010480Y005018D02*
X009224Y005018D01*
X009382Y004859D02*
X010480Y004859D01*
X010480Y004701D02*
X009480Y004701D01*
X009480Y004542D02*
X010480Y004542D01*
X010480Y004384D02*
X009480Y004384D01*
X009480Y004225D02*
X010480Y004225D01*
X010480Y004067D02*
X009448Y004067D01*
X009289Y003908D02*
X010480Y003908D01*
X010480Y003750D02*
X009131Y003750D01*
X010309Y005335D02*
X010480Y005335D01*
X010480Y005493D02*
X010448Y005493D01*
X009511Y007237D02*
X008887Y007237D01*
X008871Y007220D02*
X009140Y007489D01*
X009140Y007871D01*
X008871Y008140D01*
X008489Y008140D01*
X008220Y007871D01*
X008220Y007489D01*
X008489Y007220D01*
X008871Y007220D01*
X009046Y007395D02*
X009511Y007395D01*
X009567Y007554D02*
X009140Y007554D01*
X009140Y007712D02*
X009697Y007712D01*
X009567Y007871D02*
X009140Y007871D01*
X008982Y008029D02*
X009511Y008029D01*
X009511Y008188D02*
X007831Y008188D01*
X007830Y008191D02*
X007701Y008320D01*
X007531Y008390D01*
X006828Y008390D01*
X006659Y008320D01*
X006530Y008191D01*
X006460Y008021D01*
X006460Y007838D01*
X006530Y007669D01*
X006659Y007540D01*
X006828Y007470D01*
X007531Y007470D01*
X007701Y007540D01*
X007830Y007669D01*
X007900Y007838D01*
X007900Y008021D01*
X007830Y008191D01*
X007897Y008029D02*
X008378Y008029D01*
X008220Y007871D02*
X007900Y007871D01*
X007848Y007712D02*
X008220Y007712D01*
X008220Y007554D02*
X007714Y007554D01*
X007638Y008346D02*
X009569Y008346D01*
X009692Y008505D02*
X007554Y008505D01*
X007543Y008501D02*
X007609Y008522D01*
X007671Y008554D01*
X007727Y008594D01*
X007776Y008643D01*
X007816Y008699D01*
X007848Y008761D01*
X007869Y008827D01*
X007880Y008895D01*
X007880Y008930D01*
X007880Y008965D01*
X007869Y009033D01*
X007848Y009099D01*
X007816Y009161D01*
X007776Y009217D01*
X007727Y009266D01*
X007671Y009306D01*
X007609Y009338D01*
X007543Y009359D01*
X007475Y009370D01*
X007180Y009370D01*
X007180Y008930D01*
X007180Y008930D01*
X007880Y008930D01*
X007180Y008930D01*
X007180Y008930D01*
X007180Y008490D01*
X007475Y008490D01*
X007543Y008501D01*
X007790Y008663D02*
X009565Y008663D01*
X009511Y008822D02*
X007867Y008822D01*
X007878Y008980D02*
X009511Y008980D01*
X009571Y009139D02*
X007828Y009139D01*
X007683Y009297D02*
X009687Y009297D01*
X009562Y009456D02*
X005830Y009456D01*
X005830Y009614D02*
X006585Y009614D01*
X006530Y009669D02*
X006659Y009540D01*
X006828Y009470D01*
X007531Y009470D01*
X007701Y009540D01*
X007830Y009669D01*
X007900Y009838D01*
X007900Y010021D01*
X007830Y010191D01*
X007701Y010320D01*
X007531Y010390D01*
X006828Y010390D01*
X006659Y010320D01*
X006530Y010191D01*
X006460Y010021D01*
X006460Y009838D01*
X006530Y009669D01*
X006487Y009773D02*
X005830Y009773D01*
X005830Y009931D02*
X006460Y009931D01*
X006488Y010090D02*
X005830Y010090D01*
X005830Y010248D02*
X006587Y010248D01*
X006659Y010540D02*
X006530Y010669D01*
X006460Y010838D01*
X006460Y011021D01*
X006530Y011191D01*
X006659Y011320D01*
X006828Y011390D01*
X007531Y011390D01*
X007701Y011320D01*
X007830Y011191D01*
X007900Y011021D01*
X007900Y010838D01*
X007830Y010669D01*
X007701Y010540D01*
X007531Y010470D01*
X006828Y010470D01*
X006659Y010540D01*
X006634Y010565D02*
X005830Y010565D01*
X005830Y010407D02*
X009511Y010407D01*
X009511Y010565D02*
X007726Y010565D01*
X007852Y010724D02*
X009576Y010724D01*
X009676Y010882D02*
X007900Y010882D01*
X007892Y011041D02*
X009558Y011041D01*
X009511Y011199D02*
X007822Y011199D01*
X007610Y011358D02*
X009512Y011358D01*
X009578Y011516D02*
X007643Y011516D01*
X007701Y011540D02*
X007830Y011669D01*
X007900Y011838D01*
X007900Y012021D01*
X007830Y012191D01*
X007701Y012320D01*
X007531Y012390D01*
X006828Y012390D01*
X006659Y012320D01*
X006530Y012191D01*
X006460Y012021D01*
X006460Y011838D01*
X006530Y011669D01*
X006659Y011540D01*
X006828Y011470D01*
X007531Y011470D01*
X007701Y011540D01*
X007832Y011675D02*
X009671Y011675D01*
X009556Y011833D02*
X007898Y011833D01*
X007900Y011992D02*
X009511Y011992D01*
X009514Y012150D02*
X007847Y012150D01*
X007712Y012309D02*
X008429Y012309D01*
X008498Y012240D02*
X008240Y012498D01*
X008240Y012680D01*
X008680Y012680D01*
X008680Y012680D01*
X008680Y013120D01*
X008862Y013120D01*
X009120Y012862D01*
X009120Y012680D01*
X008680Y012680D01*
X008680Y012680D01*
X008680Y012680D01*
X008680Y013120D01*
X008498Y013120D01*
X008240Y012862D01*
X008240Y012680D01*
X008680Y012680D01*
X009120Y012680D01*
X009120Y012498D01*
X008862Y012240D01*
X008680Y012240D01*
X008680Y012680D01*
X008680Y012680D01*
X008680Y012240D01*
X008498Y012240D01*
X008271Y012467D02*
X006333Y012467D01*
X006513Y012150D02*
X005830Y012150D01*
X005830Y011992D02*
X006460Y011992D01*
X006462Y011833D02*
X005830Y011833D01*
X005830Y011675D02*
X006528Y011675D01*
X006717Y011516D02*
X005830Y011516D01*
X005830Y011358D02*
X006750Y011358D01*
X006538Y011199D02*
X005830Y011199D01*
X005830Y011041D02*
X006468Y011041D01*
X006460Y010882D02*
X005830Y010882D01*
X005830Y010724D02*
X006508Y010724D01*
X006817Y009359D02*
X006751Y009338D01*
X006689Y009306D01*
X006633Y009266D01*
X006584Y009217D01*
X006544Y009161D01*
X006512Y009099D01*
X006491Y009033D01*
X006480Y008965D01*
X006480Y008930D01*
X007180Y008930D01*
X007180Y008930D01*
X007180Y008930D01*
X007180Y009370D01*
X006885Y009370D01*
X006817Y009359D01*
X006677Y009297D02*
X005830Y009297D01*
X005830Y009139D02*
X006532Y009139D01*
X006482Y008980D02*
X005830Y008980D01*
X005830Y008822D02*
X006493Y008822D01*
X006491Y008827D02*
X006512Y008761D01*
X006544Y008699D01*
X006584Y008643D01*
X006633Y008594D01*
X006689Y008554D01*
X006751Y008522D01*
X006817Y008501D01*
X006885Y008490D01*
X007180Y008490D01*
X007180Y008930D01*
X006480Y008930D01*
X006480Y008895D01*
X006491Y008827D01*
X006570Y008663D02*
X005830Y008663D01*
X005830Y008505D02*
X006806Y008505D01*
X006722Y008346D02*
X005830Y008346D01*
X005830Y008188D02*
X006529Y008188D01*
X006463Y008029D02*
X005830Y008029D01*
X005830Y007871D02*
X006460Y007871D01*
X006512Y007712D02*
X005830Y007712D01*
X005830Y007554D02*
X006646Y007554D01*
X006576Y007237D02*
X005830Y007237D01*
X005830Y007395D02*
X008314Y007395D01*
X007180Y008505D02*
X007180Y008505D01*
X007180Y008663D02*
X007180Y008663D01*
X007180Y008822D02*
X007180Y008822D01*
X007180Y008980D02*
X007180Y008980D01*
X007180Y009139D02*
X007180Y009139D01*
X007180Y009297D02*
X007180Y009297D01*
X007775Y009614D02*
X009511Y009614D01*
X009511Y009773D02*
X007873Y009773D01*
X007900Y009931D02*
X009573Y009931D01*
X009681Y010090D02*
X007872Y010090D01*
X007773Y010248D02*
X009560Y010248D01*
X009580Y012309D02*
X008931Y012309D01*
X009089Y012467D02*
X009666Y012467D01*
X009554Y012626D02*
X009120Y012626D01*
X009120Y012784D02*
X009511Y012784D01*
X009516Y012943D02*
X009040Y012943D01*
X008881Y013101D02*
X009582Y013101D01*
X009560Y013260D02*
X007786Y013260D01*
X007496Y013101D02*
X008479Y013101D01*
X008320Y012943D02*
X007205Y012943D01*
X006914Y012784D02*
X008240Y012784D01*
X008240Y012626D02*
X006624Y012626D01*
X006648Y012309D02*
X006043Y012309D01*
X005534Y012943D02*
X005200Y012943D01*
X005239Y012784D02*
X004820Y012784D01*
X004712Y012309D02*
X005030Y012309D01*
X005030Y012150D02*
X004847Y012150D01*
X004900Y011992D02*
X005030Y011992D01*
X005030Y011833D02*
X004898Y011833D01*
X004832Y011675D02*
X005030Y011675D01*
X005030Y011516D02*
X004643Y011516D01*
X004610Y011358D02*
X005030Y011358D01*
X005030Y011199D02*
X004822Y011199D01*
X004892Y011041D02*
X005030Y011041D01*
X005030Y010882D02*
X004900Y010882D01*
X004852Y010724D02*
X005030Y010724D01*
X005030Y010565D02*
X004726Y010565D01*
X004773Y010248D02*
X005030Y010248D01*
X005030Y010090D02*
X004872Y010090D01*
X004900Y009931D02*
X005030Y009931D01*
X005030Y009773D02*
X004873Y009773D01*
X004775Y009614D02*
X005030Y009614D01*
X005030Y009456D02*
X001798Y009456D01*
X001849Y009614D02*
X002680Y009614D01*
X002522Y009773D02*
X001849Y009773D01*
X001787Y009931D02*
X002363Y009931D01*
X002205Y010090D02*
X001679Y010090D01*
X001800Y010248D02*
X002046Y010248D01*
X001888Y010407D02*
X001849Y010407D01*
X001673Y009297D02*
X003636Y009297D01*
X003745Y008505D02*
X002949Y008505D01*
X003407Y007712D02*
X001663Y007712D01*
X001667Y006920D02*
X001818Y006920D01*
X001795Y006761D02*
X002812Y006761D01*
X002924Y007554D02*
X003646Y007554D01*
X003839Y007395D02*
X005030Y007395D01*
X005030Y007237D02*
X004784Y007237D01*
X004877Y007078D02*
X005030Y007078D01*
X005030Y006920D02*
X004900Y006920D01*
X004868Y006761D02*
X005030Y006761D01*
X005030Y006603D02*
X004763Y006603D01*
X004609Y006338D02*
X004543Y006359D01*
X004475Y006370D01*
X004180Y006370D01*
X004180Y005930D01*
X004180Y005930D01*
X004880Y005930D01*
X004880Y005965D01*
X004869Y006033D01*
X004848Y006099D01*
X004816Y006161D01*
X004776Y006217D01*
X004727Y006266D01*
X004671Y006306D01*
X004609Y006338D01*
X004699Y006286D02*
X005030Y006286D01*
X005030Y006444D02*
X001849Y006444D01*
X001849Y006603D02*
X003597Y006603D01*
X003751Y006338D02*
X003689Y006306D01*
X003633Y006266D01*
X003584Y006217D01*
X003544Y006161D01*
X003512Y006099D01*
X003491Y006033D01*
X003480Y005965D01*
X003480Y005930D01*
X004180Y005930D01*
X004180Y005930D01*
X004180Y005490D01*
X004475Y005490D01*
X004543Y005501D01*
X004609Y005522D01*
X004671Y005554D01*
X004727Y005594D01*
X004776Y005643D01*
X004816Y005699D01*
X004848Y005761D01*
X004869Y005827D01*
X004880Y005895D01*
X004880Y005930D01*
X004180Y005930D01*
X004180Y005930D01*
X004180Y005930D01*
X004180Y006370D01*
X003885Y006370D01*
X003817Y006359D01*
X003751Y006338D01*
X003661Y006286D02*
X001789Y006286D01*
X001653Y006127D02*
X003527Y006127D01*
X003481Y005969D02*
X001773Y005969D01*
X001825Y005810D02*
X003496Y005810D01*
X003491Y005827D02*
X003512Y005761D01*
X003544Y005699D01*
X003584Y005643D01*
X003633Y005594D01*
X003689Y005554D01*
X003751Y005522D01*
X003817Y005501D01*
X003885Y005490D01*
X004180Y005490D01*
X004180Y005930D01*
X003480Y005930D01*
X003480Y005895D01*
X003491Y005827D01*
X003578Y005652D02*
X001821Y005652D01*
X001829Y005743D02*
X001349Y005743D01*
X001829Y005743D01*
X001761Y005493D02*
X003866Y005493D01*
X004180Y005493D02*
X004180Y005493D01*
X004180Y005652D02*
X004180Y005652D01*
X004180Y005810D02*
X004180Y005810D01*
X004180Y005969D02*
X004180Y005969D01*
X004180Y006127D02*
X004180Y006127D01*
X004180Y006286D02*
X004180Y006286D01*
X004494Y005493D02*
X005030Y005493D01*
X005030Y005335D02*
X001604Y005335D01*
X001349Y005335D02*
X001349Y005335D01*
X001349Y005493D02*
X001349Y005493D01*
X001349Y005652D02*
X001349Y005652D01*
X001349Y005743D02*
X001349Y005743D01*
X001095Y005335D02*
X000880Y005335D01*
X000880Y005493D02*
X000938Y005493D01*
X000880Y005176D02*
X005030Y005176D01*
X005030Y005018D02*
X000880Y005018D01*
X000880Y004859D02*
X005030Y004859D01*
X005030Y004701D02*
X000880Y004701D01*
X000880Y004542D02*
X005030Y004542D01*
X005030Y004384D02*
X000880Y004384D01*
X000880Y004225D02*
X005030Y004225D01*
X005030Y004067D02*
X000880Y004067D01*
X000880Y003908D02*
X005030Y003908D01*
X005030Y003750D02*
X000880Y003750D01*
X000880Y003591D02*
X005034Y003591D01*
X005107Y003433D02*
X000880Y003433D01*
X000880Y001372D02*
X010480Y001372D01*
X006597Y006603D02*
X005830Y006603D01*
X005830Y006761D02*
X006492Y006761D01*
X006460Y006920D02*
X005830Y006920D01*
X005830Y007078D02*
X006483Y007078D01*
X005030Y007554D02*
X004714Y007554D01*
X004848Y007712D02*
X005030Y007712D01*
X005030Y007871D02*
X004900Y007871D01*
X004897Y008029D02*
X005030Y008029D01*
X005030Y008188D02*
X004831Y008188D01*
X004638Y008346D02*
X005030Y008346D01*
X005030Y008505D02*
X004615Y008505D01*
X004824Y008663D02*
X005030Y008663D01*
X005030Y008822D02*
X004893Y008822D01*
X004900Y008980D02*
X005030Y008980D01*
X005030Y009139D02*
X004852Y009139D01*
X004724Y009297D02*
X005030Y009297D01*
X005030Y010407D02*
X003019Y010407D01*
X002861Y010565D02*
X003266Y010565D01*
X003071Y010724D02*
X002702Y010724D01*
X002580Y010882D02*
X002912Y010882D01*
X002754Y011041D02*
X002580Y011041D01*
X002580Y011199D02*
X002595Y011199D01*
X003330Y011675D02*
X003528Y011675D01*
X003462Y011833D02*
X003330Y011833D01*
X003330Y011992D02*
X003460Y011992D01*
X003513Y012150D02*
X003330Y012150D01*
X003410Y011516D02*
X003717Y011516D01*
X003750Y011358D02*
X003568Y011358D01*
X002580Y013735D02*
X000880Y013735D01*
X000880Y013577D02*
X002092Y013577D01*
X001852Y013418D02*
X000880Y013418D01*
X000880Y013260D02*
X001081Y013260D01*
X000921Y013101D02*
X000880Y013101D01*
X000880Y013894D02*
X003056Y013894D01*
X003531Y014052D02*
X000880Y014052D01*
X000880Y014211D02*
X004007Y014211D01*
X004194Y014528D02*
X000880Y014528D01*
X000880Y014686D02*
X004059Y014686D01*
X003999Y014845D02*
X000880Y014845D01*
X000880Y015003D02*
X003999Y015003D01*
X004054Y015162D02*
X000880Y015162D01*
X000880Y015320D02*
X004182Y015320D01*
X004816Y015320D02*
X004969Y015320D01*
X004866Y014528D02*
X004804Y014528D01*
X004482Y014369D02*
X000880Y014369D01*
X000880Y015479D02*
X007780Y015479D01*
X007780Y015637D02*
X000880Y015637D01*
X000880Y015796D02*
X007780Y015796D01*
X007780Y015954D02*
X000880Y015954D01*
X000880Y016113D02*
X007780Y016113D01*
X007780Y016271D02*
X000880Y016271D01*
X000880Y016430D02*
X004363Y016430D01*
X004223Y016588D02*
X000880Y016588D01*
X000880Y016747D02*
X004157Y016747D01*
X004155Y016905D02*
X000880Y016905D01*
X000880Y017064D02*
X004155Y017064D01*
X004155Y017222D02*
X000880Y017222D01*
X000880Y017381D02*
X004155Y017381D01*
X004155Y017539D02*
X000880Y017539D01*
X000880Y017698D02*
X004192Y017698D01*
X004289Y017856D02*
X000880Y017856D01*
X000880Y018015D02*
X004539Y018015D01*
X004821Y018015D02*
X006539Y018015D01*
X006289Y017856D02*
X006043Y017856D01*
X006148Y017698D02*
X006192Y017698D01*
X005708Y017698D02*
X005652Y017698D01*
X005652Y017856D02*
X005708Y017856D01*
X005708Y017539D02*
X005652Y017539D01*
X005652Y017381D02*
X005708Y017381D01*
X005708Y017222D02*
X005652Y017222D01*
X005652Y017064D02*
X005708Y017064D01*
X005708Y016905D02*
X005652Y016905D01*
X005652Y016747D02*
X005708Y016747D01*
X005708Y016588D02*
X005652Y016588D01*
X005652Y016430D02*
X005708Y016430D01*
X005953Y016430D02*
X006363Y016430D01*
X006223Y016588D02*
X006110Y016588D01*
X005407Y016430D02*
X004997Y016430D01*
X005137Y016588D02*
X005250Y016588D01*
X005212Y017698D02*
X005168Y017698D01*
X005071Y017856D02*
X005317Y017856D01*
X005001Y018657D02*
X005080Y018698D01*
X005152Y018750D01*
X005214Y018813D01*
X005267Y018884D01*
X005307Y018964D01*
X005334Y019048D01*
X005348Y019132D01*
X004448Y019132D01*
X004448Y018616D01*
X004829Y018616D01*
X004916Y018630D01*
X005001Y018657D01*
X004973Y018649D02*
X006333Y018649D01*
X006123Y018807D02*
X005209Y018807D01*
X005308Y018966D02*
X006033Y018966D01*
X005992Y019124D02*
X005346Y019124D01*
X005348Y019228D02*
X005334Y019312D01*
X005307Y019396D01*
X005267Y019476D01*
X005214Y019547D01*
X005152Y019610D01*
X005080Y019662D01*
X005001Y019703D01*
X004916Y019730D01*
X004829Y019744D01*
X004448Y019744D01*
X004448Y019228D01*
X004353Y019228D01*
X004353Y019744D01*
X003972Y019744D01*
X003885Y019730D01*
X003800Y019703D01*
X003721Y019662D01*
X003649Y019610D01*
X003587Y019547D01*
X003534Y019476D01*
X003494Y019396D01*
X003467Y019312D01*
X003453Y019228D01*
X004353Y019228D01*
X004353Y019132D01*
X004448Y019132D01*
X004448Y019228D01*
X005348Y019228D01*
X005339Y019283D02*
X005992Y019283D01*
X006052Y019441D02*
X005284Y019441D01*
X005162Y019600D02*
X006169Y019600D01*
X006445Y019758D02*
X000880Y019758D01*
X000880Y019600D02*
X003639Y019600D01*
X003517Y019441D02*
X000880Y019441D01*
X000880Y019283D02*
X003462Y019283D01*
X003453Y019132D02*
X003467Y019048D01*
X003494Y018964D01*
X003534Y018884D01*
X003587Y018813D01*
X003649Y018750D01*
X003721Y018698D01*
X003800Y018657D01*
X003885Y018630D01*
X003972Y018616D01*
X004353Y018616D01*
X004353Y019132D01*
X003453Y019132D01*
X003455Y019124D02*
X000880Y019124D01*
X000880Y018966D02*
X003493Y018966D01*
X003592Y018807D02*
X000880Y018807D01*
X000880Y018649D02*
X003828Y018649D01*
X004353Y018649D02*
X004448Y018649D01*
X004448Y018807D02*
X004353Y018807D01*
X004353Y018966D02*
X004448Y018966D01*
X004448Y019124D02*
X004353Y019124D01*
X004353Y019283D02*
X004448Y019283D01*
X004448Y019441D02*
X004353Y019441D01*
X004353Y019600D02*
X004448Y019600D01*
X005603Y015320D02*
X005757Y015320D01*
X006372Y014369D02*
X007780Y014369D01*
X007780Y014211D02*
X006353Y014211D01*
X006335Y014052D02*
X007568Y014052D01*
X007278Y013894D02*
X006317Y013894D01*
X006330Y013735D02*
X006987Y013735D01*
X006697Y013577D02*
X006320Y013577D01*
X006234Y013418D02*
X006406Y013418D01*
X006115Y013260D02*
X005961Y013260D01*
X005825Y013101D02*
X005580Y013101D01*
X007341Y014528D02*
X007780Y014528D01*
X007780Y014686D02*
X007361Y014686D01*
X007361Y014845D02*
X007780Y014845D01*
X007780Y015003D02*
X007361Y015003D01*
X007361Y015162D02*
X007780Y015162D01*
X007780Y015320D02*
X007354Y015320D01*
X006997Y016430D02*
X007780Y016430D01*
X007780Y016588D02*
X007137Y016588D01*
X007203Y016747D02*
X007780Y016747D01*
X008358Y017539D02*
X009380Y017539D01*
X009530Y017381D02*
X008530Y017381D01*
X008580Y017222D02*
X009530Y017222D01*
X009530Y017064D02*
X008580Y017064D01*
X008580Y016905D02*
X009530Y016905D01*
X009530Y016747D02*
X008580Y016747D01*
X008580Y016588D02*
X009530Y016588D01*
X009530Y016430D02*
X008580Y016430D01*
X008580Y016271D02*
X009530Y016271D01*
X009530Y016113D02*
X008580Y016113D01*
X008580Y015954D02*
X009530Y015954D01*
X009530Y015796D02*
X008580Y015796D01*
X008580Y015637D02*
X009530Y015637D01*
X009530Y015479D02*
X008580Y015479D01*
X008580Y015320D02*
X009530Y015320D01*
X009530Y015162D02*
X008580Y015162D01*
X008580Y015003D02*
X009530Y015003D01*
X009530Y014845D02*
X008580Y014845D01*
X008580Y014686D02*
X009530Y014686D01*
X009530Y014528D02*
X008580Y014528D01*
X008580Y014369D02*
X009530Y014369D01*
X009530Y014211D02*
X008580Y014211D01*
X008580Y014052D02*
X009530Y014052D01*
X009530Y013894D02*
X008586Y013894D01*
X008537Y013735D02*
X009530Y013735D01*
X009530Y013577D02*
X008372Y013577D01*
X008077Y013418D02*
X009530Y013418D01*
X010330Y013418D02*
X010480Y013418D01*
X010480Y013260D02*
X010314Y013260D01*
X010439Y013101D02*
X010480Y013101D01*
X010480Y013577D02*
X010330Y013577D01*
X010330Y013735D02*
X010480Y013735D01*
X010480Y013894D02*
X010330Y013894D01*
X010330Y014052D02*
X010480Y014052D01*
X010480Y014211D02*
X010330Y014211D01*
X010330Y014369D02*
X010480Y014369D01*
X010480Y014528D02*
X010330Y014528D01*
X010330Y014686D02*
X010480Y014686D01*
X010480Y014845D02*
X010330Y014845D01*
X010330Y015003D02*
X010480Y015003D01*
X010480Y015162D02*
X010330Y015162D01*
X010330Y015320D02*
X010480Y015320D01*
X010480Y015479D02*
X010330Y015479D01*
X010330Y015637D02*
X010480Y015637D01*
X010480Y015796D02*
X010330Y015796D01*
X010330Y015954D02*
X010480Y015954D01*
X010480Y016113D02*
X010330Y016113D01*
X010330Y016271D02*
X010480Y016271D01*
X010480Y016430D02*
X010330Y016430D01*
X010330Y016588D02*
X010480Y016588D01*
X010480Y016747D02*
X010330Y016747D01*
X010330Y016905D02*
X010480Y016905D01*
X010480Y017064D02*
X010330Y017064D01*
X010330Y017222D02*
X010480Y017222D01*
X010480Y017381D02*
X010330Y017381D01*
X010330Y017539D02*
X010480Y017539D01*
X010480Y017698D02*
X010304Y017698D01*
X010195Y017856D02*
X010480Y017856D01*
X010480Y018015D02*
X010036Y018015D01*
X009878Y018173D02*
X010480Y018173D01*
X010480Y018332D02*
X009719Y018332D01*
X009561Y018490D02*
X010480Y018490D01*
X010480Y018649D02*
X009402Y018649D01*
X009244Y018807D02*
X010480Y018807D01*
X010480Y018966D02*
X009085Y018966D01*
X008927Y019124D02*
X010480Y019124D01*
X010480Y019283D02*
X008768Y019283D01*
X008554Y019441D02*
X010480Y019441D01*
X010480Y019600D02*
X007750Y019600D01*
X007474Y019758D02*
X010480Y019758D01*
X010480Y019917D02*
X000880Y019917D01*
X000880Y018490D02*
X008429Y018490D01*
X008271Y018649D02*
X007586Y018649D01*
X007071Y017856D02*
X009063Y017856D01*
X008905Y018015D02*
X006821Y018015D01*
X007168Y017698D02*
X009222Y017698D01*
X008746Y018173D02*
X000880Y018173D01*
X000880Y018332D02*
X008588Y018332D01*
X008680Y013101D02*
X008680Y013101D01*
X008680Y012943D02*
X008680Y012943D01*
X008680Y012784D02*
X008680Y012784D01*
X008680Y012626D02*
X008680Y012626D01*
X008680Y012467D02*
X008680Y012467D01*
X008680Y012309D02*
X008680Y012309D01*
X005030Y006127D02*
X004833Y006127D01*
X004879Y005969D02*
X005030Y005969D01*
X005030Y005810D02*
X004864Y005810D01*
X004782Y005652D02*
X005030Y005652D01*
X004800Y002927D02*
X004683Y002810D01*
X004683Y002050D01*
X004800Y001933D01*
X005560Y001933D01*
X005677Y002050D01*
X005677Y002810D01*
X005560Y002927D01*
X004800Y002927D01*
X004683Y002799D02*
X004643Y002799D01*
X004645Y002796D02*
X004621Y002837D01*
X004587Y002871D01*
X004546Y002895D01*
X004501Y002907D01*
X004198Y002907D01*
X004198Y002448D01*
X004162Y002448D01*
X004162Y002412D01*
X003703Y002412D01*
X003703Y002109D01*
X003715Y002064D01*
X003739Y002023D01*
X003773Y001989D01*
X003814Y001965D01*
X003859Y001953D01*
X004162Y001953D01*
X004162Y002412D01*
X004198Y002412D01*
X004198Y002448D01*
X004657Y002448D01*
X004657Y002751D01*
X004645Y002796D01*
X004657Y002640D02*
X004683Y002640D01*
X004683Y002482D02*
X004657Y002482D01*
X004657Y002412D02*
X004198Y002412D01*
X004198Y001953D01*
X004501Y001953D01*
X004546Y001965D01*
X004587Y001989D01*
X004621Y002023D01*
X004645Y002064D01*
X004657Y002109D01*
X004657Y002412D01*
X004657Y002323D02*
X004683Y002323D01*
X004683Y002165D02*
X004657Y002165D01*
X004604Y002006D02*
X004727Y002006D01*
X004198Y002006D02*
X004162Y002006D01*
X004162Y002165D02*
X004198Y002165D01*
X004198Y002323D02*
X004162Y002323D01*
X004162Y002448D02*
X003703Y002448D01*
X003703Y002751D01*
X003715Y002796D01*
X003739Y002837D01*
X003773Y002871D01*
X003814Y002895D01*
X003859Y002907D01*
X004162Y002907D01*
X004162Y002448D01*
X004162Y002482D02*
X004198Y002482D01*
X004198Y002640D02*
X004162Y002640D01*
X004162Y002799D02*
X004198Y002799D01*
X003717Y002799D02*
X003677Y002799D01*
X003677Y002640D02*
X003703Y002640D01*
X003703Y002482D02*
X003677Y002482D01*
X003677Y002323D02*
X003703Y002323D01*
X003703Y002165D02*
X003677Y002165D01*
X003633Y002006D02*
X003756Y002006D01*
X005633Y002006D02*
X005727Y002006D01*
X005683Y002165D02*
X005677Y002165D01*
X005677Y002323D02*
X005683Y002323D01*
X005677Y002482D02*
X005683Y002482D01*
X005677Y002640D02*
X005683Y002640D01*
X005677Y002799D02*
X005683Y002799D01*
X002575Y007554D02*
X002518Y007554D01*
X002280Y008505D02*
X001668Y008505D01*
X001778Y013101D02*
X001780Y013101D01*
X001780Y013260D02*
X001618Y013260D01*
D20*
X001305Y019555D03*
X010055Y019555D03*
X010055Y001680D03*
X001305Y001680D03*
D21*
X002737Y007180D02*
X004180Y006930D01*
X004180Y009930D02*
X002930Y009930D01*
X002180Y010680D01*
X002180Y013180D01*
X005180Y014180D01*
X005930Y013680D02*
X002930Y012430D01*
X002930Y011430D01*
X003430Y010930D01*
X004180Y010930D01*
X005430Y012430D02*
X005430Y003680D01*
X006180Y003430D01*
X006180Y002430D01*
X005430Y012430D02*
X008180Y013930D01*
X008180Y017180D01*
X006680Y017180D01*
X006960Y019180D02*
X008430Y019055D01*
X009930Y017555D01*
X009930Y013410D01*
D22*
X004180Y008930D02*
X002562Y008930D01*
X001349Y008893D01*
X001349Y008105D02*
X002774Y008180D01*
X004180Y007930D01*
X002737Y007180D02*
X001349Y007318D01*
D23*
X005180Y014180D02*
X005286Y014930D01*
X006074Y014930D02*
X005930Y013680D01*
X009930Y013410D02*
X010011Y012830D01*
M02*
