G75*
%MOIN*%
%OFA0B0*%
%FSLAX24Y24*%
%IPPOS*%
%LPD*%
%ADD10C,0.0000*%
%ADD11C,0.0060*%
%ADD12C,0.0040*%
%ADD13C,0.0050*%
%ADD14C,0.0100*%
%ADD15C,0.0030*%
%ADD16R,0.0240X0.0340*%
D10*
X000680Y001055D02*
X000680Y020180D01*
X010680Y020180D01*
X010680Y001055D01*
X000680Y001055D01*
D11*
X004530Y005430D02*
X005280Y005430D01*
X005282Y005469D01*
X005288Y005508D01*
X005297Y005546D01*
X005310Y005583D01*
X005327Y005619D01*
X005347Y005652D01*
X005371Y005684D01*
X005397Y005713D01*
X005426Y005739D01*
X005458Y005763D01*
X005491Y005783D01*
X005527Y005800D01*
X005564Y005813D01*
X005602Y005822D01*
X005641Y005828D01*
X005680Y005830D01*
X005719Y005828D01*
X005758Y005822D01*
X005796Y005813D01*
X005833Y005800D01*
X005869Y005783D01*
X005902Y005763D01*
X005934Y005739D01*
X005963Y005713D01*
X005989Y005684D01*
X006013Y005652D01*
X006033Y005619D01*
X006050Y005583D01*
X006063Y005546D01*
X006072Y005508D01*
X006078Y005469D01*
X006080Y005430D01*
X006830Y005430D01*
X006830Y012430D01*
X004530Y012430D01*
X004530Y005430D01*
X008080Y008580D02*
X008080Y008830D01*
X008130Y008880D01*
X008130Y011480D01*
X008080Y011530D01*
X008080Y011780D01*
X008082Y011797D01*
X008086Y011814D01*
X008093Y011830D01*
X008103Y011844D01*
X008116Y011857D01*
X008130Y011867D01*
X008146Y011874D01*
X008163Y011878D01*
X008180Y011880D01*
X009180Y011880D01*
X009197Y011878D01*
X009214Y011874D01*
X009230Y011867D01*
X009244Y011857D01*
X009257Y011844D01*
X009267Y011830D01*
X009274Y011814D01*
X009278Y011797D01*
X009280Y011780D01*
X009280Y011530D01*
X009230Y011480D01*
X009230Y008880D01*
X009280Y008830D01*
X009280Y008580D01*
X009278Y008563D01*
X009274Y008546D01*
X009267Y008530D01*
X009257Y008516D01*
X009244Y008503D01*
X009230Y008493D01*
X009214Y008486D01*
X009197Y008482D01*
X009180Y008480D01*
X008180Y008480D01*
X008163Y008482D01*
X008146Y008486D01*
X008130Y008493D01*
X008116Y008503D01*
X008103Y008516D01*
X008093Y008530D01*
X008086Y008546D01*
X008082Y008563D01*
X008080Y008580D01*
D12*
X006212Y006410D02*
X006212Y006110D01*
X006152Y006050D01*
X006032Y006050D01*
X005972Y006110D01*
X005972Y006410D01*
X005844Y006350D02*
X005784Y006410D01*
X005664Y006410D01*
X005604Y006350D01*
X005476Y006350D02*
X005416Y006410D01*
X005296Y006410D01*
X005236Y006350D01*
X005236Y006290D01*
X005476Y006050D01*
X005236Y006050D01*
X005604Y006110D02*
X005604Y006170D01*
X005664Y006230D01*
X005784Y006230D01*
X005844Y006290D01*
X005844Y006350D01*
X005724Y006470D02*
X005724Y005990D01*
X005664Y006050D02*
X005604Y006110D01*
X005664Y006050D02*
X005784Y006050D01*
X005844Y006110D01*
X005875Y017969D02*
X006081Y017969D01*
X005978Y017969D02*
X005978Y018279D01*
X006081Y018176D01*
X006197Y018279D02*
X006300Y018279D01*
X006249Y018279D02*
X006249Y018021D01*
X006300Y017969D01*
X006352Y017969D01*
X006404Y018021D01*
D13*
X007649Y015324D02*
X007649Y014536D01*
X007455Y011695D02*
X007455Y011395D01*
X007455Y011545D02*
X007905Y011545D01*
X007755Y011395D01*
X007680Y011234D02*
X007605Y011159D01*
X007605Y010934D01*
X007605Y011084D02*
X007455Y011234D01*
X007455Y010934D02*
X007905Y010934D01*
X007905Y011159D01*
X007830Y011234D01*
X007680Y011234D01*
D14*
X007649Y014339D02*
X003711Y014339D01*
X003711Y015560D01*
X007649Y015560D01*
X007649Y014339D01*
X007649Y015560D02*
X007649Y018237D01*
X006782Y018237D01*
X006782Y017843D01*
X004578Y017843D01*
X004578Y018237D01*
X003711Y018237D01*
X003711Y015560D01*
D15*
X004301Y015695D02*
X004301Y015880D01*
X004363Y015942D01*
X004425Y015942D01*
X004486Y015880D01*
X004486Y015695D01*
X004301Y015695D02*
X004672Y015695D01*
X004672Y015880D01*
X004610Y015942D01*
X004548Y015942D01*
X004486Y015880D01*
X004672Y016063D02*
X004672Y016125D01*
X004301Y016125D01*
X004301Y016063D02*
X004301Y016187D01*
X004363Y016309D02*
X004425Y016371D01*
X004425Y016556D01*
X004486Y016556D02*
X004548Y016494D01*
X004548Y016371D01*
X004486Y016556D02*
X004301Y016556D01*
X004301Y016371D01*
X004363Y016309D01*
X004363Y016677D02*
X004301Y016739D01*
X004301Y016924D01*
X004301Y017045D02*
X004672Y017045D01*
X004548Y016924D02*
X004548Y016739D01*
X004486Y016677D01*
X004363Y016677D01*
X004425Y017045D02*
X004548Y017231D01*
X004425Y017045D02*
X004301Y017231D01*
X005097Y016679D02*
X005097Y016493D01*
X005158Y016432D01*
X005282Y016432D01*
X005343Y016493D01*
X005343Y016679D01*
X005467Y016679D02*
X005097Y016679D01*
X005220Y016310D02*
X005220Y016063D01*
X005158Y016063D02*
X005282Y016063D01*
X005343Y016125D01*
X005343Y016248D01*
X005282Y016310D01*
X005220Y016310D01*
X005097Y016248D02*
X005097Y016125D01*
X005158Y016063D01*
X005097Y015942D02*
X005220Y015818D01*
X005220Y015880D02*
X005220Y015695D01*
X005097Y015695D02*
X005467Y015695D01*
X005467Y015880D01*
X005405Y015942D01*
X005282Y015942D01*
X005220Y015880D01*
X005945Y015942D02*
X006315Y015942D01*
X006315Y016063D02*
X005945Y016063D01*
X005945Y015942D02*
X006068Y015818D01*
X005945Y015695D01*
X006315Y015695D01*
X006130Y016063D02*
X006192Y016125D01*
X006192Y016248D01*
X006130Y016310D01*
X005945Y016310D01*
X005945Y016432D02*
X005945Y016555D01*
X005945Y016493D02*
X006192Y016493D01*
X006192Y016432D01*
X006315Y016493D02*
X006377Y016493D01*
X006254Y016739D02*
X006007Y016739D01*
X005945Y016801D01*
X006007Y016923D02*
X005945Y016984D01*
X005945Y017108D01*
X006068Y017170D02*
X006068Y016923D01*
X006007Y016923D02*
X006130Y016923D01*
X006192Y016984D01*
X006192Y017108D01*
X006130Y017170D01*
X006068Y017170D01*
X006192Y016801D02*
X006192Y016677D01*
X006695Y016677D02*
X006695Y016801D01*
X006695Y016739D02*
X007065Y016739D01*
X007065Y016677D01*
X007065Y016493D02*
X006695Y016493D01*
X006695Y016432D02*
X006695Y016555D01*
X006757Y016923D02*
X006695Y016984D01*
X006695Y017108D01*
X006757Y017170D01*
X006880Y017170D01*
X006942Y017108D01*
X006942Y016984D01*
X006880Y016923D01*
X006757Y016923D01*
X006757Y017291D02*
X006695Y017353D01*
X006757Y017414D01*
X006695Y017476D01*
X006757Y017538D01*
X006942Y017538D01*
X006942Y017291D02*
X006757Y017291D01*
X007065Y016493D02*
X007065Y016432D01*
X006942Y016248D02*
X006880Y016310D01*
X006818Y016310D01*
X006818Y016063D01*
X006757Y016063D02*
X006880Y016063D01*
X006942Y016125D01*
X006942Y016248D01*
X007004Y015942D02*
X007065Y015942D01*
X007004Y015942D02*
X006880Y015818D01*
X006695Y015818D01*
X006880Y015818D02*
X007004Y015695D01*
X007065Y015695D01*
X006757Y016063D02*
X006695Y016125D01*
X006695Y016248D01*
D16*
X008680Y012050D03*
X008680Y008310D03*
M02*
