%
M48
M72
T01C0.0210
T02C0.0315
T03C0.0320
T04C0.0394
T05C0.0433
T06C0.0440
T07C0.0512
%
T01
X1305Y1680
X10055Y1680
X10055Y19555
X1305Y19555
T02
X4499Y14930
X5286Y14930
X6074Y14930
X6861Y14930
X10011Y12830
X10011Y12042
X10011Y11255
X10011Y10467
X10011Y9680
X10011Y8893
X10011Y8105
X10011Y7318
X10011Y6530
X10011Y5743
X1349Y5743
X1349Y6530
X1349Y7318
X1349Y8105
X1349Y8893
X1349Y9680
X1349Y10467
X1349Y11255
X1349Y12042
X1349Y12830
T03
X4180Y11930
X4180Y10930
X4180Y9930
X4180Y8930
X4180Y7930
X4180Y6930
X4180Y5930
X7180Y5930
X7180Y6930
X7180Y7930
X7180Y8930
X7180Y9930
X7180Y10930
X7180Y11930
X8680Y12680
X8680Y7680
T04
X3180Y2430
X4180Y2430
X5180Y2430
X6180Y2430
T05
X4680Y17180
X5680Y17180
X6680Y17180
T06
X8680Y4430
X8680Y2430
T07
X4400Y19180
X6960Y19180
M30
