G75*
%MOIN*%
%OFA0B0*%
%FSLAX24Y24*%
%IPPOS*%
%LPD*%
%AMOC8*
5,1,8,0,0,1.08239X$1,22.5*
%
%ADD10C,0.0000*%
%ADD11R,0.0594X0.0594*%
%ADD12C,0.0515*%
%ADD13C,0.0520*%
%ADD14C,0.0650*%
%ADD15OC8,0.1240*%
%ADD16R,0.0515X0.0515*%
%ADD17C,0.0768*%
%ADD18OC8,0.0520*%
%ADD19C,0.0160*%
%ADD20C,0.0400*%
%ADD21C,0.0300*%
D10*
X000680Y000680D02*
X000680Y020180D01*
X010680Y020180D01*
X010680Y000680D01*
X000680Y000680D01*
D11*
X003180Y001930D03*
X004180Y001930D03*
X005180Y001930D03*
X006180Y001930D03*
D12*
X010011Y005493D03*
X010011Y006280D03*
X010011Y007068D03*
X010011Y007855D03*
X010011Y008643D03*
X010011Y009430D03*
X010011Y010217D03*
X010011Y011005D03*
X010011Y011792D03*
X010011Y012580D03*
X003324Y014930D03*
X002536Y014930D03*
X001749Y014930D03*
X001349Y012580D03*
X001349Y011792D03*
X001349Y011005D03*
X001349Y010217D03*
X001349Y009430D03*
X001349Y008643D03*
X001349Y007855D03*
X001349Y007068D03*
X001349Y006280D03*
X001349Y005493D03*
D13*
X003920Y005680D02*
X004440Y005680D01*
X004440Y006680D02*
X003920Y006680D01*
X003920Y007680D02*
X004440Y007680D01*
X004440Y008680D02*
X003920Y008680D01*
X003920Y009680D02*
X004440Y009680D01*
X006920Y009680D02*
X007440Y009680D01*
X007440Y008680D02*
X006920Y008680D01*
X006920Y007680D02*
X007440Y007680D01*
X007440Y006680D02*
X006920Y006680D01*
X006920Y005680D02*
X007440Y005680D01*
X007440Y004680D02*
X006920Y004680D01*
X006920Y003680D02*
X007440Y003680D01*
X004440Y003680D02*
X003920Y003680D01*
X003920Y004680D02*
X004440Y004680D01*
D14*
X004680Y016855D02*
X004680Y017505D01*
X005680Y017505D02*
X005680Y016855D01*
X006680Y016855D02*
X006680Y017505D01*
D15*
X009180Y004180D03*
X009180Y002180D03*
D16*
X004111Y014930D03*
D17*
X004017Y019180D02*
X004784Y019180D01*
X006576Y019180D02*
X007343Y019180D01*
D18*
X008680Y010430D03*
X008680Y005430D03*
D19*
X008839Y004970D02*
X008489Y004970D01*
X008220Y005239D01*
X008220Y005621D01*
X008489Y005890D01*
X008871Y005890D01*
X009140Y005621D01*
X009140Y005239D01*
X008881Y004980D01*
X009150Y004980D01*
X009150Y004210D01*
X009210Y004210D01*
X009980Y004210D01*
X009980Y004511D01*
X009511Y004980D01*
X009210Y004980D01*
X009210Y004210D01*
X009210Y004150D01*
X009980Y004150D01*
X009980Y003849D01*
X009511Y003380D01*
X009210Y003380D01*
X009210Y004150D01*
X009150Y004150D01*
X009150Y003380D01*
X008849Y003380D01*
X008380Y003849D01*
X008380Y004150D01*
X009150Y004150D01*
X009150Y004210D01*
X008380Y004210D01*
X008380Y004511D01*
X008839Y004970D01*
X008828Y004960D02*
X007811Y004960D01*
X007830Y004941D02*
X007701Y005070D01*
X007531Y005140D01*
X006828Y005140D01*
X006659Y005070D01*
X006530Y004941D01*
X006460Y004771D01*
X006460Y004588D01*
X006530Y004419D01*
X006659Y004290D01*
X006828Y004220D01*
X007531Y004220D01*
X007701Y004290D01*
X007830Y004419D01*
X007900Y004588D01*
X007900Y004771D01*
X007830Y004941D01*
X007888Y004801D02*
X008670Y004801D01*
X008511Y004643D02*
X007900Y004643D01*
X007857Y004484D02*
X008380Y004484D01*
X008380Y004326D02*
X007736Y004326D01*
X007701Y004070D02*
X007531Y004140D01*
X006828Y004140D01*
X006659Y004070D01*
X006530Y003941D01*
X006460Y003771D01*
X006460Y003588D01*
X006530Y003419D01*
X006659Y003290D01*
X006828Y003220D01*
X007531Y003220D01*
X007701Y003290D01*
X007830Y003419D01*
X007900Y003588D01*
X007900Y003771D01*
X007830Y003941D01*
X007701Y004070D01*
X007762Y004009D02*
X008380Y004009D01*
X008380Y003850D02*
X007867Y003850D01*
X007900Y003692D02*
X008537Y003692D01*
X008696Y003533D02*
X007877Y003533D01*
X007785Y003375D02*
X010480Y003375D01*
X010480Y003533D02*
X009664Y003533D01*
X009823Y003692D02*
X010480Y003692D01*
X010480Y003850D02*
X009980Y003850D01*
X009980Y004009D02*
X010480Y004009D01*
X010480Y004167D02*
X009210Y004167D01*
X009150Y004167D02*
X006080Y004167D01*
X006080Y004009D02*
X006598Y004009D01*
X006493Y003850D02*
X006080Y003850D01*
X006080Y003692D02*
X006460Y003692D01*
X006483Y003533D02*
X006080Y003533D01*
X006080Y003375D02*
X006575Y003375D01*
X006368Y003058D02*
X010480Y003058D01*
X010480Y003216D02*
X006210Y003216D01*
X006080Y003346D02*
X006080Y015264D01*
X007019Y016203D01*
X007080Y016350D01*
X007080Y016513D01*
X007125Y016558D01*
X007205Y016751D01*
X007205Y017609D01*
X007125Y017802D01*
X006977Y017950D01*
X006784Y018030D01*
X006576Y018030D01*
X006383Y017950D01*
X006235Y017802D01*
X006167Y017639D01*
X006167Y017640D02*
X006168Y017640D01*
X006167Y017639D02*
X006148Y017699D01*
X006112Y017769D01*
X006065Y017834D01*
X006009Y017890D01*
X005945Y017937D01*
X005874Y017973D01*
X005798Y017997D01*
X005720Y018010D01*
X005708Y018010D01*
X005708Y017208D01*
X005652Y017208D01*
X005652Y018010D01*
X005640Y018010D01*
X005562Y017997D01*
X005486Y017973D01*
X005415Y017937D01*
X005351Y017890D01*
X005295Y017834D01*
X005248Y017769D01*
X005212Y017699D01*
X005193Y017639D01*
X005192Y017640D02*
X005193Y017640D01*
X005193Y017639D02*
X005125Y017802D01*
X004977Y017950D01*
X004784Y018030D01*
X004576Y018030D01*
X004383Y017950D01*
X004235Y017802D01*
X004155Y017609D01*
X004155Y016751D01*
X004235Y016558D01*
X004383Y016410D01*
X004576Y016330D01*
X004784Y016330D01*
X004977Y016410D01*
X005125Y016558D01*
X005193Y016721D01*
X005212Y016661D01*
X005248Y016591D01*
X005295Y016526D01*
X005351Y016470D01*
X005415Y016423D01*
X005486Y016387D01*
X005562Y016363D01*
X005640Y016350D01*
X005652Y016350D01*
X005652Y017152D01*
X005708Y017152D01*
X005708Y016350D01*
X005720Y016350D01*
X005798Y016363D01*
X005874Y016387D01*
X005945Y016423D01*
X006009Y016470D01*
X006065Y016526D01*
X006112Y016591D01*
X006148Y016661D01*
X006167Y016721D01*
X006235Y016558D01*
X006239Y016554D01*
X005453Y015769D01*
X005341Y015657D01*
X005280Y015510D01*
X005280Y003100D01*
X005341Y002953D01*
X005780Y002514D01*
X005780Y002407D01*
X005683Y002310D01*
X005683Y001550D01*
X005800Y001433D01*
X006560Y001433D01*
X006677Y001550D01*
X006677Y002310D01*
X006580Y002407D01*
X006580Y002760D01*
X006519Y002907D01*
X006080Y003346D01*
X005712Y002582D02*
X000880Y002582D01*
X000880Y002424D02*
X002797Y002424D01*
X002800Y002427D02*
X002683Y002310D01*
X002683Y001550D01*
X002800Y001433D01*
X003560Y001433D01*
X003677Y001550D01*
X003677Y002310D01*
X003560Y002427D01*
X002800Y002427D01*
X002683Y002265D02*
X000880Y002265D01*
X000880Y002107D02*
X002683Y002107D01*
X002683Y001948D02*
X000880Y001948D01*
X000880Y001790D02*
X002683Y001790D01*
X002683Y001631D02*
X000880Y001631D01*
X000880Y001473D02*
X002761Y001473D01*
X003599Y001473D02*
X003801Y001473D01*
X003814Y001465D02*
X003773Y001489D01*
X003739Y001523D01*
X003715Y001564D01*
X003703Y001609D01*
X003703Y001912D01*
X004162Y001912D01*
X004162Y001948D01*
X003677Y001948D01*
X003703Y001948D02*
X004162Y001948D01*
X004162Y002407D01*
X003859Y002407D01*
X003814Y002395D01*
X003773Y002371D01*
X003739Y002337D01*
X003715Y002296D01*
X003703Y002251D01*
X003703Y001948D01*
X003703Y001790D02*
X003677Y001790D01*
X003677Y001631D02*
X003703Y001631D01*
X003814Y001465D02*
X003859Y001453D01*
X004162Y001453D01*
X004162Y001912D01*
X004198Y001912D01*
X004198Y001948D01*
X004683Y001948D01*
X004657Y001948D02*
X004657Y002251D01*
X004645Y002296D01*
X004621Y002337D01*
X004587Y002371D01*
X004546Y002395D01*
X004501Y002407D01*
X004198Y002407D01*
X004198Y001948D01*
X004162Y001948D01*
X004198Y001948D02*
X004657Y001948D01*
X004657Y001912D02*
X004198Y001912D01*
X004198Y001453D01*
X004501Y001453D01*
X004546Y001465D01*
X004587Y001489D01*
X004621Y001523D01*
X004645Y001564D01*
X004657Y001609D01*
X004657Y001912D01*
X004657Y001790D02*
X004683Y001790D01*
X004683Y001631D02*
X004657Y001631D01*
X004683Y001550D02*
X004800Y001433D01*
X005560Y001433D01*
X005677Y001550D01*
X005677Y002310D01*
X005560Y002427D01*
X004800Y002427D01*
X004683Y002310D01*
X004683Y001550D01*
X004761Y001473D02*
X004559Y001473D01*
X004657Y002107D02*
X004683Y002107D01*
X004683Y002265D02*
X004653Y002265D01*
X004797Y002424D02*
X003563Y002424D01*
X003677Y002265D02*
X003707Y002265D01*
X003703Y002107D02*
X003677Y002107D01*
X004162Y002107D02*
X004198Y002107D01*
X004198Y002265D02*
X004162Y002265D01*
X004162Y001790D02*
X004198Y001790D01*
X004198Y001631D02*
X004162Y001631D01*
X004162Y001473D02*
X004198Y001473D01*
X004180Y003240D02*
X004475Y003240D01*
X004543Y003251D01*
X004609Y003272D01*
X004671Y003304D01*
X004727Y003344D01*
X004776Y003393D01*
X004816Y003449D01*
X004848Y003511D01*
X004869Y003577D01*
X004880Y003645D01*
X004880Y003680D01*
X004880Y003715D01*
X004869Y003783D01*
X004848Y003849D01*
X004816Y003911D01*
X004776Y003967D01*
X004727Y004016D01*
X004671Y004056D01*
X004609Y004088D01*
X004543Y004109D01*
X004475Y004120D01*
X004180Y004120D01*
X004180Y003680D01*
X004180Y003680D01*
X004880Y003680D01*
X004180Y003680D01*
X004180Y003680D01*
X004180Y003240D01*
X004180Y003680D01*
X004180Y003680D01*
X004180Y003680D01*
X003480Y003680D01*
X003480Y003715D01*
X003491Y003783D01*
X003512Y003849D01*
X003544Y003911D01*
X003584Y003967D01*
X003633Y004016D01*
X003689Y004056D01*
X003751Y004088D01*
X003817Y004109D01*
X003885Y004120D01*
X004180Y004120D01*
X004180Y003680D01*
X003480Y003680D01*
X003480Y003645D01*
X003491Y003577D01*
X003512Y003511D01*
X003544Y003449D01*
X003584Y003393D01*
X003633Y003344D01*
X003689Y003304D01*
X003751Y003272D01*
X003817Y003251D01*
X003885Y003240D01*
X004180Y003240D01*
X004180Y003375D02*
X004180Y003375D01*
X004180Y003533D02*
X004180Y003533D01*
X004180Y003692D02*
X004180Y003692D01*
X004180Y003850D02*
X004180Y003850D01*
X004180Y004009D02*
X004180Y004009D01*
X004531Y004220D02*
X003828Y004220D01*
X003684Y004280D01*
X003658Y004280D01*
X003511Y004341D01*
X003398Y004453D01*
X003348Y004574D01*
X001785Y006137D01*
X001737Y006021D01*
X001608Y005893D01*
X001564Y005874D01*
X001579Y005867D01*
X001634Y005827D01*
X001683Y005778D01*
X001723Y005722D01*
X001755Y005661D01*
X001776Y005595D01*
X001787Y005527D01*
X001787Y005493D01*
X001349Y005493D01*
X000912Y005493D01*
X000912Y005459D01*
X000923Y005391D01*
X000944Y005325D01*
X000975Y005264D01*
X001016Y005208D01*
X001064Y005159D01*
X001120Y005119D01*
X001181Y005088D01*
X001247Y005066D01*
X001315Y005056D01*
X001349Y005056D01*
X001349Y005493D01*
X001349Y005493D01*
X000912Y005493D01*
X000912Y005527D01*
X000923Y005595D01*
X000944Y005661D01*
X000975Y005722D01*
X001016Y005778D01*
X001064Y005827D01*
X001120Y005867D01*
X001134Y005874D01*
X001090Y005893D01*
X000961Y006021D01*
X000892Y006189D01*
X000892Y006371D01*
X000961Y006540D01*
X001090Y006668D01*
X001104Y006674D01*
X001090Y006680D01*
X000961Y006809D01*
X000892Y006977D01*
X000892Y007159D01*
X000961Y007327D01*
X001090Y007456D01*
X001104Y007461D01*
X001090Y007467D01*
X000961Y007596D01*
X000892Y007764D01*
X000892Y007946D01*
X000961Y008114D01*
X001090Y008243D01*
X001104Y008249D01*
X001090Y008255D01*
X000961Y008383D01*
X000892Y008552D01*
X000892Y008734D01*
X000961Y008902D01*
X001090Y009030D01*
X001104Y009036D01*
X001090Y009042D01*
X000961Y009171D01*
X000892Y009339D01*
X000892Y009521D01*
X000961Y009689D01*
X001090Y009818D01*
X001104Y009824D01*
X001090Y009830D01*
X000961Y009958D01*
X000892Y010126D01*
X000892Y010308D01*
X000961Y010477D01*
X001090Y010605D01*
X001104Y010611D01*
X001090Y010617D01*
X000961Y010746D01*
X000892Y010914D01*
X000892Y011096D01*
X000961Y011264D01*
X001090Y011393D01*
X001104Y011399D01*
X001090Y011404D01*
X000961Y011533D01*
X000892Y011701D01*
X000892Y011883D01*
X000961Y012051D01*
X001090Y012180D01*
X001104Y012186D01*
X001090Y012192D01*
X000961Y012320D01*
X000892Y012489D01*
X000892Y012671D01*
X000961Y012839D01*
X001090Y012967D01*
X001258Y013037D01*
X001440Y013037D01*
X001608Y012967D01*
X001737Y012839D01*
X001807Y012671D01*
X001807Y012489D01*
X001737Y012320D01*
X001608Y012192D01*
X001594Y012186D01*
X001608Y012180D01*
X001737Y012051D01*
X001807Y011883D01*
X001807Y011701D01*
X001737Y011533D01*
X001608Y011404D01*
X001594Y011399D01*
X001608Y011393D01*
X001737Y011264D01*
X001807Y011096D01*
X001807Y010914D01*
X001737Y010746D01*
X001608Y010617D01*
X001594Y010611D01*
X001608Y010605D01*
X001737Y010477D01*
X001807Y010308D01*
X001807Y010126D01*
X001737Y009958D01*
X001608Y009830D01*
X001594Y009824D01*
X001608Y009818D01*
X001737Y009689D01*
X001807Y009521D01*
X001807Y009339D01*
X001737Y009171D01*
X001608Y009042D01*
X001594Y009036D01*
X001608Y009030D01*
X001737Y008902D01*
X001807Y008734D01*
X001807Y008680D01*
X001886Y008601D01*
X001886Y008653D01*
X001889Y008661D01*
X002125Y014659D01*
X002008Y014542D01*
X001840Y014473D01*
X001658Y014473D01*
X001490Y014542D01*
X001361Y014671D01*
X001291Y014839D01*
X001291Y015021D01*
X001361Y015189D01*
X001490Y015318D01*
X001658Y015387D01*
X001840Y015387D01*
X002008Y015318D01*
X002137Y015189D01*
X002143Y015175D01*
X002148Y015189D01*
X002277Y015318D01*
X002445Y015387D01*
X002627Y015387D01*
X002795Y015318D01*
X002924Y015189D01*
X002930Y015175D01*
X002936Y015189D01*
X003065Y015318D01*
X003233Y015387D01*
X003415Y015387D01*
X003583Y015318D01*
X003654Y015247D01*
X003654Y015270D01*
X003771Y015387D01*
X004451Y015387D01*
X004569Y015270D01*
X004569Y014590D01*
X004451Y014473D01*
X003771Y014473D01*
X003724Y014520D01*
X003724Y010097D01*
X003828Y010140D01*
X004531Y010140D01*
X004701Y010070D01*
X004830Y009941D01*
X004900Y009771D01*
X004900Y009588D01*
X004830Y009419D01*
X004701Y009290D01*
X004531Y009220D01*
X003828Y009220D01*
X003724Y009263D01*
X003724Y009097D01*
X003828Y009140D01*
X004531Y009140D01*
X004701Y009070D01*
X004830Y008941D01*
X004900Y008771D01*
X004900Y008588D01*
X004830Y008419D01*
X004701Y008290D01*
X004531Y008220D01*
X003828Y008220D01*
X003684Y008280D01*
X003350Y008280D01*
X003203Y008341D01*
X003091Y008453D01*
X002985Y008560D01*
X002924Y008707D01*
X002924Y014602D01*
X002693Y008733D01*
X003346Y008080D01*
X003684Y008080D01*
X003828Y008140D01*
X004531Y008140D01*
X004701Y008070D01*
X004830Y007941D01*
X004900Y007771D01*
X004900Y007588D01*
X004830Y007419D01*
X004701Y007290D01*
X004531Y007220D01*
X003828Y007220D01*
X003684Y007280D01*
X003207Y007280D01*
X003457Y007030D01*
X003619Y007030D01*
X003659Y007070D01*
X003828Y007140D01*
X004531Y007140D01*
X004701Y007070D01*
X004830Y006941D01*
X004900Y006771D01*
X004900Y006588D01*
X004830Y006419D01*
X004701Y006290D01*
X004531Y006220D01*
X003828Y006220D01*
X003659Y006290D01*
X003619Y006330D01*
X003369Y006330D01*
X003644Y006055D01*
X003659Y006070D01*
X003828Y006140D01*
X004531Y006140D01*
X004701Y006070D01*
X004830Y005941D01*
X004900Y005771D01*
X004900Y005588D01*
X004830Y005419D01*
X004701Y005290D01*
X004531Y005220D01*
X003828Y005220D01*
X003659Y005290D01*
X003619Y005330D01*
X003582Y005330D01*
X003789Y005123D01*
X003828Y005140D01*
X004531Y005140D01*
X004701Y005070D01*
X004830Y004941D01*
X004900Y004771D01*
X004900Y004588D01*
X004830Y004419D01*
X004701Y004290D01*
X004531Y004220D01*
X004736Y004326D02*
X005280Y004326D01*
X005280Y004484D02*
X004857Y004484D01*
X004900Y004643D02*
X005280Y004643D01*
X005280Y004801D02*
X004888Y004801D01*
X004811Y004960D02*
X005280Y004960D01*
X005280Y005118D02*
X004585Y005118D01*
X004668Y005277D02*
X005280Y005277D01*
X005280Y005435D02*
X004836Y005435D01*
X004900Y005594D02*
X005280Y005594D01*
X005280Y005752D02*
X004900Y005752D01*
X004842Y005911D02*
X005280Y005911D01*
X005280Y006069D02*
X004702Y006069D01*
X004550Y006228D02*
X005280Y006228D01*
X005280Y006386D02*
X004797Y006386D01*
X004882Y006545D02*
X005280Y006545D01*
X005280Y006703D02*
X004900Y006703D01*
X004863Y006862D02*
X005280Y006862D01*
X005280Y007020D02*
X004751Y007020D01*
X004748Y007337D02*
X005280Y007337D01*
X005280Y007179D02*
X003308Y007179D01*
X003296Y008130D02*
X003803Y008130D01*
X003331Y008288D02*
X003138Y008288D01*
X003098Y008447D02*
X002979Y008447D01*
X002966Y008605D02*
X002821Y008605D01*
X002924Y008764D02*
X002694Y008764D01*
X002700Y008922D02*
X002924Y008922D01*
X002924Y009081D02*
X002707Y009081D01*
X002713Y009239D02*
X002924Y009239D01*
X002924Y009398D02*
X002719Y009398D01*
X002725Y009556D02*
X002924Y009556D01*
X002924Y009715D02*
X002731Y009715D01*
X002738Y009873D02*
X002924Y009873D01*
X002924Y010032D02*
X002744Y010032D01*
X002750Y010190D02*
X002924Y010190D01*
X002924Y010349D02*
X002756Y010349D01*
X002763Y010507D02*
X002924Y010507D01*
X002924Y010666D02*
X002769Y010666D01*
X002775Y010824D02*
X002924Y010824D01*
X002924Y010983D02*
X002781Y010983D01*
X002788Y011141D02*
X002924Y011141D01*
X002924Y011300D02*
X002794Y011300D01*
X002800Y011458D02*
X002924Y011458D01*
X002924Y011617D02*
X002806Y011617D01*
X002813Y011775D02*
X002924Y011775D01*
X002924Y011934D02*
X002819Y011934D01*
X002825Y012092D02*
X002924Y012092D01*
X002924Y012251D02*
X002831Y012251D01*
X002837Y012409D02*
X002924Y012409D01*
X002924Y012568D02*
X002844Y012568D01*
X002850Y012726D02*
X002924Y012726D01*
X002924Y012885D02*
X002856Y012885D01*
X002862Y013043D02*
X002924Y013043D01*
X002924Y013202D02*
X002869Y013202D01*
X002875Y013360D02*
X002924Y013360D01*
X002924Y013519D02*
X002881Y013519D01*
X002887Y013677D02*
X002924Y013677D01*
X002924Y013836D02*
X002894Y013836D01*
X002900Y013994D02*
X002924Y013994D01*
X002924Y014153D02*
X002906Y014153D01*
X002912Y014311D02*
X002924Y014311D01*
X002918Y014470D02*
X002924Y014470D01*
X002851Y015262D02*
X003009Y015262D01*
X003639Y015262D02*
X003654Y015262D01*
X003724Y014470D02*
X005280Y014470D01*
X005280Y014628D02*
X004569Y014628D01*
X004569Y014787D02*
X005280Y014787D01*
X005280Y014945D02*
X004569Y014945D01*
X004569Y015104D02*
X005280Y015104D01*
X005280Y015262D02*
X004569Y015262D01*
X005280Y015421D02*
X000880Y015421D01*
X000880Y015579D02*
X005309Y015579D01*
X005422Y015738D02*
X000880Y015738D01*
X000880Y015896D02*
X005580Y015896D01*
X005739Y016055D02*
X000880Y016055D01*
X000880Y016213D02*
X005897Y016213D01*
X005825Y016372D02*
X006056Y016372D01*
X006068Y016530D02*
X006214Y016530D01*
X006181Y016689D02*
X006157Y016689D01*
X005708Y016689D02*
X005652Y016689D01*
X005652Y016847D02*
X005708Y016847D01*
X005708Y017006D02*
X005652Y017006D01*
X005652Y017323D02*
X005708Y017323D01*
X005708Y017481D02*
X005652Y017481D01*
X005652Y017640D02*
X005708Y017640D01*
X005708Y017798D02*
X005652Y017798D01*
X005652Y017957D02*
X005708Y017957D01*
X005905Y017957D02*
X006399Y017957D01*
X006233Y017798D02*
X006091Y017798D01*
X006460Y018596D02*
X007460Y018596D01*
X007674Y018685D01*
X007769Y018780D01*
X008264Y018780D01*
X009530Y017514D01*
X009530Y012581D01*
X009553Y012525D01*
X009553Y012489D01*
X009623Y012320D01*
X009752Y012192D01*
X009766Y012186D01*
X009752Y012180D01*
X009623Y012051D01*
X009553Y011883D01*
X009553Y011701D01*
X009623Y011533D01*
X009752Y011404D01*
X009766Y011399D01*
X009752Y011393D01*
X009623Y011264D01*
X009553Y011096D01*
X009553Y010914D01*
X009623Y010746D01*
X009752Y010617D01*
X009766Y010611D01*
X009752Y010605D01*
X009623Y010477D01*
X009553Y010308D01*
X009553Y010126D01*
X009623Y009958D01*
X009752Y009830D01*
X009766Y009824D01*
X009752Y009818D01*
X009623Y009689D01*
X009553Y009521D01*
X009553Y009339D01*
X009623Y009171D01*
X009752Y009042D01*
X009766Y009036D01*
X009752Y009030D01*
X009623Y008902D01*
X009553Y008734D01*
X009553Y008552D01*
X009623Y008383D01*
X009752Y008255D01*
X009766Y008249D01*
X009752Y008243D01*
X009623Y008114D01*
X009553Y007946D01*
X009553Y007764D01*
X009623Y007596D01*
X009752Y007467D01*
X009766Y007461D01*
X009752Y007456D01*
X009623Y007327D01*
X009553Y007159D01*
X009553Y006977D01*
X009623Y006809D01*
X009752Y006680D01*
X009766Y006674D01*
X009752Y006668D01*
X009623Y006540D01*
X009553Y006371D01*
X009553Y006189D01*
X009623Y006021D01*
X009752Y005893D01*
X009766Y005887D01*
X009752Y005881D01*
X009623Y005752D01*
X009009Y005752D01*
X009140Y005594D02*
X009557Y005594D01*
X009553Y005584D02*
X009553Y005402D01*
X009623Y005234D01*
X009752Y005105D01*
X009920Y005036D01*
X010102Y005036D01*
X010270Y005105D01*
X010399Y005234D01*
X010468Y005402D01*
X010468Y005584D01*
X010399Y005752D01*
X010480Y005752D01*
X010399Y005752D02*
X010270Y005881D01*
X010256Y005887D01*
X010270Y005893D01*
X010399Y006021D01*
X010468Y006189D01*
X010468Y006371D01*
X010399Y006540D01*
X010270Y006668D01*
X010256Y006674D01*
X010270Y006680D01*
X010399Y006809D01*
X010468Y006977D01*
X010468Y007159D01*
X010399Y007327D01*
X010270Y007456D01*
X010256Y007461D01*
X010270Y007467D01*
X010399Y007596D01*
X010468Y007764D01*
X010468Y007946D01*
X010399Y008114D01*
X010270Y008243D01*
X010256Y008249D01*
X010270Y008255D01*
X010399Y008383D01*
X010468Y008552D01*
X010468Y008734D01*
X010399Y008902D01*
X010270Y009030D01*
X010256Y009036D01*
X010270Y009042D01*
X010399Y009171D01*
X010468Y009339D01*
X010468Y009521D01*
X010399Y009689D01*
X010270Y009818D01*
X010256Y009824D01*
X010270Y009830D01*
X010399Y009958D01*
X010468Y010126D01*
X010468Y010308D01*
X010399Y010477D01*
X010270Y010605D01*
X010256Y010611D01*
X010270Y010617D01*
X010399Y010746D01*
X010468Y010914D01*
X010468Y011096D01*
X010399Y011264D01*
X010270Y011393D01*
X010256Y011399D01*
X010270Y011404D01*
X010399Y011533D01*
X010468Y011701D01*
X010468Y011883D01*
X010399Y012051D01*
X010270Y012180D01*
X010256Y012186D01*
X010270Y012192D01*
X010399Y012320D01*
X010468Y012489D01*
X010468Y012671D01*
X010399Y012839D01*
X010330Y012907D01*
X010330Y017760D01*
X010269Y017907D01*
X010157Y018019D01*
X008657Y019519D01*
X008510Y019580D01*
X007769Y019580D01*
X007674Y019675D01*
X007460Y019764D01*
X006460Y019764D01*
X006245Y019675D01*
X006081Y019511D01*
X005992Y019296D01*
X005992Y019064D01*
X006081Y018849D01*
X006245Y018685D01*
X006460Y018596D01*
X006181Y018749D02*
X005150Y018749D01*
X005152Y018750D02*
X005214Y018813D01*
X005267Y018884D01*
X005307Y018964D01*
X005334Y019048D01*
X005348Y019132D01*
X004448Y019132D01*
X004448Y018616D01*
X004829Y018616D01*
X004916Y018630D01*
X005001Y018657D01*
X005080Y018698D01*
X005152Y018750D01*
X005278Y018908D02*
X006057Y018908D01*
X005992Y019066D02*
X005337Y019066D01*
X005348Y019228D02*
X005334Y019312D01*
X005307Y019396D01*
X005267Y019476D01*
X005214Y019547D01*
X005152Y019610D01*
X005080Y019662D01*
X005001Y019703D01*
X004916Y019730D01*
X004829Y019744D01*
X004448Y019744D01*
X004448Y019228D01*
X004353Y019228D01*
X004353Y019744D01*
X003972Y019744D01*
X003885Y019730D01*
X003800Y019703D01*
X003721Y019662D01*
X003649Y019610D01*
X003587Y019547D01*
X003534Y019476D01*
X003494Y019396D01*
X003467Y019312D01*
X003453Y019228D01*
X004353Y019228D01*
X004353Y019132D01*
X004448Y019132D01*
X004448Y019228D01*
X005348Y019228D01*
X005311Y019383D02*
X006028Y019383D01*
X005992Y019225D02*
X004448Y019225D01*
X004353Y019225D02*
X000880Y019225D01*
X000880Y019383D02*
X003490Y019383D01*
X003582Y019542D02*
X000880Y019542D01*
X000880Y019700D02*
X003795Y019700D01*
X003453Y019132D02*
X003467Y019048D01*
X003494Y018964D01*
X003534Y018884D01*
X003587Y018813D01*
X003649Y018750D01*
X003721Y018698D01*
X003800Y018657D01*
X003885Y018630D01*
X003972Y018616D01*
X004353Y018616D01*
X004353Y019132D01*
X003453Y019132D01*
X003464Y019066D02*
X000880Y019066D01*
X000880Y018908D02*
X003523Y018908D01*
X003651Y018749D02*
X000880Y018749D01*
X000880Y018591D02*
X008454Y018591D01*
X008295Y018749D02*
X007738Y018749D01*
X007614Y019700D02*
X010480Y019700D01*
X010480Y019542D02*
X008602Y019542D01*
X008793Y019383D02*
X010480Y019383D01*
X010480Y019225D02*
X008951Y019225D01*
X009110Y019066D02*
X010480Y019066D01*
X010480Y018908D02*
X009268Y018908D01*
X009427Y018749D02*
X010480Y018749D01*
X010480Y018591D02*
X009585Y018591D01*
X009744Y018432D02*
X010480Y018432D01*
X010480Y018274D02*
X009902Y018274D01*
X010061Y018115D02*
X010480Y018115D01*
X010480Y017957D02*
X010219Y017957D01*
X010314Y017798D02*
X010480Y017798D01*
X010480Y017640D02*
X010330Y017640D01*
X010330Y017481D02*
X010480Y017481D01*
X010480Y017323D02*
X010330Y017323D01*
X010330Y017164D02*
X010480Y017164D01*
X010480Y017006D02*
X010330Y017006D01*
X010330Y016847D02*
X010480Y016847D01*
X010480Y016689D02*
X010330Y016689D01*
X010330Y016530D02*
X010480Y016530D01*
X010480Y016372D02*
X010330Y016372D01*
X010330Y016213D02*
X010480Y016213D01*
X010480Y016055D02*
X010330Y016055D01*
X010330Y015896D02*
X010480Y015896D01*
X010480Y015738D02*
X010330Y015738D01*
X010330Y015579D02*
X010480Y015579D01*
X010480Y015421D02*
X010330Y015421D01*
X010330Y015262D02*
X010480Y015262D01*
X010480Y015104D02*
X010330Y015104D01*
X010330Y014945D02*
X010480Y014945D01*
X010480Y014787D02*
X010330Y014787D01*
X010330Y014628D02*
X010480Y014628D01*
X010480Y014470D02*
X010330Y014470D01*
X010330Y014311D02*
X010480Y014311D01*
X010480Y014153D02*
X010330Y014153D01*
X010330Y013994D02*
X010480Y013994D01*
X010480Y013836D02*
X010330Y013836D01*
X010330Y013677D02*
X010480Y013677D01*
X010480Y013519D02*
X010330Y013519D01*
X010330Y013360D02*
X010480Y013360D01*
X010480Y013202D02*
X010330Y013202D01*
X010330Y013043D02*
X010480Y013043D01*
X010480Y012885D02*
X010353Y012885D01*
X010445Y012726D02*
X010480Y012726D01*
X010468Y012568D02*
X010480Y012568D01*
X010480Y012409D02*
X010435Y012409D01*
X010480Y012251D02*
X010329Y012251D01*
X010358Y012092D02*
X010480Y012092D01*
X010480Y011934D02*
X010447Y011934D01*
X010468Y011775D02*
X010480Y011775D01*
X010480Y011617D02*
X010433Y011617D01*
X010480Y011458D02*
X010323Y011458D01*
X010363Y011300D02*
X010480Y011300D01*
X010480Y011141D02*
X010449Y011141D01*
X010468Y010983D02*
X010480Y010983D01*
X010480Y010824D02*
X010431Y010824D01*
X010480Y010666D02*
X010318Y010666D01*
X010368Y010507D02*
X010480Y010507D01*
X010480Y010349D02*
X010452Y010349D01*
X010468Y010190D02*
X010480Y010190D01*
X010480Y010032D02*
X010429Y010032D01*
X010480Y009873D02*
X010313Y009873D01*
X010373Y009715D02*
X010480Y009715D01*
X010480Y009556D02*
X010454Y009556D01*
X010468Y009398D02*
X010480Y009398D01*
X010480Y009239D02*
X010427Y009239D01*
X010480Y009081D02*
X010308Y009081D01*
X010378Y008922D02*
X010480Y008922D01*
X010480Y008764D02*
X010456Y008764D01*
X010468Y008605D02*
X010480Y008605D01*
X010480Y008447D02*
X010425Y008447D01*
X010480Y008288D02*
X010303Y008288D01*
X010383Y008130D02*
X010480Y008130D01*
X010480Y007971D02*
X010458Y007971D01*
X010468Y007813D02*
X010480Y007813D01*
X010480Y007654D02*
X010423Y007654D01*
X010480Y007496D02*
X010298Y007496D01*
X010388Y007337D02*
X010480Y007337D01*
X010480Y007179D02*
X010460Y007179D01*
X010468Y007020D02*
X010480Y007020D01*
X010480Y006862D02*
X010420Y006862D01*
X010480Y006703D02*
X010293Y006703D01*
X010394Y006545D02*
X010480Y006545D01*
X010480Y006386D02*
X010462Y006386D01*
X010468Y006228D02*
X010480Y006228D01*
X010480Y006069D02*
X010418Y006069D01*
X010480Y005911D02*
X010288Y005911D01*
X010464Y005594D02*
X010480Y005594D01*
X010468Y005435D02*
X010480Y005435D01*
X010480Y005277D02*
X010416Y005277D01*
X010480Y005118D02*
X010283Y005118D01*
X010480Y004960D02*
X009532Y004960D01*
X009690Y004801D02*
X010480Y004801D01*
X010480Y004643D02*
X009849Y004643D01*
X009980Y004484D02*
X010480Y004484D01*
X010480Y004326D02*
X009980Y004326D01*
X009739Y005118D02*
X009019Y005118D01*
X009140Y005277D02*
X009605Y005277D01*
X009553Y005435D02*
X009140Y005435D01*
X009150Y004960D02*
X009210Y004960D01*
X009210Y004801D02*
X009150Y004801D01*
X009150Y004643D02*
X009210Y004643D01*
X009210Y004484D02*
X009150Y004484D01*
X009150Y004326D02*
X009210Y004326D01*
X009210Y004009D02*
X009150Y004009D01*
X009150Y003850D02*
X009210Y003850D01*
X009210Y003692D02*
X009150Y003692D01*
X009150Y003533D02*
X009210Y003533D01*
X009520Y003000D02*
X008840Y003000D01*
X008360Y002520D01*
X008360Y001840D01*
X008840Y001360D01*
X009520Y001360D01*
X010000Y001840D01*
X010000Y002520D01*
X009520Y003000D01*
X009621Y002899D02*
X010480Y002899D01*
X010480Y002741D02*
X009779Y002741D01*
X009938Y002582D02*
X010480Y002582D01*
X010480Y002424D02*
X010000Y002424D01*
X010000Y002265D02*
X010480Y002265D01*
X010480Y002107D02*
X010000Y002107D01*
X010000Y001948D02*
X010480Y001948D01*
X010480Y001790D02*
X009949Y001790D01*
X009791Y001631D02*
X010480Y001631D01*
X010480Y001473D02*
X009632Y001473D01*
X010480Y001314D02*
X000880Y001314D01*
X000880Y001156D02*
X010480Y001156D01*
X010480Y000997D02*
X000880Y000997D01*
X000880Y000880D02*
X000880Y019980D01*
X010480Y019980D01*
X010480Y000880D01*
X000880Y000880D01*
X000880Y002741D02*
X005554Y002741D01*
X005395Y002899D02*
X000880Y002899D01*
X000880Y003058D02*
X005298Y003058D01*
X005280Y003216D02*
X000880Y003216D01*
X000880Y003375D02*
X003603Y003375D01*
X003505Y003533D02*
X000880Y003533D01*
X000880Y003692D02*
X003480Y003692D01*
X003513Y003850D02*
X000880Y003850D01*
X000880Y004009D02*
X003626Y004009D01*
X003548Y004326D02*
X000880Y004326D01*
X000880Y004484D02*
X003385Y004484D01*
X003280Y004643D02*
X000880Y004643D01*
X000880Y004801D02*
X003121Y004801D01*
X002963Y004960D02*
X000880Y004960D01*
X000880Y005118D02*
X001122Y005118D01*
X000969Y005277D02*
X000880Y005277D01*
X000880Y005435D02*
X000916Y005435D01*
X000922Y005594D02*
X000880Y005594D01*
X000880Y005752D02*
X000997Y005752D01*
X001072Y005911D02*
X000880Y005911D01*
X000880Y006069D02*
X000942Y006069D01*
X000892Y006228D02*
X000880Y006228D01*
X000880Y006386D02*
X000898Y006386D01*
X000880Y006545D02*
X000966Y006545D01*
X000880Y006703D02*
X001067Y006703D01*
X000940Y006862D02*
X000880Y006862D01*
X000880Y007020D02*
X000892Y007020D01*
X000880Y007179D02*
X000900Y007179D01*
X000880Y007337D02*
X000972Y007337D01*
X001062Y007496D02*
X000880Y007496D01*
X000880Y007654D02*
X000937Y007654D01*
X000892Y007813D02*
X000880Y007813D01*
X000880Y007971D02*
X000902Y007971D01*
X000880Y008130D02*
X000977Y008130D01*
X001057Y008288D02*
X000880Y008288D01*
X000880Y008447D02*
X000935Y008447D01*
X000892Y008605D02*
X000880Y008605D01*
X000880Y008764D02*
X000904Y008764D01*
X000880Y008922D02*
X000982Y008922D01*
X001052Y009081D02*
X000880Y009081D01*
X000880Y009239D02*
X000933Y009239D01*
X000892Y009398D02*
X000880Y009398D01*
X000880Y009556D02*
X000906Y009556D01*
X000880Y009715D02*
X000987Y009715D01*
X001047Y009873D02*
X000880Y009873D01*
X000880Y010032D02*
X000931Y010032D01*
X000892Y010190D02*
X000880Y010190D01*
X000880Y010349D02*
X000908Y010349D01*
X000880Y010507D02*
X000992Y010507D01*
X001042Y010666D02*
X000880Y010666D01*
X000880Y010824D02*
X000929Y010824D01*
X000892Y010983D02*
X000880Y010983D01*
X000880Y011141D02*
X000911Y011141D01*
X000880Y011300D02*
X000997Y011300D01*
X001037Y011458D02*
X000880Y011458D01*
X000880Y011617D02*
X000927Y011617D01*
X000892Y011775D02*
X000880Y011775D01*
X000880Y011934D02*
X000913Y011934D01*
X000880Y012092D02*
X001002Y012092D01*
X001031Y012251D02*
X000880Y012251D01*
X000880Y012409D02*
X000925Y012409D01*
X000892Y012568D02*
X000880Y012568D01*
X000880Y012726D02*
X000915Y012726D01*
X000880Y012885D02*
X001007Y012885D01*
X000880Y013043D02*
X002062Y013043D01*
X002056Y012885D02*
X001691Y012885D01*
X001784Y012726D02*
X002049Y012726D01*
X002043Y012568D02*
X001807Y012568D01*
X001774Y012409D02*
X002037Y012409D01*
X002031Y012251D02*
X001667Y012251D01*
X001696Y012092D02*
X002024Y012092D01*
X002018Y011934D02*
X001786Y011934D01*
X001807Y011775D02*
X002012Y011775D01*
X002006Y011617D02*
X001772Y011617D01*
X001662Y011458D02*
X001999Y011458D01*
X001993Y011300D02*
X001702Y011300D01*
X001788Y011141D02*
X001987Y011141D01*
X001981Y010983D02*
X001807Y010983D01*
X001770Y010824D02*
X001974Y010824D01*
X001968Y010666D02*
X001657Y010666D01*
X001707Y010507D02*
X001962Y010507D01*
X001956Y010349D02*
X001790Y010349D01*
X001807Y010190D02*
X001950Y010190D01*
X001943Y010032D02*
X001767Y010032D01*
X001652Y009873D02*
X001937Y009873D01*
X001931Y009715D02*
X001712Y009715D01*
X001792Y009556D02*
X001925Y009556D01*
X001918Y009398D02*
X001807Y009398D01*
X001765Y009239D02*
X001912Y009239D01*
X001906Y009081D02*
X001647Y009081D01*
X001717Y008922D02*
X001900Y008922D01*
X001893Y008764D02*
X001794Y008764D01*
X001882Y008605D02*
X001886Y008605D01*
X001853Y006069D02*
X001757Y006069D01*
X001626Y005911D02*
X002012Y005911D01*
X002170Y005752D02*
X001702Y005752D01*
X001776Y005594D02*
X002329Y005594D01*
X002487Y005435D02*
X001783Y005435D01*
X001787Y005459D02*
X001776Y005391D01*
X001755Y005325D01*
X001723Y005264D01*
X001683Y005208D01*
X001634Y005159D01*
X001579Y005119D01*
X001517Y005088D01*
X001452Y005066D01*
X001384Y005056D01*
X001349Y005056D01*
X001349Y005493D01*
X001349Y005493D01*
X001787Y005493D01*
X001787Y005459D01*
X001730Y005277D02*
X002646Y005277D01*
X002804Y005118D02*
X001577Y005118D01*
X001349Y005118D02*
X001349Y005118D01*
X001349Y005277D02*
X001349Y005277D01*
X001349Y005435D02*
X001349Y005435D01*
X001349Y005493D02*
X001349Y005493D01*
X000880Y004167D02*
X005280Y004167D01*
X005280Y004009D02*
X004734Y004009D01*
X004847Y003850D02*
X005280Y003850D01*
X005280Y003692D02*
X004880Y003692D01*
X004855Y003533D02*
X005280Y003533D01*
X005280Y003375D02*
X004757Y003375D01*
X005563Y002424D02*
X005780Y002424D01*
X005683Y002265D02*
X005677Y002265D01*
X005677Y002107D02*
X005683Y002107D01*
X005677Y001948D02*
X005683Y001948D01*
X005677Y001790D02*
X005683Y001790D01*
X005677Y001631D02*
X005683Y001631D01*
X005761Y001473D02*
X005599Y001473D01*
X006580Y002424D02*
X008360Y002424D01*
X008360Y002265D02*
X006677Y002265D01*
X006677Y002107D02*
X008360Y002107D01*
X008360Y001948D02*
X006677Y001948D01*
X006677Y001790D02*
X008411Y001790D01*
X008569Y001631D02*
X006677Y001631D01*
X006599Y001473D02*
X008728Y001473D01*
X008422Y002582D02*
X006580Y002582D01*
X006580Y002741D02*
X008581Y002741D01*
X008739Y002899D02*
X006522Y002899D01*
X006624Y004326D02*
X006080Y004326D01*
X006080Y004484D02*
X006503Y004484D01*
X006460Y004643D02*
X006080Y004643D01*
X006080Y004801D02*
X006472Y004801D01*
X006549Y004960D02*
X006080Y004960D01*
X006080Y005118D02*
X006775Y005118D01*
X006828Y005220D02*
X006659Y005290D01*
X006530Y005419D01*
X006460Y005588D01*
X006460Y005771D01*
X006530Y005941D01*
X006659Y006070D01*
X006828Y006140D01*
X007531Y006140D01*
X007701Y006070D01*
X007830Y005941D01*
X007900Y005771D01*
X007900Y005588D01*
X007830Y005419D01*
X007701Y005290D01*
X007531Y005220D01*
X006828Y005220D01*
X006692Y005277D02*
X006080Y005277D01*
X006080Y005435D02*
X006524Y005435D01*
X006460Y005594D02*
X006080Y005594D01*
X006080Y005752D02*
X006460Y005752D01*
X006518Y005911D02*
X006080Y005911D01*
X006080Y006069D02*
X006658Y006069D01*
X006751Y006272D02*
X006817Y006251D01*
X006885Y006240D01*
X007180Y006240D01*
X007475Y006240D01*
X007543Y006251D01*
X007609Y006272D01*
X007671Y006304D01*
X007727Y006344D01*
X007776Y006393D01*
X007816Y006449D01*
X007848Y006511D01*
X007869Y006577D01*
X007880Y006645D01*
X007880Y006680D01*
X007880Y006715D01*
X007869Y006783D01*
X007848Y006849D01*
X007816Y006911D01*
X007776Y006967D01*
X007727Y007016D01*
X007671Y007056D01*
X007609Y007088D01*
X007543Y007109D01*
X007475Y007120D01*
X007180Y007120D01*
X007180Y006680D01*
X007430Y006680D01*
X007180Y006680D02*
X007880Y006680D01*
X007180Y006680D01*
X007180Y006680D01*
X007180Y006680D01*
X007180Y006240D01*
X007180Y006680D01*
X007180Y006680D01*
X007180Y006680D01*
X006480Y006680D01*
X006480Y006715D01*
X006491Y006783D01*
X006512Y006849D01*
X006544Y006911D01*
X006584Y006967D01*
X006633Y007016D01*
X006689Y007056D01*
X006751Y007088D01*
X006817Y007109D01*
X006885Y007120D01*
X007180Y007120D01*
X007180Y006680D01*
X006480Y006680D01*
X006480Y006645D01*
X006491Y006577D01*
X006512Y006511D01*
X006544Y006449D01*
X006584Y006393D01*
X006633Y006344D01*
X006689Y006304D01*
X006751Y006272D01*
X006592Y006386D02*
X006080Y006386D01*
X006080Y006228D02*
X009553Y006228D01*
X009559Y006386D02*
X007768Y006386D01*
X007859Y006545D02*
X009628Y006545D01*
X009729Y006703D02*
X007880Y006703D01*
X007841Y006862D02*
X009601Y006862D01*
X009553Y007020D02*
X007721Y007020D01*
X007701Y007290D02*
X007531Y007220D01*
X006828Y007220D01*
X006659Y007290D01*
X006530Y007419D01*
X006460Y007588D01*
X006460Y007771D01*
X006530Y007941D01*
X006659Y008070D01*
X006828Y008140D01*
X007531Y008140D01*
X007701Y008070D01*
X007830Y007941D01*
X007900Y007771D01*
X007900Y007588D01*
X007830Y007419D01*
X007701Y007290D01*
X007748Y007337D02*
X009633Y007337D01*
X009561Y007179D02*
X006080Y007179D01*
X006080Y007337D02*
X006612Y007337D01*
X006499Y007496D02*
X006080Y007496D01*
X006080Y007654D02*
X006460Y007654D01*
X006477Y007813D02*
X006080Y007813D01*
X006080Y007971D02*
X006560Y007971D01*
X006664Y008288D02*
X006080Y008288D01*
X006080Y008130D02*
X006803Y008130D01*
X006828Y008220D02*
X006659Y008290D01*
X006530Y008419D01*
X006460Y008588D01*
X006460Y008771D01*
X006530Y008941D01*
X006659Y009070D01*
X006828Y009140D01*
X007531Y009140D01*
X007701Y009070D01*
X007830Y008941D01*
X007900Y008771D01*
X007900Y008588D01*
X007830Y008419D01*
X007701Y008290D01*
X007531Y008220D01*
X006828Y008220D01*
X006519Y008447D02*
X006080Y008447D01*
X006080Y008605D02*
X006460Y008605D01*
X006460Y008764D02*
X006080Y008764D01*
X006080Y008922D02*
X006522Y008922D01*
X006685Y009081D02*
X006080Y009081D01*
X006080Y009239D02*
X006783Y009239D01*
X006828Y009220D02*
X006659Y009290D01*
X006530Y009419D01*
X006460Y009588D01*
X006460Y009771D01*
X006530Y009941D01*
X006659Y010070D01*
X006828Y010140D01*
X007531Y010140D01*
X007701Y010070D01*
X007830Y009941D01*
X007900Y009771D01*
X007900Y009588D01*
X007830Y009419D01*
X007701Y009290D01*
X007531Y009220D01*
X006828Y009220D01*
X006552Y009398D02*
X006080Y009398D01*
X006080Y009556D02*
X006473Y009556D01*
X006460Y009715D02*
X006080Y009715D01*
X006080Y009873D02*
X006502Y009873D01*
X006621Y010032D02*
X006080Y010032D01*
X006080Y010190D02*
X008298Y010190D01*
X008240Y010248D02*
X008240Y010430D01*
X008680Y010430D01*
X008680Y010430D01*
X008680Y010870D01*
X008862Y010870D01*
X009120Y010612D01*
X009120Y010430D01*
X008680Y010430D01*
X008680Y010430D01*
X008680Y010430D01*
X008680Y010870D01*
X008498Y010870D01*
X008240Y010612D01*
X008240Y010430D01*
X008680Y010430D01*
X009120Y010430D01*
X009120Y010248D01*
X008862Y009990D01*
X008680Y009990D01*
X008680Y010430D01*
X008680Y010430D01*
X008680Y009990D01*
X008498Y009990D01*
X008240Y010248D01*
X008240Y010349D02*
X006080Y010349D01*
X006080Y010507D02*
X008240Y010507D01*
X008293Y010666D02*
X006080Y010666D01*
X006080Y010824D02*
X008452Y010824D01*
X008680Y010824D02*
X008680Y010824D01*
X008680Y010666D02*
X008680Y010666D01*
X008680Y010507D02*
X008680Y010507D01*
X008680Y010349D02*
X008680Y010349D01*
X008680Y010190D02*
X008680Y010190D01*
X008680Y010032D02*
X008680Y010032D01*
X008904Y010032D02*
X009593Y010032D01*
X009553Y010190D02*
X009062Y010190D01*
X009120Y010349D02*
X009570Y010349D01*
X009653Y010507D02*
X009120Y010507D01*
X009067Y010666D02*
X009703Y010666D01*
X009590Y010824D02*
X008908Y010824D01*
X008456Y010032D02*
X007739Y010032D01*
X007858Y009873D02*
X009708Y009873D01*
X009648Y009715D02*
X007900Y009715D01*
X007887Y009556D02*
X009568Y009556D01*
X009553Y009398D02*
X007808Y009398D01*
X007675Y009081D02*
X009713Y009081D01*
X009643Y008922D02*
X007838Y008922D01*
X007900Y008764D02*
X009566Y008764D01*
X009553Y008605D02*
X007900Y008605D01*
X007841Y008447D02*
X009597Y008447D01*
X009718Y008288D02*
X007696Y008288D01*
X007557Y008130D02*
X009638Y008130D01*
X009564Y007971D02*
X007800Y007971D01*
X007883Y007813D02*
X009553Y007813D01*
X009599Y007654D02*
X007900Y007654D01*
X007861Y007496D02*
X009723Y007496D01*
X009603Y006069D02*
X007702Y006069D01*
X007842Y005911D02*
X009734Y005911D01*
X009623Y005752D02*
X009553Y005584D01*
X008351Y005752D02*
X007900Y005752D01*
X007900Y005594D02*
X008220Y005594D01*
X008220Y005435D02*
X007836Y005435D01*
X007668Y005277D02*
X008220Y005277D01*
X008341Y005118D02*
X007585Y005118D01*
X007180Y006386D02*
X007180Y006386D01*
X007180Y006545D02*
X007180Y006545D01*
X007180Y006703D02*
X007180Y006703D01*
X007180Y006862D02*
X007180Y006862D01*
X007180Y007020D02*
X007180Y007020D01*
X006639Y007020D02*
X006080Y007020D01*
X006080Y006862D02*
X006519Y006862D01*
X006480Y006703D02*
X006080Y006703D01*
X006080Y006545D02*
X006501Y006545D01*
X005280Y007496D02*
X004861Y007496D01*
X004900Y007654D02*
X005280Y007654D01*
X005280Y007813D02*
X004883Y007813D01*
X004800Y007971D02*
X005280Y007971D01*
X005280Y008130D02*
X004557Y008130D01*
X004696Y008288D02*
X005280Y008288D01*
X005280Y008447D02*
X004841Y008447D01*
X004900Y008605D02*
X005280Y008605D01*
X005280Y008764D02*
X004900Y008764D01*
X004838Y008922D02*
X005280Y008922D01*
X005280Y009081D02*
X004675Y009081D01*
X004577Y009239D02*
X005280Y009239D01*
X005280Y009398D02*
X004808Y009398D01*
X004887Y009556D02*
X005280Y009556D01*
X005280Y009715D02*
X004900Y009715D01*
X004858Y009873D02*
X005280Y009873D01*
X005280Y010032D02*
X004739Y010032D01*
X005280Y010190D02*
X003724Y010190D01*
X003724Y010349D02*
X005280Y010349D01*
X005280Y010507D02*
X003724Y010507D01*
X003724Y010666D02*
X005280Y010666D01*
X005280Y010824D02*
X003724Y010824D01*
X003724Y010983D02*
X005280Y010983D01*
X005280Y011141D02*
X003724Y011141D01*
X003724Y011300D02*
X005280Y011300D01*
X005280Y011458D02*
X003724Y011458D01*
X003724Y011617D02*
X005280Y011617D01*
X005280Y011775D02*
X003724Y011775D01*
X003724Y011934D02*
X005280Y011934D01*
X005280Y012092D02*
X003724Y012092D01*
X003724Y012251D02*
X005280Y012251D01*
X005280Y012409D02*
X003724Y012409D01*
X003724Y012568D02*
X005280Y012568D01*
X005280Y012726D02*
X003724Y012726D01*
X003724Y012885D02*
X005280Y012885D01*
X005280Y013043D02*
X003724Y013043D01*
X003724Y013202D02*
X005280Y013202D01*
X005280Y013360D02*
X003724Y013360D01*
X003724Y013519D02*
X005280Y013519D01*
X005280Y013677D02*
X003724Y013677D01*
X003724Y013836D02*
X005280Y013836D01*
X005280Y013994D02*
X003724Y013994D01*
X003724Y014153D02*
X005280Y014153D01*
X005280Y014311D02*
X003724Y014311D01*
X004476Y016372D02*
X000880Y016372D01*
X000880Y016530D02*
X004263Y016530D01*
X004181Y016689D02*
X000880Y016689D01*
X000880Y016847D02*
X004155Y016847D01*
X004155Y017006D02*
X000880Y017006D01*
X000880Y017164D02*
X004155Y017164D01*
X004155Y017323D02*
X000880Y017323D01*
X000880Y017481D02*
X004155Y017481D01*
X004168Y017640D02*
X000880Y017640D01*
X000880Y017798D02*
X004233Y017798D01*
X004399Y017957D02*
X000880Y017957D01*
X000880Y018115D02*
X008929Y018115D01*
X008771Y018274D02*
X000880Y018274D01*
X000880Y018432D02*
X008612Y018432D01*
X009088Y017957D02*
X006961Y017957D01*
X007127Y017798D02*
X009246Y017798D01*
X009405Y017640D02*
X007192Y017640D01*
X007205Y017481D02*
X009530Y017481D01*
X009530Y017323D02*
X007205Y017323D01*
X007205Y017164D02*
X009530Y017164D01*
X009530Y017006D02*
X007205Y017006D01*
X007205Y016847D02*
X009530Y016847D01*
X009530Y016689D02*
X007179Y016689D01*
X007097Y016530D02*
X009530Y016530D01*
X009530Y016372D02*
X007080Y016372D01*
X007023Y016213D02*
X009530Y016213D01*
X009530Y016055D02*
X006870Y016055D01*
X006712Y015896D02*
X009530Y015896D01*
X009530Y015738D02*
X006553Y015738D01*
X006395Y015579D02*
X009530Y015579D01*
X009530Y015421D02*
X006236Y015421D01*
X006080Y015262D02*
X009530Y015262D01*
X009530Y015104D02*
X006080Y015104D01*
X006080Y014945D02*
X009530Y014945D01*
X009530Y014787D02*
X006080Y014787D01*
X006080Y014628D02*
X009530Y014628D01*
X009530Y014470D02*
X006080Y014470D01*
X006080Y014311D02*
X009530Y014311D01*
X009530Y014153D02*
X006080Y014153D01*
X006080Y013994D02*
X009530Y013994D01*
X009530Y013836D02*
X006080Y013836D01*
X006080Y013677D02*
X009530Y013677D01*
X009530Y013519D02*
X006080Y013519D01*
X006080Y013360D02*
X009530Y013360D01*
X009530Y013202D02*
X006080Y013202D01*
X006080Y013043D02*
X009530Y013043D01*
X009530Y012885D02*
X006080Y012885D01*
X006080Y012726D02*
X009530Y012726D01*
X009535Y012568D02*
X006080Y012568D01*
X006080Y012409D02*
X009586Y012409D01*
X009693Y012251D02*
X006080Y012251D01*
X006080Y012092D02*
X009664Y012092D01*
X009574Y011934D02*
X006080Y011934D01*
X006080Y011775D02*
X009553Y011775D01*
X009588Y011617D02*
X006080Y011617D01*
X006080Y011458D02*
X009698Y011458D01*
X009658Y011300D02*
X006080Y011300D01*
X006080Y011141D02*
X009572Y011141D01*
X009553Y010983D02*
X006080Y010983D01*
X007577Y009239D02*
X009595Y009239D01*
X005708Y016372D02*
X005652Y016372D01*
X005535Y016372D02*
X004884Y016372D01*
X005097Y016530D02*
X005292Y016530D01*
X005203Y016689D02*
X005179Y016689D01*
X005652Y016530D02*
X005708Y016530D01*
X005269Y017798D02*
X005127Y017798D01*
X004961Y017957D02*
X005455Y017957D01*
X005219Y019542D02*
X006111Y019542D01*
X006305Y019700D02*
X005006Y019700D01*
X004448Y019700D02*
X004353Y019700D01*
X004353Y019542D02*
X004448Y019542D01*
X004448Y019383D02*
X004353Y019383D01*
X004353Y019066D02*
X004448Y019066D01*
X004448Y018908D02*
X004353Y018908D01*
X004353Y018749D02*
X004448Y018749D01*
X002221Y015262D02*
X002064Y015262D01*
X002094Y014628D02*
X002124Y014628D01*
X002118Y014470D02*
X000880Y014470D01*
X000880Y014628D02*
X001404Y014628D01*
X001313Y014787D02*
X000880Y014787D01*
X000880Y014945D02*
X001291Y014945D01*
X001326Y015104D02*
X000880Y015104D01*
X000880Y015262D02*
X001434Y015262D01*
X000880Y014311D02*
X002112Y014311D01*
X002105Y014153D02*
X000880Y014153D01*
X000880Y013994D02*
X002099Y013994D01*
X002093Y013836D02*
X000880Y013836D01*
X000880Y013677D02*
X002087Y013677D01*
X002080Y013519D02*
X000880Y013519D01*
X000880Y013360D02*
X002074Y013360D01*
X002068Y013202D02*
X000880Y013202D01*
X003724Y009239D02*
X003783Y009239D01*
X003810Y006228D02*
X003472Y006228D01*
X003630Y006069D02*
X003658Y006069D01*
X003636Y005277D02*
X003692Y005277D01*
X000880Y019859D02*
X010480Y019859D01*
D20*
X008430Y019180D02*
X009930Y017680D01*
X009930Y012660D01*
X010011Y012580D01*
X006680Y016430D02*
X005680Y015430D01*
X005680Y003180D01*
X006180Y002680D01*
X006180Y001930D01*
X004180Y004680D02*
X003737Y004680D01*
X004180Y007680D02*
X003180Y007680D01*
X002286Y008574D01*
X002536Y014930D01*
X003324Y014930D02*
X003324Y008786D01*
X003430Y008680D01*
X004180Y008680D01*
X006680Y016430D02*
X006680Y017180D01*
X006960Y019180D02*
X008430Y019180D01*
D21*
X001349Y008643D02*
X003312Y006680D01*
X004180Y006680D01*
X004180Y005680D02*
X003524Y005680D01*
X001349Y007855D01*
X001349Y007068D02*
X003737Y004680D01*
M02*
