G75*
%MOIN*%
%OFA0B0*%
%FSLAX24Y24*%
%IPPOS*%
%LPD*%
%AMOC8*
5,1,8,0,0,1.08239X$1,22.5*
%
%ADD10C,0.0000*%
%ADD11C,0.0050*%
%ADD12C,0.0030*%
%ADD13C,0.0040*%
%ADD14C,0.0080*%
%ADD15C,0.0100*%
%ADD16C,0.0060*%
D10*
X000680Y000680D02*
X000680Y020180D01*
X010680Y020180D01*
X010680Y000680D01*
X000680Y000680D01*
D11*
X000837Y003131D02*
X010523Y003131D01*
X010523Y012816D01*
X007649Y015729D01*
X003711Y015729D01*
X000837Y012816D01*
X000837Y003131D01*
X002680Y002430D02*
X002680Y001430D01*
X003680Y001430D01*
X003680Y002430D01*
X004680Y002430D01*
X004680Y001430D01*
X003680Y001430D01*
X003680Y002430D02*
X002680Y002430D01*
X002680Y008930D01*
X006680Y008930D01*
X006680Y002430D01*
X005680Y002430D01*
X005680Y001430D01*
X004680Y001430D01*
X004680Y002430D02*
X005680Y002430D01*
X005680Y001430D02*
X006680Y001430D01*
X006680Y002430D01*
D12*
X006365Y002757D02*
X006303Y002695D01*
X006365Y002757D02*
X006365Y002880D01*
X006303Y002942D01*
X006242Y002942D01*
X006180Y002880D01*
X006180Y002757D01*
X006118Y002695D01*
X006056Y002695D01*
X005995Y002757D01*
X005995Y002880D01*
X006056Y002942D01*
X005365Y002818D02*
X005365Y002695D01*
X005365Y002757D02*
X004995Y002757D01*
X004995Y002818D02*
X004995Y002695D01*
X004365Y002757D02*
X004365Y002880D01*
X004303Y002942D01*
X004180Y002942D01*
X004180Y002818D01*
X004303Y002695D02*
X004056Y002695D01*
X003995Y002757D01*
X003995Y002880D01*
X004056Y002942D01*
X004303Y002695D02*
X004365Y002757D01*
X003365Y002757D02*
X003303Y002695D01*
X003056Y002695D01*
X002995Y002757D01*
X002995Y002880D01*
X003056Y002942D01*
X003303Y002942D01*
X003365Y002880D01*
X003365Y002757D01*
X003856Y016445D02*
X003918Y016445D01*
X003980Y016507D01*
X003980Y016630D01*
X004042Y016692D01*
X004103Y016692D01*
X004165Y016630D01*
X004165Y016507D01*
X004103Y016445D01*
X004165Y016813D02*
X004165Y017060D01*
X004165Y016937D02*
X003795Y016937D01*
X003918Y016813D01*
X003856Y016692D02*
X003795Y016630D01*
X003795Y016507D01*
X003856Y016445D01*
D13*
X004777Y020200D02*
X004700Y020277D01*
X004777Y020200D02*
X004930Y020200D01*
X005007Y020277D01*
X005007Y020353D01*
X004930Y020430D01*
X004777Y020430D01*
X004700Y020507D01*
X004700Y020584D01*
X004777Y020660D01*
X004930Y020660D01*
X005007Y020584D01*
X005160Y020584D02*
X005237Y020660D01*
X005391Y020660D01*
X005467Y020584D01*
X005467Y020507D01*
X005160Y020200D01*
X005467Y020200D01*
X009479Y007446D02*
X009479Y007139D01*
X009479Y007293D02*
X009019Y007293D01*
X009172Y007139D01*
X009095Y006986D02*
X009019Y006909D01*
X009019Y006756D01*
X009095Y006679D01*
X009172Y006679D01*
X009249Y006756D01*
X009249Y006909D01*
X009325Y006986D01*
X009402Y006986D01*
X009479Y006909D01*
X009479Y006756D01*
X009402Y006679D01*
X009402Y006525D02*
X009019Y006525D01*
X008942Y006832D02*
X009556Y006832D01*
X009402Y006525D02*
X009479Y006449D01*
X009479Y006295D01*
X009402Y006218D01*
X009019Y006218D01*
X008735Y003440D02*
X008735Y003200D01*
X008735Y003320D02*
X008375Y003320D01*
X008495Y003200D01*
X008555Y003072D02*
X008555Y002952D01*
X008555Y003072D02*
X008675Y003072D01*
X008735Y003012D01*
X008735Y002892D01*
X008675Y002832D01*
X008435Y002832D01*
X008375Y002892D01*
X008375Y003012D01*
X008435Y003072D01*
D14*
X009970Y002959D02*
X009970Y002819D01*
X010040Y002749D01*
X010110Y002749D01*
X010180Y002819D01*
X010180Y003029D01*
X010320Y003029D02*
X010040Y003029D01*
X009970Y002959D01*
X009970Y003210D02*
X010250Y003210D01*
X010390Y003350D01*
X010250Y003490D01*
X009970Y003490D01*
X010320Y003029D02*
X010390Y002959D01*
X010390Y002819D01*
X010320Y002749D01*
X007680Y016180D02*
X003680Y016180D01*
X003680Y018180D01*
X007680Y018180D01*
X007680Y016180D01*
X006861Y018491D02*
X004499Y018491D01*
X004499Y018589D01*
X004499Y019771D02*
X004499Y019869D01*
X006861Y019869D01*
X006861Y019771D01*
X006861Y018589D02*
X006861Y018491D01*
X006074Y018885D02*
X005286Y018885D01*
X005286Y019475D02*
X006074Y019475D01*
D15*
X010180Y004430D02*
X010180Y003930D01*
X010180Y002430D02*
X010180Y001930D01*
X009930Y002180D02*
X010430Y002180D01*
D16*
X010180Y001480D02*
X009880Y001180D01*
X008480Y001180D01*
X008180Y001480D01*
X008180Y004880D01*
X008480Y005180D01*
X009880Y005180D01*
X010180Y004880D01*
M02*
