G75*
%MOIN*%
%OFA0B0*%
%FSLAX25Y25*%
%IPPOS*%
%LPD*%
%AMOC8*
5,1,8,0,0,1.08239X$1,22.5*
%
%ADD10C,0.00000*%
%ADD11C,0.01600*%
%ADD12R,0.01975X0.05124*%
%ADD13R,0.04376X0.11187*%
%ADD14R,0.06306X0.12211*%
%ADD15R,0.06337X0.06337*%
%ADD16C,0.00975*%
%ADD17C,0.02956*%
%ADD18R,0.03156X0.07487*%
%ADD19R,0.04400X0.03156*%
%ADD20C,0.03600*%
%ADD21C,0.02169*%
%ADD22C,0.04137*%
%ADD23R,0.03746X0.27959*%
%ADD24R,0.05518X0.04928*%
D10*
X0002667Y0001800D02*
X0002667Y0300700D01*
X0081667Y0300700D01*
X0081667Y0001800D01*
X0002667Y0001800D01*
X0034567Y0244300D02*
X0034569Y0244380D01*
X0034575Y0244459D01*
X0034585Y0244538D01*
X0034599Y0244617D01*
X0034616Y0244695D01*
X0034638Y0244772D01*
X0034663Y0244847D01*
X0034693Y0244921D01*
X0034725Y0244994D01*
X0034762Y0245065D01*
X0034802Y0245134D01*
X0034845Y0245201D01*
X0034892Y0245266D01*
X0034941Y0245328D01*
X0034994Y0245388D01*
X0035050Y0245445D01*
X0035108Y0245500D01*
X0035169Y0245551D01*
X0035233Y0245599D01*
X0035299Y0245644D01*
X0035367Y0245686D01*
X0035437Y0245724D01*
X0035509Y0245758D01*
X0035582Y0245789D01*
X0035657Y0245817D01*
X0035734Y0245840D01*
X0035811Y0245860D01*
X0035889Y0245876D01*
X0035968Y0245888D01*
X0036047Y0245896D01*
X0036127Y0245900D01*
X0036207Y0245900D01*
X0036287Y0245896D01*
X0036366Y0245888D01*
X0036445Y0245876D01*
X0036523Y0245860D01*
X0036600Y0245840D01*
X0036677Y0245817D01*
X0036752Y0245789D01*
X0036825Y0245758D01*
X0036897Y0245724D01*
X0036967Y0245686D01*
X0037035Y0245644D01*
X0037101Y0245599D01*
X0037165Y0245551D01*
X0037226Y0245500D01*
X0037284Y0245445D01*
X0037340Y0245388D01*
X0037393Y0245328D01*
X0037442Y0245266D01*
X0037489Y0245201D01*
X0037532Y0245134D01*
X0037572Y0245065D01*
X0037609Y0244994D01*
X0037641Y0244921D01*
X0037671Y0244847D01*
X0037696Y0244772D01*
X0037718Y0244695D01*
X0037735Y0244617D01*
X0037749Y0244538D01*
X0037759Y0244459D01*
X0037765Y0244380D01*
X0037767Y0244300D01*
X0037765Y0244220D01*
X0037759Y0244141D01*
X0037749Y0244062D01*
X0037735Y0243983D01*
X0037718Y0243905D01*
X0037696Y0243828D01*
X0037671Y0243753D01*
X0037641Y0243679D01*
X0037609Y0243606D01*
X0037572Y0243535D01*
X0037532Y0243466D01*
X0037489Y0243399D01*
X0037442Y0243334D01*
X0037393Y0243272D01*
X0037340Y0243212D01*
X0037284Y0243155D01*
X0037226Y0243100D01*
X0037165Y0243049D01*
X0037101Y0243001D01*
X0037035Y0242956D01*
X0036967Y0242914D01*
X0036897Y0242876D01*
X0036825Y0242842D01*
X0036752Y0242811D01*
X0036677Y0242783D01*
X0036600Y0242760D01*
X0036523Y0242740D01*
X0036445Y0242724D01*
X0036366Y0242712D01*
X0036287Y0242704D01*
X0036207Y0242700D01*
X0036127Y0242700D01*
X0036047Y0242704D01*
X0035968Y0242712D01*
X0035889Y0242724D01*
X0035811Y0242740D01*
X0035734Y0242760D01*
X0035657Y0242783D01*
X0035582Y0242811D01*
X0035509Y0242842D01*
X0035437Y0242876D01*
X0035367Y0242914D01*
X0035299Y0242956D01*
X0035233Y0243001D01*
X0035169Y0243049D01*
X0035108Y0243100D01*
X0035050Y0243155D01*
X0034994Y0243212D01*
X0034941Y0243272D01*
X0034892Y0243334D01*
X0034845Y0243399D01*
X0034802Y0243466D01*
X0034762Y0243535D01*
X0034725Y0243606D01*
X0034693Y0243679D01*
X0034663Y0243753D01*
X0034638Y0243828D01*
X0034616Y0243905D01*
X0034599Y0243983D01*
X0034585Y0244062D01*
X0034575Y0244141D01*
X0034569Y0244220D01*
X0034567Y0244300D01*
X0046567Y0244300D02*
X0046569Y0244380D01*
X0046575Y0244459D01*
X0046585Y0244538D01*
X0046599Y0244617D01*
X0046616Y0244695D01*
X0046638Y0244772D01*
X0046663Y0244847D01*
X0046693Y0244921D01*
X0046725Y0244994D01*
X0046762Y0245065D01*
X0046802Y0245134D01*
X0046845Y0245201D01*
X0046892Y0245266D01*
X0046941Y0245328D01*
X0046994Y0245388D01*
X0047050Y0245445D01*
X0047108Y0245500D01*
X0047169Y0245551D01*
X0047233Y0245599D01*
X0047299Y0245644D01*
X0047367Y0245686D01*
X0047437Y0245724D01*
X0047509Y0245758D01*
X0047582Y0245789D01*
X0047657Y0245817D01*
X0047734Y0245840D01*
X0047811Y0245860D01*
X0047889Y0245876D01*
X0047968Y0245888D01*
X0048047Y0245896D01*
X0048127Y0245900D01*
X0048207Y0245900D01*
X0048287Y0245896D01*
X0048366Y0245888D01*
X0048445Y0245876D01*
X0048523Y0245860D01*
X0048600Y0245840D01*
X0048677Y0245817D01*
X0048752Y0245789D01*
X0048825Y0245758D01*
X0048897Y0245724D01*
X0048967Y0245686D01*
X0049035Y0245644D01*
X0049101Y0245599D01*
X0049165Y0245551D01*
X0049226Y0245500D01*
X0049284Y0245445D01*
X0049340Y0245388D01*
X0049393Y0245328D01*
X0049442Y0245266D01*
X0049489Y0245201D01*
X0049532Y0245134D01*
X0049572Y0245065D01*
X0049609Y0244994D01*
X0049641Y0244921D01*
X0049671Y0244847D01*
X0049696Y0244772D01*
X0049718Y0244695D01*
X0049735Y0244617D01*
X0049749Y0244538D01*
X0049759Y0244459D01*
X0049765Y0244380D01*
X0049767Y0244300D01*
X0049765Y0244220D01*
X0049759Y0244141D01*
X0049749Y0244062D01*
X0049735Y0243983D01*
X0049718Y0243905D01*
X0049696Y0243828D01*
X0049671Y0243753D01*
X0049641Y0243679D01*
X0049609Y0243606D01*
X0049572Y0243535D01*
X0049532Y0243466D01*
X0049489Y0243399D01*
X0049442Y0243334D01*
X0049393Y0243272D01*
X0049340Y0243212D01*
X0049284Y0243155D01*
X0049226Y0243100D01*
X0049165Y0243049D01*
X0049101Y0243001D01*
X0049035Y0242956D01*
X0048967Y0242914D01*
X0048897Y0242876D01*
X0048825Y0242842D01*
X0048752Y0242811D01*
X0048677Y0242783D01*
X0048600Y0242760D01*
X0048523Y0242740D01*
X0048445Y0242724D01*
X0048366Y0242712D01*
X0048287Y0242704D01*
X0048207Y0242700D01*
X0048127Y0242700D01*
X0048047Y0242704D01*
X0047968Y0242712D01*
X0047889Y0242724D01*
X0047811Y0242740D01*
X0047734Y0242760D01*
X0047657Y0242783D01*
X0047582Y0242811D01*
X0047509Y0242842D01*
X0047437Y0242876D01*
X0047367Y0242914D01*
X0047299Y0242956D01*
X0047233Y0243001D01*
X0047169Y0243049D01*
X0047108Y0243100D01*
X0047050Y0243155D01*
X0046994Y0243212D01*
X0046941Y0243272D01*
X0046892Y0243334D01*
X0046845Y0243399D01*
X0046802Y0243466D01*
X0046762Y0243535D01*
X0046725Y0243606D01*
X0046693Y0243679D01*
X0046663Y0243753D01*
X0046638Y0243828D01*
X0046616Y0243905D01*
X0046599Y0243983D01*
X0046585Y0244062D01*
X0046575Y0244141D01*
X0046569Y0244220D01*
X0046567Y0244300D01*
D11*
X0049667Y0204800D02*
X0037167Y0204800D01*
X0037167Y0194300D01*
X0049667Y0194300D01*
X0049667Y0204800D01*
X0049667Y0204030D02*
X0037167Y0204030D01*
X0037167Y0202432D02*
X0049667Y0202432D01*
X0049667Y0200833D02*
X0037167Y0200833D01*
X0037167Y0199235D02*
X0049667Y0199235D01*
X0049667Y0197636D02*
X0037167Y0197636D01*
X0037167Y0196038D02*
X0049667Y0196038D01*
X0049667Y0194439D02*
X0037167Y0194439D01*
D12*
X0037269Y0187883D03*
X0034710Y0187883D03*
X0032151Y0187883D03*
X0029592Y0187883D03*
X0027033Y0187883D03*
X0027033Y0210717D03*
X0029592Y0210717D03*
X0032151Y0210717D03*
X0034710Y0210717D03*
X0037269Y0210717D03*
X0039828Y0210717D03*
X0042387Y0210717D03*
X0044946Y0210717D03*
X0047505Y0210717D03*
X0050064Y0210717D03*
X0052623Y0210717D03*
X0055182Y0210717D03*
X0057741Y0210717D03*
X0060301Y0210717D03*
X0060301Y0187883D03*
X0057741Y0187883D03*
X0055182Y0187883D03*
X0052623Y0187883D03*
X0050064Y0187883D03*
X0047505Y0187883D03*
X0044946Y0187883D03*
X0042387Y0187883D03*
X0039828Y0187883D03*
D13*
X0038230Y0262906D03*
X0046104Y0262906D03*
X0053978Y0262906D03*
X0030356Y0262906D03*
D14*
X0020907Y0292434D03*
X0063427Y0292434D03*
D15*
X0056667Y0172300D03*
X0046667Y0172300D03*
X0036667Y0172300D03*
X0026667Y0172300D03*
X0027167Y0049800D03*
X0037167Y0049800D03*
X0047167Y0049800D03*
X0057167Y0049800D03*
D16*
X0018130Y0182337D02*
X0018130Y0185263D01*
X0018130Y0182337D02*
X0015204Y0182337D01*
X0015204Y0185263D01*
X0018130Y0185263D01*
X0018130Y0183311D02*
X0015204Y0183311D01*
X0015204Y0184285D02*
X0018130Y0184285D01*
X0018130Y0185259D02*
X0015204Y0185259D01*
X0018130Y0188337D02*
X0018130Y0191263D01*
X0018130Y0188337D02*
X0015204Y0188337D01*
X0015204Y0191263D01*
X0018130Y0191263D01*
X0018130Y0189311D02*
X0015204Y0189311D01*
X0015204Y0190285D02*
X0018130Y0190285D01*
X0018130Y0191259D02*
X0015204Y0191259D01*
X0014204Y0198263D02*
X0017130Y0198263D01*
X0017130Y0195337D01*
X0014204Y0195337D01*
X0014204Y0198263D01*
X0014204Y0196311D02*
X0017130Y0196311D01*
X0017130Y0197285D02*
X0014204Y0197285D01*
X0014204Y0198259D02*
X0017130Y0198259D01*
X0017130Y0215337D02*
X0014204Y0215337D01*
X0014204Y0218263D01*
X0017130Y0218263D01*
X0017130Y0215337D01*
X0017130Y0216311D02*
X0014204Y0216311D01*
X0014204Y0217285D02*
X0017130Y0217285D01*
X0017130Y0218259D02*
X0014204Y0218259D01*
X0011130Y0215337D02*
X0008204Y0215337D01*
X0008204Y0218263D01*
X0011130Y0218263D01*
X0011130Y0215337D01*
X0011130Y0216311D02*
X0008204Y0216311D01*
X0008204Y0217285D02*
X0011130Y0217285D01*
X0011130Y0218259D02*
X0008204Y0218259D01*
X0008204Y0198263D02*
X0011130Y0198263D01*
X0011130Y0195337D01*
X0008204Y0195337D01*
X0008204Y0198263D01*
X0008204Y0196311D02*
X0011130Y0196311D01*
X0011130Y0197285D02*
X0008204Y0197285D01*
X0008204Y0198259D02*
X0011130Y0198259D01*
X0008204Y0191263D02*
X0008204Y0188337D01*
X0008204Y0191263D02*
X0011130Y0191263D01*
X0011130Y0188337D01*
X0008204Y0188337D01*
X0008204Y0189311D02*
X0011130Y0189311D01*
X0011130Y0190285D02*
X0008204Y0190285D01*
X0008204Y0191259D02*
X0011130Y0191259D01*
X0008204Y0185263D02*
X0008204Y0182337D01*
X0008204Y0185263D02*
X0011130Y0185263D01*
X0011130Y0182337D01*
X0008204Y0182337D01*
X0008204Y0183311D02*
X0011130Y0183311D01*
X0011130Y0184285D02*
X0008204Y0184285D01*
X0008204Y0185259D02*
X0011130Y0185259D01*
X0008204Y0178763D02*
X0008204Y0175837D01*
X0008204Y0178763D02*
X0011130Y0178763D01*
X0011130Y0175837D01*
X0008204Y0175837D01*
X0008204Y0176811D02*
X0011130Y0176811D01*
X0011130Y0177785D02*
X0008204Y0177785D01*
X0008204Y0178759D02*
X0011130Y0178759D01*
X0008204Y0172763D02*
X0008204Y0169837D01*
X0008204Y0172763D02*
X0011130Y0172763D01*
X0011130Y0169837D01*
X0008204Y0169837D01*
X0008204Y0170811D02*
X0011130Y0170811D01*
X0011130Y0171785D02*
X0008204Y0171785D01*
X0008204Y0172759D02*
X0011130Y0172759D01*
D17*
X0013616Y0129751D02*
X0007512Y0129751D01*
X0007512Y0132707D01*
X0013616Y0132707D01*
X0013616Y0129751D01*
X0013616Y0132706D02*
X0007512Y0132706D01*
X0007512Y0121877D02*
X0013616Y0121877D01*
X0007512Y0121877D02*
X0007512Y0124833D01*
X0013616Y0124833D01*
X0013616Y0121877D01*
X0013616Y0124832D02*
X0007512Y0124832D01*
X0007512Y0114003D02*
X0013616Y0114003D01*
X0007512Y0114003D02*
X0007512Y0116959D01*
X0013616Y0116959D01*
X0013616Y0114003D01*
X0013616Y0116958D02*
X0007512Y0116958D01*
X0007512Y0106129D02*
X0013616Y0106129D01*
X0007512Y0106129D02*
X0007512Y0109085D01*
X0013616Y0109085D01*
X0013616Y0106129D01*
X0013616Y0109084D02*
X0007512Y0109084D01*
X0007512Y0098255D02*
X0013616Y0098255D01*
X0007512Y0098255D02*
X0007512Y0101211D01*
X0013616Y0101211D01*
X0013616Y0098255D01*
X0013616Y0101210D02*
X0007512Y0101210D01*
X0007512Y0090381D02*
X0013616Y0090381D01*
X0007512Y0090381D02*
X0007512Y0093337D01*
X0013616Y0093337D01*
X0013616Y0090381D01*
X0013616Y0093336D02*
X0007512Y0093336D01*
X0007512Y0082507D02*
X0013616Y0082507D01*
X0007512Y0082507D02*
X0007512Y0085463D01*
X0013616Y0085463D01*
X0013616Y0082507D01*
X0013616Y0085462D02*
X0007512Y0085462D01*
X0007512Y0074633D02*
X0013616Y0074633D01*
X0007512Y0074633D02*
X0007512Y0077589D01*
X0013616Y0077589D01*
X0013616Y0074633D01*
X0013616Y0077588D02*
X0007512Y0077588D01*
X0017354Y0064398D02*
X0020310Y0064398D01*
X0017354Y0064398D02*
X0017354Y0070502D01*
X0020310Y0070502D01*
X0020310Y0064398D01*
X0020310Y0067353D02*
X0017354Y0067353D01*
X0017354Y0070308D02*
X0020310Y0070308D01*
X0025228Y0064398D02*
X0028184Y0064398D01*
X0025228Y0064398D02*
X0025228Y0070502D01*
X0028184Y0070502D01*
X0028184Y0064398D01*
X0028184Y0067353D02*
X0025228Y0067353D01*
X0025228Y0070308D02*
X0028184Y0070308D01*
X0033102Y0064398D02*
X0036058Y0064398D01*
X0033102Y0064398D02*
X0033102Y0070502D01*
X0036058Y0070502D01*
X0036058Y0064398D01*
X0036058Y0067353D02*
X0033102Y0067353D01*
X0033102Y0070308D02*
X0036058Y0070308D01*
X0040976Y0064398D02*
X0043932Y0064398D01*
X0040976Y0064398D02*
X0040976Y0070502D01*
X0043932Y0070502D01*
X0043932Y0064398D01*
X0043932Y0067353D02*
X0040976Y0067353D01*
X0040976Y0070308D02*
X0043932Y0070308D01*
X0048850Y0064398D02*
X0051806Y0064398D01*
X0048850Y0064398D02*
X0048850Y0070502D01*
X0051806Y0070502D01*
X0051806Y0064398D01*
X0051806Y0067353D02*
X0048850Y0067353D01*
X0048850Y0070308D02*
X0051806Y0070308D01*
X0056724Y0064398D02*
X0059680Y0064398D01*
X0056724Y0064398D02*
X0056724Y0070502D01*
X0059680Y0070502D01*
X0059680Y0064398D01*
X0059680Y0067353D02*
X0056724Y0067353D01*
X0056724Y0070308D02*
X0059680Y0070308D01*
X0064598Y0064398D02*
X0067554Y0064398D01*
X0064598Y0064398D02*
X0064598Y0070502D01*
X0067554Y0070502D01*
X0067554Y0064398D01*
X0067554Y0067353D02*
X0064598Y0067353D01*
X0064598Y0070308D02*
X0067554Y0070308D01*
X0071292Y0074239D02*
X0077396Y0074239D01*
X0071292Y0074239D02*
X0071292Y0077195D01*
X0077396Y0077195D01*
X0077396Y0074239D01*
X0077396Y0077194D02*
X0071292Y0077194D01*
X0071292Y0082507D02*
X0077396Y0082507D01*
X0071292Y0082507D02*
X0071292Y0085463D01*
X0077396Y0085463D01*
X0077396Y0082507D01*
X0077396Y0085462D02*
X0071292Y0085462D01*
X0071292Y0089987D02*
X0077396Y0089987D01*
X0071292Y0089987D02*
X0071292Y0092943D01*
X0077396Y0092943D01*
X0077396Y0089987D01*
X0077396Y0092942D02*
X0071292Y0092942D01*
X0071292Y0098255D02*
X0077396Y0098255D01*
X0071292Y0098255D02*
X0071292Y0101211D01*
X0077396Y0101211D01*
X0077396Y0098255D01*
X0077396Y0101210D02*
X0071292Y0101210D01*
X0071292Y0106129D02*
X0077396Y0106129D01*
X0071292Y0106129D02*
X0071292Y0109085D01*
X0077396Y0109085D01*
X0077396Y0106129D01*
X0077396Y0109084D02*
X0071292Y0109084D01*
X0071292Y0114003D02*
X0077396Y0114003D01*
X0071292Y0114003D02*
X0071292Y0116959D01*
X0077396Y0116959D01*
X0077396Y0114003D01*
X0077396Y0116958D02*
X0071292Y0116958D01*
X0071292Y0121877D02*
X0077396Y0121877D01*
X0071292Y0121877D02*
X0071292Y0124833D01*
X0077396Y0124833D01*
X0077396Y0121877D01*
X0077396Y0124832D02*
X0071292Y0124832D01*
X0071292Y0129751D02*
X0077396Y0129751D01*
X0071292Y0129751D02*
X0071292Y0132707D01*
X0077396Y0132707D01*
X0077396Y0129751D01*
X0077396Y0132706D02*
X0071292Y0132706D01*
X0071292Y0137625D02*
X0077396Y0137625D01*
X0071292Y0137625D02*
X0071292Y0140581D01*
X0077396Y0140581D01*
X0077396Y0137625D01*
X0077396Y0140580D02*
X0071292Y0140580D01*
X0071292Y0145499D02*
X0077396Y0145499D01*
X0071292Y0145499D02*
X0071292Y0148455D01*
X0077396Y0148455D01*
X0077396Y0145499D01*
X0077396Y0148454D02*
X0071292Y0148454D01*
X0051806Y0152193D02*
X0048850Y0152193D01*
X0048850Y0158297D01*
X0051806Y0158297D01*
X0051806Y0152193D01*
X0051806Y0155148D02*
X0048850Y0155148D01*
X0048850Y0158103D02*
X0051806Y0158103D01*
X0043932Y0152193D02*
X0040976Y0152193D01*
X0040976Y0158297D01*
X0043932Y0158297D01*
X0043932Y0152193D01*
X0043932Y0155148D02*
X0040976Y0155148D01*
X0040976Y0158103D02*
X0043932Y0158103D01*
X0036058Y0152193D02*
X0033102Y0152193D01*
X0033102Y0158297D01*
X0036058Y0158297D01*
X0036058Y0152193D01*
X0036058Y0155148D02*
X0033102Y0155148D01*
X0033102Y0158103D02*
X0036058Y0158103D01*
D18*
X0033167Y0252087D03*
X0045167Y0252087D03*
X0051167Y0252087D03*
D19*
X0056667Y0248828D03*
X0056667Y0239772D03*
X0027667Y0239772D03*
X0027667Y0248828D03*
D20*
X0036167Y0244300D03*
X0048167Y0244300D03*
D21*
X0026188Y0042002D02*
X0026188Y0029598D01*
X0024020Y0029598D01*
X0024020Y0042002D01*
X0026188Y0042002D01*
X0026188Y0031766D02*
X0024020Y0031766D01*
X0024020Y0033934D02*
X0026188Y0033934D01*
X0026188Y0036102D02*
X0024020Y0036102D01*
X0024020Y0038270D02*
X0026188Y0038270D01*
X0026188Y0040438D02*
X0024020Y0040438D01*
X0018314Y0042002D02*
X0018314Y0029598D01*
X0016146Y0029598D01*
X0016146Y0042002D01*
X0018314Y0042002D01*
X0018314Y0031766D02*
X0016146Y0031766D01*
X0016146Y0033934D02*
X0018314Y0033934D01*
X0018314Y0036102D02*
X0016146Y0036102D01*
X0016146Y0038270D02*
X0018314Y0038270D01*
X0018314Y0040438D02*
X0016146Y0040438D01*
D22*
X0009850Y0010569D02*
X0009850Y0004857D01*
X0005712Y0004857D01*
X0005712Y0010569D01*
X0009850Y0010569D01*
X0009850Y0008993D02*
X0005712Y0008993D01*
X0036621Y0010569D02*
X0036621Y0004857D01*
X0032483Y0004857D01*
X0032483Y0010569D01*
X0036621Y0010569D01*
X0036621Y0008993D02*
X0032483Y0008993D01*
D23*
X0043903Y0027800D03*
X0049808Y0027800D03*
X0055714Y0027800D03*
X0061619Y0027800D03*
X0067525Y0027800D03*
X0073430Y0027800D03*
D24*
X0049844Y0227068D03*
X0049844Y0235532D03*
X0034489Y0235532D03*
X0034489Y0227068D03*
M02*
