%
M48
M72
T01C0.01378
T02C0.01575
T03C0.03200
T04C0.03937
%
T01
X25667Y262800
X38167Y252300
X46167Y274800
X39667Y215800
X39667Y203300
X39667Y195300
X43667Y199300
X47667Y195300
X47667Y203300
X52667Y182300
X59167Y216300
X43167Y140300
X33667Y179800
X30667Y199800
X26667Y199800
X21667Y210800
X26667Y178800
X9667Y164800
X9667Y209800
X10667Y69800
X9667Y56800
X13167Y48800
X44667Y8300
X61167Y75800
X59667Y87800
X75167Y49300
T02
X22667Y19300
X30667Y37800
X72667Y261800
X14667Y251800
T03
X36167Y244300
X48167Y244300
T04
X46667Y172300
X36667Y172300
X26667Y172300
X56667Y172300
X57167Y49800
X47167Y49800
X37167Y49800
X27167Y49800
M30
