G75*
%MOIN*%
%OFA0B0*%
%FSLAX25Y25*%
%IPPOS*%
%LPD*%
%AMOC8*
5,1,8,0,0,1.08239X$1,22.5*
%
%ADD10C,0.00000*%
%ADD11C,0.00800*%
%ADD12C,0.00400*%
%ADD13C,0.01000*%
%ADD14C,0.00500*%
%ADD15C,0.00300*%
%ADD16R,0.10000X0.05000*%
D10*
X0002667Y0001800D02*
X0002667Y0300700D01*
X0081667Y0300700D01*
X0081667Y0001800D01*
X0002667Y0001800D01*
X0034567Y0244300D02*
X0034569Y0244380D01*
X0034575Y0244459D01*
X0034585Y0244538D01*
X0034599Y0244617D01*
X0034616Y0244695D01*
X0034638Y0244772D01*
X0034663Y0244847D01*
X0034693Y0244921D01*
X0034725Y0244994D01*
X0034762Y0245065D01*
X0034802Y0245134D01*
X0034845Y0245201D01*
X0034892Y0245266D01*
X0034941Y0245328D01*
X0034994Y0245388D01*
X0035050Y0245445D01*
X0035108Y0245500D01*
X0035169Y0245551D01*
X0035233Y0245599D01*
X0035299Y0245644D01*
X0035367Y0245686D01*
X0035437Y0245724D01*
X0035509Y0245758D01*
X0035582Y0245789D01*
X0035657Y0245817D01*
X0035734Y0245840D01*
X0035811Y0245860D01*
X0035889Y0245876D01*
X0035968Y0245888D01*
X0036047Y0245896D01*
X0036127Y0245900D01*
X0036207Y0245900D01*
X0036287Y0245896D01*
X0036366Y0245888D01*
X0036445Y0245876D01*
X0036523Y0245860D01*
X0036600Y0245840D01*
X0036677Y0245817D01*
X0036752Y0245789D01*
X0036825Y0245758D01*
X0036897Y0245724D01*
X0036967Y0245686D01*
X0037035Y0245644D01*
X0037101Y0245599D01*
X0037165Y0245551D01*
X0037226Y0245500D01*
X0037284Y0245445D01*
X0037340Y0245388D01*
X0037393Y0245328D01*
X0037442Y0245266D01*
X0037489Y0245201D01*
X0037532Y0245134D01*
X0037572Y0245065D01*
X0037609Y0244994D01*
X0037641Y0244921D01*
X0037671Y0244847D01*
X0037696Y0244772D01*
X0037718Y0244695D01*
X0037735Y0244617D01*
X0037749Y0244538D01*
X0037759Y0244459D01*
X0037765Y0244380D01*
X0037767Y0244300D01*
X0037765Y0244220D01*
X0037759Y0244141D01*
X0037749Y0244062D01*
X0037735Y0243983D01*
X0037718Y0243905D01*
X0037696Y0243828D01*
X0037671Y0243753D01*
X0037641Y0243679D01*
X0037609Y0243606D01*
X0037572Y0243535D01*
X0037532Y0243466D01*
X0037489Y0243399D01*
X0037442Y0243334D01*
X0037393Y0243272D01*
X0037340Y0243212D01*
X0037284Y0243155D01*
X0037226Y0243100D01*
X0037165Y0243049D01*
X0037101Y0243001D01*
X0037035Y0242956D01*
X0036967Y0242914D01*
X0036897Y0242876D01*
X0036825Y0242842D01*
X0036752Y0242811D01*
X0036677Y0242783D01*
X0036600Y0242760D01*
X0036523Y0242740D01*
X0036445Y0242724D01*
X0036366Y0242712D01*
X0036287Y0242704D01*
X0036207Y0242700D01*
X0036127Y0242700D01*
X0036047Y0242704D01*
X0035968Y0242712D01*
X0035889Y0242724D01*
X0035811Y0242740D01*
X0035734Y0242760D01*
X0035657Y0242783D01*
X0035582Y0242811D01*
X0035509Y0242842D01*
X0035437Y0242876D01*
X0035367Y0242914D01*
X0035299Y0242956D01*
X0035233Y0243001D01*
X0035169Y0243049D01*
X0035108Y0243100D01*
X0035050Y0243155D01*
X0034994Y0243212D01*
X0034941Y0243272D01*
X0034892Y0243334D01*
X0034845Y0243399D01*
X0034802Y0243466D01*
X0034762Y0243535D01*
X0034725Y0243606D01*
X0034693Y0243679D01*
X0034663Y0243753D01*
X0034638Y0243828D01*
X0034616Y0243905D01*
X0034599Y0243983D01*
X0034585Y0244062D01*
X0034575Y0244141D01*
X0034569Y0244220D01*
X0034567Y0244300D01*
X0046567Y0244300D02*
X0046569Y0244380D01*
X0046575Y0244459D01*
X0046585Y0244538D01*
X0046599Y0244617D01*
X0046616Y0244695D01*
X0046638Y0244772D01*
X0046663Y0244847D01*
X0046693Y0244921D01*
X0046725Y0244994D01*
X0046762Y0245065D01*
X0046802Y0245134D01*
X0046845Y0245201D01*
X0046892Y0245266D01*
X0046941Y0245328D01*
X0046994Y0245388D01*
X0047050Y0245445D01*
X0047108Y0245500D01*
X0047169Y0245551D01*
X0047233Y0245599D01*
X0047299Y0245644D01*
X0047367Y0245686D01*
X0047437Y0245724D01*
X0047509Y0245758D01*
X0047582Y0245789D01*
X0047657Y0245817D01*
X0047734Y0245840D01*
X0047811Y0245860D01*
X0047889Y0245876D01*
X0047968Y0245888D01*
X0048047Y0245896D01*
X0048127Y0245900D01*
X0048207Y0245900D01*
X0048287Y0245896D01*
X0048366Y0245888D01*
X0048445Y0245876D01*
X0048523Y0245860D01*
X0048600Y0245840D01*
X0048677Y0245817D01*
X0048752Y0245789D01*
X0048825Y0245758D01*
X0048897Y0245724D01*
X0048967Y0245686D01*
X0049035Y0245644D01*
X0049101Y0245599D01*
X0049165Y0245551D01*
X0049226Y0245500D01*
X0049284Y0245445D01*
X0049340Y0245388D01*
X0049393Y0245328D01*
X0049442Y0245266D01*
X0049489Y0245201D01*
X0049532Y0245134D01*
X0049572Y0245065D01*
X0049609Y0244994D01*
X0049641Y0244921D01*
X0049671Y0244847D01*
X0049696Y0244772D01*
X0049718Y0244695D01*
X0049735Y0244617D01*
X0049749Y0244538D01*
X0049759Y0244459D01*
X0049765Y0244380D01*
X0049767Y0244300D01*
X0049765Y0244220D01*
X0049759Y0244141D01*
X0049749Y0244062D01*
X0049735Y0243983D01*
X0049718Y0243905D01*
X0049696Y0243828D01*
X0049671Y0243753D01*
X0049641Y0243679D01*
X0049609Y0243606D01*
X0049572Y0243535D01*
X0049532Y0243466D01*
X0049489Y0243399D01*
X0049442Y0243334D01*
X0049393Y0243272D01*
X0049340Y0243212D01*
X0049284Y0243155D01*
X0049226Y0243100D01*
X0049165Y0243049D01*
X0049101Y0243001D01*
X0049035Y0242956D01*
X0048967Y0242914D01*
X0048897Y0242876D01*
X0048825Y0242842D01*
X0048752Y0242811D01*
X0048677Y0242783D01*
X0048600Y0242760D01*
X0048523Y0242740D01*
X0048445Y0242724D01*
X0048366Y0242712D01*
X0048287Y0242704D01*
X0048207Y0242700D01*
X0048127Y0242700D01*
X0048047Y0242704D01*
X0047968Y0242712D01*
X0047889Y0242724D01*
X0047811Y0242740D01*
X0047734Y0242760D01*
X0047657Y0242783D01*
X0047582Y0242811D01*
X0047509Y0242842D01*
X0047437Y0242876D01*
X0047367Y0242914D01*
X0047299Y0242956D01*
X0047233Y0243001D01*
X0047169Y0243049D01*
X0047108Y0243100D01*
X0047050Y0243155D01*
X0046994Y0243212D01*
X0046941Y0243272D01*
X0046892Y0243334D01*
X0046845Y0243399D01*
X0046802Y0243466D01*
X0046762Y0243535D01*
X0046725Y0243606D01*
X0046693Y0243679D01*
X0046663Y0243753D01*
X0046638Y0243828D01*
X0046616Y0243905D01*
X0046599Y0243983D01*
X0046585Y0244062D01*
X0046575Y0244141D01*
X0046569Y0244220D01*
X0046567Y0244300D01*
D11*
X0062564Y0207765D02*
X0062564Y0190835D01*
X0024769Y0190835D01*
X0024769Y0207765D01*
X0062564Y0207765D01*
X0027328Y0194182D02*
X0027330Y0194253D01*
X0027336Y0194324D01*
X0027346Y0194395D01*
X0027360Y0194464D01*
X0027377Y0194533D01*
X0027399Y0194601D01*
X0027424Y0194668D01*
X0027453Y0194733D01*
X0027485Y0194796D01*
X0027521Y0194858D01*
X0027560Y0194917D01*
X0027603Y0194974D01*
X0027648Y0195029D01*
X0027697Y0195081D01*
X0027748Y0195130D01*
X0027802Y0195176D01*
X0027859Y0195220D01*
X0027917Y0195260D01*
X0027978Y0195296D01*
X0028041Y0195330D01*
X0028106Y0195359D01*
X0028172Y0195385D01*
X0028240Y0195408D01*
X0028308Y0195426D01*
X0028378Y0195441D01*
X0028448Y0195452D01*
X0028519Y0195459D01*
X0028590Y0195462D01*
X0028661Y0195461D01*
X0028732Y0195456D01*
X0028803Y0195447D01*
X0028873Y0195434D01*
X0028942Y0195418D01*
X0029010Y0195397D01*
X0029077Y0195373D01*
X0029143Y0195345D01*
X0029206Y0195313D01*
X0029268Y0195278D01*
X0029328Y0195240D01*
X0029386Y0195198D01*
X0029441Y0195154D01*
X0029494Y0195106D01*
X0029544Y0195055D01*
X0029591Y0195002D01*
X0029635Y0194946D01*
X0029676Y0194888D01*
X0029714Y0194827D01*
X0029748Y0194765D01*
X0029778Y0194700D01*
X0029805Y0194635D01*
X0029829Y0194567D01*
X0029848Y0194499D01*
X0029864Y0194430D01*
X0029876Y0194359D01*
X0029884Y0194289D01*
X0029888Y0194218D01*
X0029888Y0194146D01*
X0029884Y0194075D01*
X0029876Y0194005D01*
X0029864Y0193934D01*
X0029848Y0193865D01*
X0029829Y0193797D01*
X0029805Y0193729D01*
X0029778Y0193664D01*
X0029748Y0193599D01*
X0029714Y0193537D01*
X0029676Y0193476D01*
X0029635Y0193418D01*
X0029591Y0193362D01*
X0029544Y0193309D01*
X0029494Y0193258D01*
X0029441Y0193210D01*
X0029386Y0193166D01*
X0029328Y0193124D01*
X0029268Y0193086D01*
X0029206Y0193051D01*
X0029143Y0193019D01*
X0029077Y0192991D01*
X0029010Y0192967D01*
X0028942Y0192946D01*
X0028873Y0192930D01*
X0028803Y0192917D01*
X0028732Y0192908D01*
X0028661Y0192903D01*
X0028590Y0192902D01*
X0028519Y0192905D01*
X0028448Y0192912D01*
X0028378Y0192923D01*
X0028308Y0192938D01*
X0028240Y0192956D01*
X0028172Y0192979D01*
X0028106Y0193005D01*
X0028041Y0193034D01*
X0027978Y0193068D01*
X0027917Y0193104D01*
X0027859Y0193144D01*
X0027802Y0193188D01*
X0027748Y0193234D01*
X0027697Y0193283D01*
X0027648Y0193335D01*
X0027603Y0193390D01*
X0027560Y0193447D01*
X0027521Y0193506D01*
X0027485Y0193568D01*
X0027453Y0193631D01*
X0027424Y0193696D01*
X0027399Y0193763D01*
X0027377Y0193831D01*
X0027360Y0193900D01*
X0027346Y0193969D01*
X0027336Y0194040D01*
X0027330Y0194111D01*
X0027328Y0194182D01*
X0038785Y0030753D02*
X0038785Y0011855D01*
X0043903Y0011855D01*
X0043903Y0008902D01*
X0073430Y0008902D01*
X0073430Y0011855D01*
X0078549Y0011855D01*
X0078549Y0030753D01*
D12*
X0034845Y0020909D02*
X0034845Y0017840D01*
X0034845Y0016305D02*
X0030241Y0013236D01*
X0030241Y0016305D02*
X0034845Y0013236D01*
X0034845Y0019375D02*
X0030241Y0019375D01*
X0031775Y0017840D01*
X0019158Y0046500D02*
X0017089Y0046500D01*
X0019158Y0048568D01*
X0019158Y0049086D01*
X0018641Y0049603D01*
X0017607Y0049603D01*
X0017089Y0049086D01*
X0015935Y0049603D02*
X0014901Y0049603D01*
X0015418Y0049603D02*
X0015418Y0047017D01*
X0014901Y0046500D01*
X0014384Y0046500D01*
X0013867Y0047017D01*
X0005467Y0167000D02*
X0002364Y0167000D01*
X0002364Y0168551D01*
X0002881Y0169068D01*
X0003915Y0169068D01*
X0004432Y0168551D01*
X0004432Y0167000D01*
X0004432Y0168034D02*
X0005467Y0169068D01*
X0005467Y0171774D02*
X0002364Y0171774D01*
X0003915Y0170223D01*
X0003915Y0172291D01*
X0004432Y0179500D02*
X0004432Y0181051D01*
X0003915Y0181568D01*
X0002881Y0181568D01*
X0002364Y0181051D01*
X0002364Y0179500D01*
X0005467Y0179500D01*
X0004432Y0180534D02*
X0005467Y0181568D01*
X0004950Y0182723D02*
X0005467Y0183240D01*
X0005467Y0184274D01*
X0004950Y0184791D01*
X0004432Y0184791D01*
X0003915Y0184274D01*
X0003915Y0183757D01*
X0003915Y0184274D02*
X0003398Y0184791D01*
X0002881Y0184791D01*
X0002364Y0184274D01*
X0002364Y0183240D01*
X0002881Y0182723D01*
X0005367Y0201000D02*
X0005367Y0204103D01*
X0006918Y0204103D01*
X0007435Y0203586D01*
X0007435Y0202551D01*
X0006918Y0202034D01*
X0005367Y0202034D01*
X0006401Y0202034D02*
X0007435Y0201000D01*
X0008589Y0201000D02*
X0010658Y0203068D01*
X0010658Y0203586D01*
X0010141Y0204103D01*
X0009107Y0204103D01*
X0008589Y0203586D01*
X0008589Y0201000D02*
X0010658Y0201000D01*
X0013921Y0209500D02*
X0013921Y0212603D01*
X0015472Y0212603D01*
X0015990Y0212086D01*
X0015990Y0211051D01*
X0015472Y0210534D01*
X0013921Y0210534D01*
X0014955Y0210534D02*
X0015990Y0209500D01*
X0017144Y0210017D02*
X0017661Y0209500D01*
X0018695Y0209500D01*
X0019212Y0210017D01*
X0019212Y0211051D01*
X0018695Y0211568D01*
X0018178Y0211568D01*
X0017144Y0211051D01*
X0017144Y0212603D01*
X0019212Y0212603D01*
X0018390Y0199751D02*
X0022994Y0199751D01*
X0022994Y0198217D02*
X0022994Y0201286D01*
X0022227Y0196682D02*
X0022994Y0195915D01*
X0022994Y0194380D01*
X0022227Y0193613D01*
X0019158Y0193613D01*
X0018390Y0194380D01*
X0018390Y0195915D01*
X0019158Y0196682D01*
X0019925Y0198217D02*
X0018390Y0199751D01*
X0018390Y0192078D02*
X0018390Y0190543D01*
X0018390Y0191311D02*
X0022994Y0191311D01*
X0022994Y0192078D02*
X0022994Y0190543D01*
X0022415Y0190123D02*
X0022932Y0189606D01*
X0022932Y0188055D01*
X0022932Y0189089D02*
X0023967Y0190123D01*
X0023967Y0191277D02*
X0023967Y0193346D01*
X0023967Y0192311D02*
X0020864Y0192311D01*
X0021898Y0191277D01*
X0021381Y0190123D02*
X0022415Y0190123D01*
X0021381Y0190123D02*
X0020864Y0189606D01*
X0020864Y0188055D01*
X0023967Y0188055D01*
X0035384Y0239000D02*
X0034867Y0239517D01*
X0035384Y0239000D02*
X0036418Y0239000D01*
X0036935Y0239517D01*
X0036935Y0240034D01*
X0036418Y0240551D01*
X0035384Y0240551D01*
X0034867Y0241068D01*
X0034867Y0241586D01*
X0035384Y0242103D01*
X0036418Y0242103D01*
X0036935Y0241586D01*
X0038089Y0242103D02*
X0038089Y0239000D01*
X0039124Y0240034D01*
X0040158Y0239000D01*
X0040158Y0242103D01*
X0041312Y0241586D02*
X0041829Y0242103D01*
X0042863Y0242103D01*
X0043381Y0241586D01*
X0043381Y0241068D01*
X0041312Y0239000D01*
X0043381Y0239000D01*
X0043421Y0236603D02*
X0043421Y0233500D01*
X0044455Y0234534D01*
X0045490Y0233500D01*
X0045490Y0236603D01*
X0046644Y0235568D02*
X0047678Y0236603D01*
X0047678Y0233500D01*
X0046644Y0233500D02*
X0048712Y0233500D01*
X0042267Y0234017D02*
X0041750Y0233500D01*
X0040716Y0233500D01*
X0040198Y0234017D01*
X0040716Y0235051D02*
X0040198Y0235568D01*
X0040198Y0236086D01*
X0040716Y0236603D01*
X0041750Y0236603D01*
X0042267Y0236086D01*
X0041750Y0235051D02*
X0042267Y0234534D01*
X0042267Y0234017D01*
X0041750Y0235051D02*
X0040716Y0235051D01*
X0040158Y0298500D02*
X0038089Y0298500D01*
X0039124Y0298500D02*
X0039124Y0301603D01*
X0038089Y0300568D01*
X0036935Y0301603D02*
X0035901Y0301603D01*
X0036418Y0301603D02*
X0036418Y0299017D01*
X0035901Y0298500D01*
X0035384Y0298500D01*
X0034867Y0299017D01*
D13*
X0028781Y0299520D02*
X0028781Y0295583D01*
X0055552Y0295583D01*
X0055552Y0299520D01*
X0066182Y0299520D01*
X0066182Y0284816D02*
X0066182Y0269206D01*
X0066182Y0263300D01*
X0061852Y0263300D01*
X0061852Y0269206D01*
X0022482Y0269206D01*
X0022482Y0263300D01*
X0018151Y0263300D01*
X0018151Y0269206D01*
X0018151Y0284816D01*
X0018151Y0299520D02*
X0028781Y0299520D01*
X0022482Y0269206D02*
X0018151Y0269206D01*
X0061852Y0269206D02*
X0066182Y0269206D01*
D14*
X0055159Y0246662D02*
X0055159Y0241544D01*
X0054371Y0238800D02*
X0029962Y0238800D01*
X0029175Y0241544D02*
X0029175Y0247056D01*
X0029962Y0249812D02*
X0031537Y0249812D01*
X0035080Y0249812D02*
X0042954Y0249812D01*
X0046891Y0249812D02*
X0049253Y0249812D01*
X0052797Y0249812D02*
X0054371Y0249812D01*
X0050434Y0232875D02*
X0050434Y0229725D01*
X0046891Y0225001D02*
X0037442Y0225001D01*
X0040592Y0226969D02*
X0043741Y0226969D01*
X0043742Y0226969D02*
X0043865Y0226983D01*
X0043988Y0227001D01*
X0044111Y0227023D01*
X0044232Y0227049D01*
X0044353Y0227079D01*
X0044473Y0227112D01*
X0044591Y0227149D01*
X0044709Y0227190D01*
X0044825Y0227235D01*
X0044939Y0227283D01*
X0045052Y0227335D01*
X0045164Y0227390D01*
X0045273Y0227449D01*
X0045381Y0227511D01*
X0045486Y0227577D01*
X0045590Y0227645D01*
X0045691Y0227717D01*
X0045790Y0227793D01*
X0045887Y0227871D01*
X0045981Y0227952D01*
X0046072Y0228036D01*
X0046161Y0228123D01*
X0046247Y0228213D01*
X0046330Y0228305D01*
X0046411Y0228400D01*
X0046488Y0228498D01*
X0046562Y0228598D01*
X0046633Y0228700D01*
X0046700Y0228804D01*
X0046765Y0228910D01*
X0046826Y0229019D01*
X0046883Y0229129D01*
X0046937Y0229241D01*
X0046988Y0229354D01*
X0047035Y0229469D01*
X0047078Y0229586D01*
X0047118Y0229704D01*
X0047154Y0229823D01*
X0047186Y0229943D01*
X0047214Y0230064D01*
X0047239Y0230186D01*
X0047260Y0230308D01*
X0047276Y0230431D01*
X0047289Y0230555D01*
X0047298Y0230679D01*
X0047304Y0230803D01*
X0047305Y0230927D01*
X0047302Y0231052D01*
X0047296Y0231176D01*
X0047285Y0231300D01*
X0046891Y0237599D02*
X0037442Y0237599D01*
X0040592Y0235631D02*
X0043741Y0235631D01*
X0043742Y0235631D02*
X0043865Y0235617D01*
X0043988Y0235599D01*
X0044111Y0235577D01*
X0044232Y0235551D01*
X0044353Y0235521D01*
X0044473Y0235488D01*
X0044591Y0235451D01*
X0044709Y0235410D01*
X0044825Y0235365D01*
X0044939Y0235317D01*
X0045052Y0235265D01*
X0045164Y0235210D01*
X0045273Y0235151D01*
X0045381Y0235089D01*
X0045486Y0235023D01*
X0045590Y0234955D01*
X0045691Y0234883D01*
X0045790Y0234807D01*
X0045887Y0234729D01*
X0045981Y0234648D01*
X0046072Y0234564D01*
X0046161Y0234477D01*
X0046247Y0234387D01*
X0046330Y0234295D01*
X0046411Y0234200D01*
X0046488Y0234102D01*
X0046562Y0234002D01*
X0046633Y0233900D01*
X0046700Y0233796D01*
X0046765Y0233690D01*
X0046826Y0233581D01*
X0046883Y0233471D01*
X0046937Y0233359D01*
X0046988Y0233246D01*
X0047035Y0233131D01*
X0047078Y0233014D01*
X0047118Y0232896D01*
X0047154Y0232777D01*
X0047186Y0232657D01*
X0047214Y0232536D01*
X0047239Y0232414D01*
X0047260Y0232292D01*
X0047276Y0232169D01*
X0047289Y0232045D01*
X0047298Y0231921D01*
X0047304Y0231797D01*
X0047305Y0231673D01*
X0047302Y0231548D01*
X0047296Y0231424D01*
X0047285Y0231300D01*
X0040592Y0226969D02*
X0040469Y0226983D01*
X0040346Y0227001D01*
X0040223Y0227023D01*
X0040102Y0227049D01*
X0039981Y0227079D01*
X0039861Y0227112D01*
X0039743Y0227149D01*
X0039625Y0227190D01*
X0039509Y0227235D01*
X0039395Y0227283D01*
X0039282Y0227335D01*
X0039170Y0227390D01*
X0039061Y0227449D01*
X0038953Y0227511D01*
X0038848Y0227577D01*
X0038744Y0227645D01*
X0038643Y0227717D01*
X0038544Y0227793D01*
X0038447Y0227871D01*
X0038353Y0227952D01*
X0038262Y0228036D01*
X0038173Y0228123D01*
X0038087Y0228213D01*
X0038004Y0228305D01*
X0037923Y0228400D01*
X0037846Y0228498D01*
X0037772Y0228598D01*
X0037701Y0228700D01*
X0037634Y0228804D01*
X0037569Y0228910D01*
X0037508Y0229019D01*
X0037451Y0229129D01*
X0037397Y0229241D01*
X0037346Y0229354D01*
X0037299Y0229469D01*
X0037256Y0229586D01*
X0037216Y0229704D01*
X0037180Y0229823D01*
X0037148Y0229943D01*
X0037120Y0230064D01*
X0037095Y0230186D01*
X0037074Y0230308D01*
X0037058Y0230431D01*
X0037045Y0230555D01*
X0037036Y0230679D01*
X0037030Y0230803D01*
X0037029Y0230927D01*
X0037032Y0231052D01*
X0037038Y0231176D01*
X0037049Y0231300D01*
X0033899Y0232875D02*
X0033899Y0229725D01*
X0037049Y0231300D02*
X0037038Y0231424D01*
X0037032Y0231548D01*
X0037029Y0231673D01*
X0037030Y0231797D01*
X0037036Y0231921D01*
X0037045Y0232045D01*
X0037058Y0232169D01*
X0037074Y0232292D01*
X0037095Y0232414D01*
X0037120Y0232536D01*
X0037148Y0232657D01*
X0037180Y0232777D01*
X0037216Y0232896D01*
X0037256Y0233014D01*
X0037299Y0233131D01*
X0037346Y0233246D01*
X0037397Y0233359D01*
X0037451Y0233471D01*
X0037508Y0233581D01*
X0037569Y0233690D01*
X0037634Y0233796D01*
X0037701Y0233900D01*
X0037772Y0234002D01*
X0037846Y0234102D01*
X0037923Y0234200D01*
X0038004Y0234295D01*
X0038087Y0234387D01*
X0038173Y0234477D01*
X0038262Y0234564D01*
X0038353Y0234648D01*
X0038447Y0234729D01*
X0038544Y0234807D01*
X0038643Y0234883D01*
X0038744Y0234955D01*
X0038848Y0235023D01*
X0038953Y0235089D01*
X0039061Y0235151D01*
X0039170Y0235210D01*
X0039282Y0235265D01*
X0039395Y0235317D01*
X0039509Y0235365D01*
X0039625Y0235410D01*
X0039743Y0235451D01*
X0039861Y0235488D01*
X0039981Y0235521D01*
X0040102Y0235551D01*
X0040223Y0235577D01*
X0040346Y0235599D01*
X0040469Y0235617D01*
X0040592Y0235631D01*
X0041667Y0177300D02*
X0031667Y0177300D01*
X0031667Y0167300D01*
X0019167Y0167300D01*
X0019167Y0177300D01*
X0031667Y0177300D01*
X0031667Y0167300D02*
X0041667Y0167300D01*
X0041667Y0177300D01*
X0051667Y0177300D01*
X0051667Y0167300D01*
X0041667Y0167300D01*
X0051667Y0167300D02*
X0064167Y0167300D01*
X0064167Y0112300D01*
X0019167Y0112300D01*
X0019167Y0167300D01*
X0019167Y0181300D02*
X0014167Y0181300D01*
X0014167Y0192300D01*
X0019167Y0192300D01*
X0019167Y0181300D01*
X0018167Y0194300D02*
X0018167Y0199300D01*
X0007167Y0199300D01*
X0007167Y0194300D01*
X0018167Y0194300D01*
X0012167Y0192300D02*
X0012167Y0181300D01*
X0007167Y0181300D01*
X0007167Y0192300D01*
X0012167Y0192300D01*
X0012167Y0179800D02*
X0007167Y0179800D01*
X0007167Y0168800D01*
X0012167Y0168800D01*
X0012167Y0179800D01*
X0010667Y0154500D02*
X0010667Y0067800D01*
X0073667Y0067800D01*
X0073667Y0154500D01*
X0010667Y0154500D01*
X0019667Y0109800D02*
X0064667Y0109800D01*
X0064667Y0054800D01*
X0052167Y0054800D01*
X0052167Y0044800D01*
X0042167Y0044800D01*
X0042167Y0054800D01*
X0052167Y0054800D01*
X0052167Y0044800D02*
X0064667Y0044800D01*
X0064667Y0054800D01*
X0042167Y0054800D02*
X0032167Y0054800D01*
X0032167Y0044800D01*
X0019667Y0044800D01*
X0019667Y0054800D01*
X0032167Y0054800D01*
X0032167Y0044800D02*
X0042167Y0044800D01*
X0036915Y0035198D02*
X0036915Y0028111D01*
X0036915Y0013150D01*
X0036915Y0028111D02*
X0034552Y0028111D01*
X0034552Y0035198D01*
X0036915Y0035198D01*
X0034552Y0028111D02*
X0007781Y0028111D01*
X0007781Y0035198D01*
X0005419Y0035198D01*
X0005419Y0028111D01*
X0005419Y0013544D01*
X0005419Y0028111D02*
X0007781Y0028111D01*
X0012899Y0004489D02*
X0029828Y0004489D01*
X0019667Y0054800D02*
X0019667Y0109800D01*
X0018167Y0214300D02*
X0007167Y0214300D01*
X0007167Y0219300D01*
X0018167Y0219300D01*
X0018167Y0214300D01*
X0051667Y0177300D02*
X0064167Y0177300D01*
X0064167Y0167300D01*
D15*
X0058517Y0163118D02*
X0057899Y0163736D01*
X0055431Y0163736D01*
X0054813Y0163118D01*
X0054813Y0161884D01*
X0055431Y0161267D01*
X0057899Y0161267D01*
X0058517Y0161884D01*
X0058517Y0163118D01*
X0048517Y0163118D02*
X0047899Y0163736D01*
X0046665Y0163736D01*
X0046665Y0162501D01*
X0045431Y0161267D02*
X0047899Y0161267D01*
X0048517Y0161884D01*
X0048517Y0163118D01*
X0045431Y0163736D02*
X0044813Y0163118D01*
X0044813Y0161884D01*
X0045431Y0161267D01*
X0038517Y0162495D02*
X0038517Y0163729D01*
X0038517Y0163112D02*
X0034813Y0163112D01*
X0034813Y0162495D02*
X0034813Y0163729D01*
X0028517Y0163118D02*
X0028517Y0161884D01*
X0027899Y0161267D01*
X0026665Y0161884D02*
X0026665Y0163118D01*
X0027282Y0163736D01*
X0027899Y0163736D01*
X0028517Y0163118D01*
X0026665Y0161884D02*
X0026048Y0161267D01*
X0025431Y0161267D01*
X0024813Y0161884D01*
X0024813Y0163118D01*
X0025431Y0163736D01*
X0025931Y0059919D02*
X0025313Y0059302D01*
X0025313Y0058067D01*
X0025931Y0057450D01*
X0028399Y0057450D01*
X0029017Y0058067D01*
X0029017Y0059302D01*
X0028399Y0059919D01*
X0025931Y0059919D01*
X0035313Y0059302D02*
X0035313Y0058067D01*
X0035931Y0057450D01*
X0038399Y0057450D01*
X0039017Y0058067D01*
X0039017Y0059302D01*
X0038399Y0059919D01*
X0037165Y0059919D01*
X0037165Y0058684D01*
X0035931Y0059919D02*
X0035313Y0059302D01*
X0045313Y0058684D02*
X0045313Y0057450D01*
X0045313Y0058067D02*
X0049017Y0058067D01*
X0049017Y0057450D02*
X0049017Y0058684D01*
X0055313Y0058067D02*
X0055931Y0057450D01*
X0056548Y0057450D01*
X0057165Y0058067D01*
X0057165Y0059302D01*
X0057782Y0059919D01*
X0058399Y0059919D01*
X0059017Y0059302D01*
X0059017Y0058067D01*
X0058399Y0057450D01*
X0055931Y0059919D02*
X0055313Y0059302D01*
X0055313Y0058067D01*
D16*
X0042167Y0244300D03*
M02*
