G75*
%MOIN*%
%OFA0B0*%
%FSLAX24Y24*%
%IPPOS*%
%LPD*%
%AMOC8*
5,1,8,0,0,1.08239X$1,22.5*
%
%ADD10C,0.0000*%
%ADD11C,0.0480*%
%ADD12R,0.0634X0.0634*%
%ADD13C,0.0555*%
%ADD14C,0.0560*%
%ADD15C,0.0690*%
%ADD16OC8,0.1280*%
%ADD17R,0.0555X0.0555*%
D10*
X000680Y000680D02*
X000680Y020180D01*
X010680Y020180D01*
X010680Y000680D01*
X000680Y000680D01*
D11*
X004930Y012930D03*
X004930Y013930D03*
X004930Y014930D03*
X007430Y014930D03*
X007430Y013930D03*
X007430Y012930D03*
D12*
X006180Y003680D03*
X005180Y003680D03*
X004180Y003680D03*
X003180Y003680D03*
D13*
X001349Y007243D03*
X001349Y008030D03*
X001349Y008818D03*
X001349Y009605D03*
X001349Y010393D03*
X001349Y011180D03*
X001349Y011967D03*
X001349Y012755D03*
X001349Y013542D03*
X001349Y014330D03*
X004499Y016430D03*
X005286Y016430D03*
X006074Y016430D03*
X010011Y014330D03*
X010011Y013542D03*
X010011Y012755D03*
X010011Y011967D03*
X010011Y011180D03*
X010011Y010393D03*
X010011Y009605D03*
X010011Y008818D03*
X010011Y008030D03*
X010011Y007243D03*
D14*
X007440Y007430D02*
X006920Y007430D01*
X006920Y006430D02*
X007440Y006430D01*
X007440Y005430D02*
X006920Y005430D01*
X006920Y008430D02*
X007440Y008430D01*
X007440Y009430D02*
X006920Y009430D01*
X006920Y010430D02*
X007440Y010430D01*
X007440Y011430D02*
X006920Y011430D01*
X004440Y011430D02*
X003920Y011430D01*
X003920Y010430D02*
X004440Y010430D01*
X004440Y009430D02*
X003920Y009430D01*
X003920Y008430D02*
X004440Y008430D01*
X004440Y007430D02*
X003920Y007430D01*
X003920Y006430D02*
X004440Y006430D01*
X004440Y005430D02*
X003920Y005430D01*
D15*
X003680Y002255D02*
X003680Y001605D01*
X004680Y001605D02*
X004680Y002255D01*
X005680Y002255D02*
X005680Y001605D01*
D16*
X008180Y001930D03*
X008180Y003930D03*
D17*
X006861Y016430D03*
M02*
