G75*
%MOIN*%
%OFA0B0*%
%FSLAX24Y24*%
%IPPOS*%
%LPD*%
%AMOC8*
5,1,8,0,0,1.08239X$1,22.5*
%
%ADD10C,0.0000*%
%ADD11C,0.0100*%
%ADD12C,0.0060*%
%ADD13C,0.0030*%
%ADD14R,0.0118X0.0827*%
%ADD15C,0.0040*%
%ADD16C,0.0050*%
D10*
X000680Y000680D02*
X000680Y020180D01*
X010680Y020180D01*
X010680Y000680D01*
X000680Y000680D01*
D11*
X003336Y012217D02*
X003336Y015643D01*
X005639Y015643D01*
X005639Y012217D01*
X003336Y012217D01*
X003711Y015839D02*
X007649Y015839D01*
X007649Y017060D01*
X003711Y017060D01*
X003711Y019737D01*
X004578Y019737D01*
X004578Y019343D01*
X006782Y019343D01*
X006782Y019737D01*
X007649Y019737D01*
X007649Y017060D01*
X008139Y015643D02*
X005836Y015643D01*
X005836Y012217D01*
X008139Y012217D01*
X008139Y015643D01*
X003711Y015839D02*
X003711Y017060D01*
D12*
X003512Y012847D02*
X003514Y012888D01*
X003520Y012929D01*
X003530Y012969D01*
X003543Y013008D01*
X003560Y013046D01*
X003581Y013082D01*
X003605Y013115D01*
X003632Y013146D01*
X003662Y013175D01*
X003694Y013201D01*
X003729Y013223D01*
X003766Y013242D01*
X003804Y013257D01*
X003844Y013269D01*
X003884Y013277D01*
X003925Y013281D01*
X003967Y013281D01*
X004008Y013277D01*
X004048Y013269D01*
X004088Y013257D01*
X004126Y013242D01*
X004163Y013223D01*
X004198Y013201D01*
X004230Y013175D01*
X004260Y013146D01*
X004287Y013115D01*
X004311Y013082D01*
X004332Y013046D01*
X004349Y013008D01*
X004362Y012969D01*
X004372Y012929D01*
X004378Y012888D01*
X004380Y012847D01*
X004378Y012806D01*
X004372Y012765D01*
X004362Y012725D01*
X004349Y012686D01*
X004332Y012648D01*
X004311Y012612D01*
X004287Y012579D01*
X004260Y012548D01*
X004230Y012519D01*
X004198Y012493D01*
X004163Y012471D01*
X004126Y012452D01*
X004088Y012437D01*
X004048Y012425D01*
X004008Y012417D01*
X003967Y012413D01*
X003925Y012413D01*
X003884Y012417D01*
X003844Y012425D01*
X003804Y012437D01*
X003766Y012452D01*
X003729Y012471D01*
X003694Y012493D01*
X003662Y012519D01*
X003632Y012548D01*
X003605Y012579D01*
X003581Y012612D01*
X003560Y012648D01*
X003543Y012686D01*
X003530Y012725D01*
X003520Y012765D01*
X003514Y012806D01*
X003512Y012847D01*
X004530Y011930D02*
X006830Y011930D01*
X006830Y004930D01*
X006080Y004930D01*
X006078Y004969D01*
X006072Y005008D01*
X006063Y005046D01*
X006050Y005083D01*
X006033Y005119D01*
X006013Y005152D01*
X005989Y005184D01*
X005963Y005213D01*
X005934Y005239D01*
X005902Y005263D01*
X005869Y005283D01*
X005833Y005300D01*
X005796Y005313D01*
X005758Y005322D01*
X005719Y005328D01*
X005680Y005330D01*
X005641Y005328D01*
X005602Y005322D01*
X005564Y005313D01*
X005527Y005300D01*
X005491Y005283D01*
X005458Y005263D01*
X005426Y005239D01*
X005397Y005213D01*
X005371Y005184D01*
X005347Y005152D01*
X005327Y005119D01*
X005310Y005083D01*
X005297Y005046D01*
X005288Y005008D01*
X005282Y004969D01*
X005280Y004930D01*
X004530Y004930D01*
X004530Y011930D01*
X006012Y012847D02*
X006014Y012888D01*
X006020Y012929D01*
X006030Y012969D01*
X006043Y013008D01*
X006060Y013046D01*
X006081Y013082D01*
X006105Y013115D01*
X006132Y013146D01*
X006162Y013175D01*
X006194Y013201D01*
X006229Y013223D01*
X006266Y013242D01*
X006304Y013257D01*
X006344Y013269D01*
X006384Y013277D01*
X006425Y013281D01*
X006467Y013281D01*
X006508Y013277D01*
X006548Y013269D01*
X006588Y013257D01*
X006626Y013242D01*
X006663Y013223D01*
X006698Y013201D01*
X006730Y013175D01*
X006760Y013146D01*
X006787Y013115D01*
X006811Y013082D01*
X006832Y013046D01*
X006849Y013008D01*
X006862Y012969D01*
X006872Y012929D01*
X006878Y012888D01*
X006880Y012847D01*
X006878Y012806D01*
X006872Y012765D01*
X006862Y012725D01*
X006849Y012686D01*
X006832Y012648D01*
X006811Y012612D01*
X006787Y012579D01*
X006760Y012548D01*
X006730Y012519D01*
X006698Y012493D01*
X006663Y012471D01*
X006626Y012452D01*
X006588Y012437D01*
X006548Y012425D01*
X006508Y012417D01*
X006467Y012413D01*
X006425Y012413D01*
X006384Y012417D01*
X006344Y012425D01*
X006304Y012437D01*
X006266Y012452D01*
X006229Y012471D01*
X006194Y012493D01*
X006162Y012519D01*
X006132Y012548D01*
X006105Y012579D01*
X006081Y012612D01*
X006060Y012648D01*
X006043Y012686D01*
X006030Y012725D01*
X006020Y012765D01*
X006014Y012806D01*
X006012Y012847D01*
D13*
X006214Y014730D02*
X006585Y014730D01*
X006585Y014915D01*
X006523Y014977D01*
X006399Y014977D01*
X006338Y014915D01*
X006338Y014730D01*
X006338Y014853D02*
X006214Y014977D01*
X006214Y015098D02*
X006461Y015345D01*
X006523Y015345D01*
X006585Y015283D01*
X006585Y015160D01*
X006523Y015098D01*
X006214Y015098D02*
X006214Y015345D01*
X006315Y017195D02*
X005945Y017195D01*
X006068Y017318D01*
X005945Y017442D01*
X006315Y017442D01*
X006315Y017563D02*
X005945Y017563D01*
X006130Y017563D02*
X006192Y017625D01*
X006192Y017748D01*
X006130Y017810D01*
X005945Y017810D01*
X005945Y017932D02*
X005945Y018055D01*
X005945Y017993D02*
X006192Y017993D01*
X006192Y017932D01*
X006315Y017993D02*
X006377Y017993D01*
X006254Y018239D02*
X006007Y018239D01*
X005945Y018301D01*
X006007Y018423D02*
X006130Y018423D01*
X006192Y018484D01*
X006192Y018608D01*
X006130Y018670D01*
X006068Y018670D01*
X006068Y018423D01*
X006007Y018423D02*
X005945Y018484D01*
X005945Y018608D01*
X006192Y018301D02*
X006192Y018177D01*
X006695Y018177D02*
X006695Y018301D01*
X006695Y018239D02*
X007065Y018239D01*
X007065Y018177D01*
X007065Y017993D02*
X006695Y017993D01*
X006695Y017932D02*
X006695Y018055D01*
X006695Y017748D02*
X006695Y017625D01*
X006757Y017563D01*
X006880Y017563D01*
X006942Y017625D01*
X006942Y017748D01*
X006880Y017810D01*
X006818Y017810D01*
X006818Y017563D01*
X007004Y017442D02*
X006880Y017318D01*
X006695Y017318D01*
X006880Y017318D02*
X007004Y017195D01*
X007065Y017195D01*
X007065Y017442D02*
X007004Y017442D01*
X007065Y017932D02*
X007065Y017993D01*
X006880Y018423D02*
X006757Y018423D01*
X006695Y018484D01*
X006695Y018608D01*
X006757Y018670D01*
X006880Y018670D01*
X006942Y018608D01*
X006942Y018484D01*
X006880Y018423D01*
X006942Y018791D02*
X006757Y018791D01*
X006695Y018853D01*
X006757Y018914D01*
X006695Y018976D01*
X006757Y019038D01*
X006942Y019038D01*
X005467Y018179D02*
X005097Y018179D01*
X005097Y017993D01*
X005158Y017932D01*
X005282Y017932D01*
X005343Y017993D01*
X005343Y018179D01*
X005282Y017810D02*
X005220Y017810D01*
X005220Y017563D01*
X005158Y017563D02*
X005282Y017563D01*
X005343Y017625D01*
X005343Y017748D01*
X005282Y017810D01*
X005097Y017625D02*
X005158Y017563D01*
X005097Y017625D02*
X005097Y017748D01*
X005097Y017442D02*
X005220Y017318D01*
X005220Y017380D02*
X005220Y017195D01*
X005097Y017195D02*
X005467Y017195D01*
X005467Y017380D01*
X005405Y017442D01*
X005282Y017442D01*
X005220Y017380D01*
X004672Y017380D02*
X004672Y017195D01*
X004301Y017195D01*
X004301Y017380D01*
X004363Y017442D01*
X004425Y017442D01*
X004486Y017380D01*
X004486Y017195D01*
X004486Y017380D02*
X004548Y017442D01*
X004610Y017442D01*
X004672Y017380D01*
X004672Y017563D02*
X004672Y017625D01*
X004301Y017625D01*
X004301Y017563D02*
X004301Y017687D01*
X004363Y017809D02*
X004301Y017871D01*
X004301Y018056D01*
X004486Y018056D01*
X004548Y017994D01*
X004548Y017871D01*
X004425Y017871D02*
X004425Y018056D01*
X004486Y018177D02*
X004363Y018177D01*
X004301Y018239D01*
X004301Y018424D01*
X004301Y018545D02*
X004672Y018545D01*
X004548Y018424D02*
X004548Y018239D01*
X004486Y018177D01*
X004425Y018545D02*
X004548Y018731D01*
X004425Y018545D02*
X004301Y018731D01*
X004425Y017871D02*
X004363Y017809D01*
X003714Y015345D02*
X003714Y015098D01*
X003714Y014977D02*
X003838Y014853D01*
X003838Y014915D02*
X003838Y014730D01*
X003714Y014730D02*
X004085Y014730D01*
X004085Y014915D01*
X004023Y014977D01*
X003899Y014977D01*
X003838Y014915D01*
X003961Y015098D02*
X004085Y015222D01*
X003714Y015222D01*
D14*
X003946Y012847D03*
X006446Y012847D03*
D15*
X006352Y019469D02*
X006300Y019469D01*
X006249Y019521D01*
X006249Y019779D01*
X006300Y019779D02*
X006197Y019779D01*
X006081Y019676D02*
X005978Y019779D01*
X005978Y019469D01*
X006081Y019469D02*
X005875Y019469D01*
X006352Y019469D02*
X006404Y019521D01*
X005724Y005970D02*
X005724Y005490D01*
X005784Y005550D02*
X005664Y005550D01*
X005604Y005610D01*
X005604Y005670D01*
X005664Y005730D01*
X005784Y005730D01*
X005844Y005790D01*
X005844Y005850D01*
X005784Y005910D01*
X005664Y005910D01*
X005604Y005850D01*
X005476Y005850D02*
X005416Y005910D01*
X005296Y005910D01*
X005236Y005850D01*
X005236Y005790D01*
X005476Y005550D01*
X005236Y005550D01*
X005784Y005550D02*
X005844Y005610D01*
X005972Y005610D02*
X005972Y005910D01*
X006212Y005910D02*
X006212Y005610D01*
X006152Y005550D01*
X006032Y005550D01*
X005972Y005610D01*
D16*
X007649Y016036D02*
X007649Y016824D01*
M02*
