%
M48
M72
T01C0.0240
T02C0.0315
T03C0.0320
T04C0.0394
T05C0.0433
T06C0.0440
%
T01
X4930Y12930
X4930Y13930
X4930Y14930
X7430Y14930
X7430Y13930
X7430Y12930
T02
X1349Y14330
X1349Y13542
X1349Y12755
X1349Y11967
X1349Y11180
X1349Y10393
X1349Y9605
X1349Y8818
X1349Y8030
X1349Y7243
X4499Y16430
X5286Y16430
X6074Y16430
X6861Y16430
X10011Y14330
X10011Y13542
X10011Y12755
X10011Y11967
X10011Y11180
X10011Y10393
X10011Y9605
X10011Y8818
X10011Y8030
X10011Y7243
T03
X4180Y5430
X4180Y6430
X4180Y7430
X4180Y8430
X4180Y9430
X4180Y10430
X4180Y11430
X7180Y11430
X7180Y10430
X7180Y9430
X7180Y8430
X7180Y7430
X7180Y6430
X7180Y5430
T04
X3180Y3680
X4180Y3680
X5180Y3680
X6180Y3680
T05
X3680Y1930
X4680Y1930
X5680Y1930
T06
X8180Y1930
X8180Y3930
M30
