G75*
%MOIN*%
%OFA0B0*%
%FSLAX24Y24*%
%IPPOS*%
%LPD*%
%AMOC8*
5,1,8,0,0,1.08239X$1,22.5*
%
%ADD10C,0.0000*%
%ADD11C,0.0440*%
%ADD12R,0.0594X0.0594*%
%ADD13C,0.0515*%
%ADD14C,0.0520*%
%ADD15C,0.0650*%
%ADD16OC8,0.1240*%
%ADD17R,0.0515X0.0515*%
%ADD18C,0.0160*%
%ADD19C,0.0300*%
%ADD20C,0.0400*%
D10*
X000680Y000680D02*
X000680Y020180D01*
X010680Y020180D01*
X010680Y000680D01*
X000680Y000680D01*
D11*
X004930Y012930D03*
X004930Y013930D03*
X004930Y014930D03*
X007430Y014930D03*
X007430Y013930D03*
X007430Y012930D03*
D12*
X006180Y003680D03*
X005180Y003680D03*
X004180Y003680D03*
X003180Y003680D03*
D13*
X001349Y007243D03*
X001349Y008030D03*
X001349Y008818D03*
X001349Y009605D03*
X001349Y010393D03*
X001349Y011180D03*
X001349Y011967D03*
X001349Y012755D03*
X001349Y013542D03*
X001349Y014330D03*
X004499Y016430D03*
X005286Y016430D03*
X006074Y016430D03*
X010011Y014330D03*
X010011Y013542D03*
X010011Y012755D03*
X010011Y011967D03*
X010011Y011180D03*
X010011Y010393D03*
X010011Y009605D03*
X010011Y008818D03*
X010011Y008030D03*
X010011Y007243D03*
D14*
X007440Y007430D02*
X006920Y007430D01*
X006920Y006430D02*
X007440Y006430D01*
X007440Y005430D02*
X006920Y005430D01*
X006920Y008430D02*
X007440Y008430D01*
X007440Y009430D02*
X006920Y009430D01*
X006920Y010430D02*
X007440Y010430D01*
X007440Y011430D02*
X006920Y011430D01*
X004440Y011430D02*
X003920Y011430D01*
X003920Y010430D02*
X004440Y010430D01*
X004440Y009430D02*
X003920Y009430D01*
X003920Y008430D02*
X004440Y008430D01*
X004440Y007430D02*
X003920Y007430D01*
X003920Y006430D02*
X004440Y006430D01*
X004440Y005430D02*
X003920Y005430D01*
D15*
X003680Y002255D02*
X003680Y001605D01*
X004680Y001605D02*
X004680Y002255D01*
X005680Y002255D02*
X005680Y001605D01*
D16*
X008180Y001930D03*
X008180Y003930D03*
D17*
X006861Y016430D03*
D18*
X007261Y016032D02*
X007319Y016090D01*
X007319Y016770D01*
X007201Y016887D01*
X006521Y016887D01*
X006404Y016770D01*
X006404Y016747D01*
X006333Y016818D01*
X006165Y016887D01*
X005983Y016887D01*
X005815Y016818D01*
X005686Y016689D01*
X005680Y016675D01*
X005674Y016689D01*
X005545Y016818D01*
X005377Y016887D01*
X005195Y016887D01*
X005027Y016818D01*
X004898Y016689D01*
X004893Y016675D01*
X004887Y016689D01*
X004758Y016818D01*
X004590Y016887D01*
X004408Y016887D01*
X004240Y016818D01*
X004111Y016689D01*
X004041Y016521D01*
X004041Y016339D01*
X004111Y016171D01*
X004240Y016042D01*
X004408Y015973D01*
X004590Y015973D01*
X004758Y016042D01*
X004886Y016170D01*
X004886Y015452D01*
X004740Y015306D01*
X004692Y015286D01*
X004574Y015168D01*
X004510Y015014D01*
X004510Y014846D01*
X004574Y014692D01*
X004692Y014574D01*
X004846Y014510D01*
X005014Y014510D01*
X005168Y014574D01*
X005286Y014692D01*
X005306Y014740D01*
X005625Y015060D01*
X005674Y015176D01*
X005674Y012489D01*
X004843Y011659D01*
X004830Y011691D01*
X004701Y011820D01*
X004531Y011890D01*
X003828Y011890D01*
X003659Y011820D01*
X003530Y011691D01*
X003460Y011521D01*
X003460Y011338D01*
X003530Y011169D01*
X003659Y011040D01*
X003828Y010970D01*
X004404Y010970D01*
X004324Y010890D01*
X003828Y010890D01*
X003659Y010820D01*
X003530Y010691D01*
X003460Y010521D01*
X003460Y010338D01*
X003530Y010169D01*
X003659Y010040D01*
X003828Y009970D01*
X004531Y009970D01*
X004701Y010040D01*
X004830Y010169D01*
X004897Y010331D01*
X005407Y010841D01*
X005519Y010953D01*
X005580Y011100D01*
X005580Y011264D01*
X005780Y011464D01*
X005780Y011100D01*
X005841Y010953D01*
X005953Y010841D01*
X006463Y010331D01*
X006530Y010169D01*
X006659Y010040D01*
X006828Y009970D01*
X007531Y009970D01*
X007701Y010040D01*
X007830Y010169D01*
X007900Y010338D01*
X007900Y010521D01*
X007830Y010691D01*
X007701Y010820D01*
X007531Y010890D01*
X007036Y010890D01*
X006956Y010970D01*
X007531Y010970D01*
X007701Y011040D01*
X007830Y011169D01*
X007900Y011338D01*
X007900Y011521D01*
X007830Y011691D01*
X007701Y011820D01*
X007531Y011890D01*
X006956Y011890D01*
X007088Y012022D01*
X007200Y012135D01*
X007261Y012282D01*
X007261Y012545D01*
X007346Y012510D01*
X007514Y012510D01*
X007668Y012574D01*
X007786Y012692D01*
X007850Y012846D01*
X007850Y013014D01*
X007830Y013062D01*
X007830Y013798D01*
X007850Y013846D01*
X007850Y014014D01*
X007786Y014168D01*
X007668Y014286D01*
X007514Y014350D01*
X007346Y014350D01*
X007261Y014315D01*
X007261Y014567D01*
X007313Y014545D01*
X007391Y014530D01*
X007430Y014530D01*
X007469Y014530D01*
X007547Y014545D01*
X007619Y014576D01*
X007685Y014619D01*
X007741Y014675D01*
X007784Y014741D01*
X007815Y014813D01*
X007830Y014891D01*
X007830Y014930D01*
X007830Y014969D01*
X007815Y015047D01*
X007784Y015119D01*
X007741Y015185D01*
X007685Y015241D01*
X007619Y015284D01*
X007547Y015315D01*
X007469Y015330D01*
X007430Y015330D01*
X007430Y014930D01*
X007430Y014930D01*
X007830Y014930D01*
X007430Y014930D01*
X007430Y014930D01*
X007430Y015330D01*
X007391Y015330D01*
X007313Y015315D01*
X007261Y015293D01*
X007261Y016032D01*
X007283Y016055D02*
X010480Y016055D01*
X010480Y016213D02*
X007319Y016213D01*
X007319Y016372D02*
X010480Y016372D01*
X010480Y016530D02*
X007319Y016530D01*
X007319Y016689D02*
X010480Y016689D01*
X010480Y016847D02*
X007242Y016847D01*
X007261Y015896D02*
X010480Y015896D01*
X010480Y015738D02*
X007261Y015738D01*
X007261Y015579D02*
X010480Y015579D01*
X010480Y015421D02*
X007261Y015421D01*
X007430Y015262D02*
X007430Y015262D01*
X007430Y015104D02*
X007430Y015104D01*
X007430Y014945D02*
X007430Y014945D01*
X007430Y014930D02*
X007430Y014530D01*
X007430Y014930D01*
X007430Y014930D01*
X007430Y014787D02*
X007430Y014787D01*
X007430Y014628D02*
X007430Y014628D01*
X007261Y014470D02*
X009573Y014470D01*
X009553Y014421D02*
X009553Y014239D01*
X009623Y014070D01*
X009752Y013942D01*
X009766Y013936D01*
X009752Y013930D01*
X009623Y013801D01*
X009553Y013633D01*
X009553Y013451D01*
X009623Y013283D01*
X009752Y013154D01*
X009766Y013149D01*
X009752Y013143D01*
X009623Y013014D01*
X009553Y012846D01*
X009553Y012664D01*
X009623Y012496D01*
X009752Y012367D01*
X009766Y012361D01*
X009752Y012355D01*
X009623Y012227D01*
X009553Y012058D01*
X009553Y011876D01*
X009623Y011708D01*
X009752Y011580D01*
X009766Y011574D01*
X009752Y011568D01*
X009623Y011439D01*
X009553Y011271D01*
X009553Y011089D01*
X009623Y010921D01*
X009752Y010792D01*
X009766Y010786D01*
X009752Y010780D01*
X009623Y010652D01*
X009553Y010484D01*
X009553Y010302D01*
X009623Y010133D01*
X009752Y010005D01*
X009766Y009999D01*
X009752Y009993D01*
X009623Y009864D01*
X009553Y009696D01*
X009553Y009514D01*
X009623Y009346D01*
X009752Y009217D01*
X009766Y009211D01*
X009752Y009206D01*
X009623Y009077D01*
X009553Y008909D01*
X009553Y008727D01*
X009623Y008559D01*
X009752Y008430D01*
X009766Y008424D01*
X009752Y008418D01*
X009623Y008290D01*
X009553Y008121D01*
X009553Y007939D01*
X009623Y007771D01*
X009752Y007643D01*
X009766Y007637D01*
X009752Y007631D01*
X009623Y007502D01*
X009553Y007334D01*
X009553Y007152D01*
X009623Y006984D01*
X009752Y006855D01*
X009920Y006786D01*
X010102Y006786D01*
X010270Y006855D01*
X010399Y006984D01*
X010468Y007152D01*
X010468Y007334D01*
X010399Y007502D01*
X010270Y007631D01*
X010256Y007637D01*
X010270Y007643D01*
X010399Y007771D01*
X010468Y007939D01*
X010468Y008121D01*
X010399Y008290D01*
X010270Y008418D01*
X010256Y008424D01*
X010270Y008430D01*
X010399Y008559D01*
X010468Y008727D01*
X010468Y008909D01*
X010399Y009077D01*
X010270Y009206D01*
X010256Y009211D01*
X010270Y009217D01*
X010399Y009346D01*
X010468Y009514D01*
X010468Y009696D01*
X010399Y009864D01*
X010270Y009993D01*
X010256Y009999D01*
X010270Y010005D01*
X010399Y010133D01*
X010468Y010302D01*
X010468Y010484D01*
X010399Y010652D01*
X010270Y010780D01*
X010256Y010786D01*
X010270Y010792D01*
X010399Y010921D01*
X010468Y011089D01*
X010468Y011271D01*
X010399Y011439D01*
X010270Y011568D01*
X010256Y011574D01*
X010270Y011580D01*
X010399Y011708D01*
X010468Y011876D01*
X010468Y012058D01*
X010399Y012227D01*
X010270Y012355D01*
X010256Y012361D01*
X010270Y012367D01*
X010399Y012496D01*
X010468Y012664D01*
X010468Y012846D01*
X010399Y013014D01*
X010270Y013143D01*
X010256Y013149D01*
X010270Y013154D01*
X010399Y013283D01*
X010468Y013451D01*
X010468Y013633D01*
X010399Y013801D01*
X010270Y013930D01*
X010256Y013936D01*
X010270Y013942D01*
X010399Y014070D01*
X010468Y014239D01*
X010468Y014421D01*
X010399Y014589D01*
X010270Y014717D01*
X010102Y014787D01*
X009920Y014787D01*
X009752Y014717D01*
X009623Y014589D01*
X009553Y014421D01*
X009553Y014311D02*
X007608Y014311D01*
X007792Y014153D02*
X009589Y014153D01*
X009699Y013994D02*
X007850Y013994D01*
X007845Y013836D02*
X009657Y013836D01*
X009571Y013677D02*
X007830Y013677D01*
X007830Y013519D02*
X009553Y013519D01*
X009591Y013360D02*
X007830Y013360D01*
X007830Y013202D02*
X009704Y013202D01*
X009652Y013043D02*
X007838Y013043D01*
X007850Y012885D02*
X009569Y012885D01*
X009553Y012726D02*
X007800Y012726D01*
X007652Y012568D02*
X009593Y012568D01*
X009710Y012409D02*
X007261Y012409D01*
X007248Y012251D02*
X009647Y012251D01*
X009567Y012092D02*
X007158Y012092D01*
X006999Y011934D02*
X009553Y011934D01*
X009595Y011775D02*
X007746Y011775D01*
X007861Y011617D02*
X009715Y011617D01*
X009642Y011458D02*
X007900Y011458D01*
X007884Y011300D02*
X009565Y011300D01*
X009553Y011141D02*
X007802Y011141D01*
X007562Y010983D02*
X009597Y010983D01*
X009720Y010824D02*
X007691Y010824D01*
X007840Y010666D02*
X009637Y010666D01*
X009563Y010507D02*
X007900Y010507D01*
X007900Y010349D02*
X009553Y010349D01*
X009599Y010190D02*
X007838Y010190D01*
X007680Y010032D02*
X009725Y010032D01*
X009632Y009873D02*
X007573Y009873D01*
X007531Y009890D02*
X007701Y009820D01*
X007830Y009691D01*
X007900Y009521D01*
X007900Y009338D01*
X007830Y009169D01*
X007701Y009040D01*
X007531Y008970D01*
X006828Y008970D01*
X006659Y009040D01*
X006530Y009169D01*
X006460Y009338D01*
X006460Y009521D01*
X006530Y009691D01*
X006659Y009820D01*
X006828Y009890D01*
X007531Y009890D01*
X007806Y009715D02*
X009561Y009715D01*
X009553Y009556D02*
X007886Y009556D01*
X007900Y009398D02*
X009602Y009398D01*
X009730Y009239D02*
X007859Y009239D01*
X007741Y009081D02*
X009626Y009081D01*
X009559Y008922D02*
X003315Y008922D01*
X003457Y008780D02*
X001807Y010430D01*
X001807Y010484D01*
X001737Y010652D01*
X001608Y010780D01*
X001594Y010786D01*
X001608Y010792D01*
X001737Y010921D01*
X001807Y011089D01*
X001807Y011271D01*
X001737Y011439D01*
X001608Y011568D01*
X001594Y011574D01*
X001608Y011580D01*
X001737Y011708D01*
X001807Y011876D01*
X001807Y012058D01*
X001737Y012227D01*
X001608Y012355D01*
X001594Y012361D01*
X001608Y012367D01*
X001737Y012496D01*
X001807Y012664D01*
X001807Y012846D01*
X001737Y013014D01*
X001608Y013143D01*
X001594Y013149D01*
X001608Y013154D01*
X001737Y013283D01*
X001807Y013451D01*
X001807Y013633D01*
X001737Y013801D01*
X001608Y013930D01*
X001594Y013936D01*
X001608Y013942D01*
X001737Y014070D01*
X001807Y014239D01*
X001807Y014421D01*
X001737Y014589D01*
X001608Y014717D01*
X001440Y014787D01*
X001258Y014787D01*
X001090Y014717D01*
X000961Y014589D01*
X000892Y014421D01*
X000892Y014239D01*
X000961Y014070D01*
X001090Y013942D01*
X001104Y013936D01*
X001090Y013930D01*
X000961Y013801D01*
X000892Y013633D01*
X000892Y013451D01*
X000961Y013283D01*
X001090Y013154D01*
X001104Y013149D01*
X001090Y013143D01*
X000961Y013014D01*
X000892Y012846D01*
X000892Y012664D01*
X000961Y012496D01*
X001090Y012367D01*
X001104Y012361D01*
X001090Y012355D01*
X000961Y012227D01*
X000892Y012058D01*
X000892Y011876D01*
X000961Y011708D01*
X001090Y011580D01*
X001104Y011574D01*
X001090Y011568D01*
X000961Y011439D01*
X000892Y011271D01*
X000892Y011089D01*
X000961Y010921D01*
X001090Y010792D01*
X001104Y010786D01*
X001090Y010780D01*
X000961Y010652D01*
X000892Y010484D01*
X000892Y010302D01*
X000961Y010133D01*
X001090Y010005D01*
X001104Y009999D01*
X001090Y009993D01*
X000961Y009864D01*
X000892Y009696D01*
X000892Y009514D01*
X000961Y009346D01*
X001090Y009217D01*
X001104Y009211D01*
X001090Y009206D01*
X000961Y009077D01*
X000892Y008909D01*
X000892Y008727D01*
X000961Y008559D01*
X001090Y008430D01*
X001104Y008424D01*
X001090Y008418D01*
X000961Y008290D01*
X000892Y008121D01*
X000892Y007939D01*
X000961Y007771D01*
X001090Y007643D01*
X001134Y007624D01*
X001120Y007617D01*
X001064Y007577D01*
X001016Y007528D01*
X000975Y007472D01*
X000944Y007411D01*
X000923Y007345D01*
X000912Y007277D01*
X000912Y007243D01*
X000912Y007209D01*
X000923Y007141D01*
X000944Y007075D01*
X000975Y007014D01*
X001016Y006958D01*
X001064Y006909D01*
X001120Y006869D01*
X001181Y006838D01*
X001247Y006816D01*
X001315Y006806D01*
X001349Y006806D01*
X001349Y007243D01*
X000912Y007243D01*
X001349Y007243D01*
X001349Y007243D01*
X001349Y007243D01*
X001349Y006806D01*
X001384Y006806D01*
X001452Y006816D01*
X001517Y006838D01*
X001579Y006869D01*
X001634Y006909D01*
X001683Y006958D01*
X001723Y007014D01*
X001755Y007075D01*
X001776Y007141D01*
X001787Y007209D01*
X001787Y007243D01*
X001349Y007243D01*
X001787Y007243D01*
X001787Y007277D01*
X001776Y007345D01*
X001755Y007411D01*
X001723Y007472D01*
X001683Y007528D01*
X001634Y007577D01*
X001579Y007617D01*
X001564Y007624D01*
X001608Y007643D01*
X001737Y007771D01*
X001785Y007887D01*
X003348Y006324D01*
X003398Y006203D01*
X003511Y006091D01*
X003658Y006030D01*
X003684Y006030D01*
X003828Y005970D01*
X004531Y005970D01*
X004701Y006040D01*
X004830Y006169D01*
X004900Y006338D01*
X004900Y006521D01*
X004830Y006691D01*
X004701Y006820D01*
X004531Y006890D01*
X003828Y006890D01*
X003789Y006873D01*
X003582Y007080D01*
X003619Y007080D01*
X003659Y007040D01*
X003828Y006970D01*
X004531Y006970D01*
X004701Y007040D01*
X004830Y007169D01*
X004900Y007338D01*
X004900Y007521D01*
X004830Y007691D01*
X004701Y007820D01*
X004531Y007890D01*
X003828Y007890D01*
X003659Y007820D01*
X003644Y007805D01*
X003369Y008080D01*
X003619Y008080D01*
X003659Y008040D01*
X003828Y007970D01*
X004531Y007970D01*
X004701Y008040D01*
X004830Y008169D01*
X004900Y008338D01*
X004900Y008521D01*
X004830Y008691D01*
X004701Y008820D01*
X004531Y008890D01*
X003828Y008890D01*
X003659Y008820D01*
X003619Y008780D01*
X003457Y008780D01*
X003659Y009040D02*
X003530Y009169D01*
X003460Y009338D01*
X003460Y009521D01*
X003530Y009691D01*
X003659Y009820D01*
X003828Y009890D01*
X004531Y009890D01*
X004701Y009820D01*
X004830Y009691D01*
X004900Y009521D01*
X004900Y009338D01*
X004830Y009169D01*
X004701Y009040D01*
X004531Y008970D01*
X003828Y008970D01*
X003659Y009040D01*
X003619Y009081D02*
X003156Y009081D01*
X002998Y009239D02*
X003501Y009239D01*
X003460Y009398D02*
X002839Y009398D01*
X002681Y009556D02*
X003474Y009556D01*
X003554Y009715D02*
X002522Y009715D01*
X002364Y009873D02*
X003787Y009873D01*
X003680Y010032D02*
X002205Y010032D01*
X002047Y010190D02*
X003522Y010190D01*
X003460Y010349D02*
X001888Y010349D01*
X001797Y010507D02*
X003460Y010507D01*
X003520Y010666D02*
X001723Y010666D01*
X001640Y010824D02*
X003669Y010824D01*
X003798Y010983D02*
X001763Y010983D01*
X001807Y011141D02*
X003558Y011141D01*
X003476Y011300D02*
X001795Y011300D01*
X001718Y011458D02*
X003460Y011458D01*
X003499Y011617D02*
X001645Y011617D01*
X001765Y011775D02*
X003614Y011775D01*
X004574Y012692D02*
X004510Y012846D01*
X004510Y013014D01*
X004530Y013062D01*
X004530Y013798D01*
X004510Y013846D01*
X004510Y014014D01*
X004574Y014168D01*
X004692Y014286D01*
X004846Y014350D01*
X005014Y014350D01*
X005168Y014286D01*
X005286Y014168D01*
X005350Y014014D01*
X005350Y013846D01*
X005330Y013798D01*
X005330Y013062D01*
X005350Y013014D01*
X005350Y012846D01*
X005286Y012692D01*
X005168Y012574D01*
X005014Y012510D01*
X004846Y012510D01*
X004692Y012574D01*
X004574Y012692D01*
X004560Y012726D02*
X001807Y012726D01*
X001791Y012885D02*
X004510Y012885D01*
X004522Y013043D02*
X001708Y013043D01*
X001656Y013202D02*
X004530Y013202D01*
X004530Y013360D02*
X001769Y013360D01*
X001807Y013519D02*
X004530Y013519D01*
X004530Y013677D02*
X001789Y013677D01*
X001703Y013836D02*
X004515Y013836D01*
X004510Y013994D02*
X001661Y013994D01*
X001771Y014153D02*
X004568Y014153D01*
X004752Y014311D02*
X001807Y014311D01*
X001787Y014470D02*
X005674Y014470D01*
X005674Y014628D02*
X005222Y014628D01*
X005352Y014787D02*
X005674Y014787D01*
X005674Y014945D02*
X005511Y014945D01*
X005644Y015104D02*
X005674Y015104D01*
X005674Y014311D02*
X005108Y014311D01*
X005292Y014153D02*
X005674Y014153D01*
X005674Y013994D02*
X005350Y013994D01*
X005345Y013836D02*
X005674Y013836D01*
X005674Y013677D02*
X005330Y013677D01*
X005330Y013519D02*
X005674Y013519D01*
X005674Y013360D02*
X005330Y013360D01*
X005330Y013202D02*
X005674Y013202D01*
X005674Y013043D02*
X005338Y013043D01*
X005350Y012885D02*
X005674Y012885D01*
X005674Y012726D02*
X005300Y012726D01*
X005152Y012568D02*
X005674Y012568D01*
X005593Y012409D02*
X001650Y012409D01*
X001713Y012251D02*
X005435Y012251D01*
X005276Y012092D02*
X001793Y012092D01*
X001807Y011934D02*
X005118Y011934D01*
X004959Y011775D02*
X004746Y011775D01*
X004708Y012568D02*
X001767Y012568D01*
X001048Y012409D02*
X000880Y012409D01*
X000880Y012251D02*
X000985Y012251D01*
X000906Y012092D02*
X000880Y012092D01*
X000880Y011934D02*
X000892Y011934D01*
X000880Y011775D02*
X000934Y011775D01*
X000880Y011617D02*
X001053Y011617D01*
X000980Y011458D02*
X000880Y011458D01*
X000880Y011300D02*
X000904Y011300D01*
X000892Y011141D02*
X000880Y011141D01*
X000880Y010983D02*
X000936Y010983D01*
X000880Y010824D02*
X001058Y010824D01*
X000975Y010666D02*
X000880Y010666D01*
X000880Y010507D02*
X000902Y010507D01*
X000892Y010349D02*
X000880Y010349D01*
X000880Y010190D02*
X000938Y010190D01*
X000880Y010032D02*
X001063Y010032D01*
X000970Y009873D02*
X000880Y009873D01*
X000880Y009715D02*
X000899Y009715D01*
X000892Y009556D02*
X000880Y009556D01*
X000880Y009398D02*
X000940Y009398D01*
X000880Y009239D02*
X001068Y009239D01*
X000965Y009081D02*
X000880Y009081D01*
X000880Y008922D02*
X000897Y008922D01*
X000880Y008764D02*
X000892Y008764D01*
X000880Y008605D02*
X000942Y008605D01*
X000880Y008447D02*
X001074Y008447D01*
X000961Y008288D02*
X000880Y008288D01*
X000880Y008130D02*
X000895Y008130D01*
X000880Y007971D02*
X000892Y007971D01*
X000880Y007813D02*
X000944Y007813D01*
X000880Y007654D02*
X001079Y007654D01*
X000992Y007496D02*
X000880Y007496D01*
X000880Y007337D02*
X000921Y007337D01*
X000917Y007179D02*
X000880Y007179D01*
X000880Y007020D02*
X000972Y007020D01*
X000880Y006862D02*
X001134Y006862D01*
X001349Y006862D02*
X001349Y006862D01*
X001349Y007020D02*
X001349Y007020D01*
X001349Y007179D02*
X001349Y007179D01*
X001349Y007243D02*
X001349Y007243D01*
X001564Y006862D02*
X002811Y006862D01*
X002652Y007020D02*
X001727Y007020D01*
X001782Y007179D02*
X002494Y007179D01*
X002335Y007337D02*
X001777Y007337D01*
X001707Y007496D02*
X002177Y007496D01*
X002018Y007654D02*
X001620Y007654D01*
X001754Y007813D02*
X001860Y007813D01*
X000880Y006703D02*
X002969Y006703D01*
X003128Y006545D02*
X000880Y006545D01*
X000880Y006386D02*
X003286Y006386D01*
X003388Y006228D02*
X000880Y006228D01*
X000880Y006069D02*
X003563Y006069D01*
X003689Y005806D02*
X003633Y005766D01*
X003584Y005717D01*
X003544Y005661D01*
X003512Y005599D01*
X003491Y005533D01*
X003480Y005465D01*
X003480Y005430D01*
X004180Y005430D01*
X004180Y005430D01*
X004180Y005870D01*
X004475Y005870D01*
X004543Y005859D01*
X004609Y005838D01*
X004671Y005806D01*
X004727Y005766D01*
X004776Y005717D01*
X004816Y005661D01*
X004848Y005599D01*
X004869Y005533D01*
X004880Y005465D01*
X004880Y005430D01*
X004180Y005430D01*
X004180Y005430D01*
X004180Y004990D01*
X004475Y004990D01*
X004543Y005001D01*
X004609Y005022D01*
X004671Y005054D01*
X004727Y005094D01*
X004776Y005143D01*
X004816Y005199D01*
X004848Y005261D01*
X004869Y005327D01*
X004880Y005395D01*
X004880Y005430D01*
X004180Y005430D01*
X004180Y005430D01*
X004180Y005430D01*
X004180Y005870D01*
X003885Y005870D01*
X003817Y005859D01*
X003751Y005838D01*
X003689Y005806D01*
X003620Y005752D02*
X000880Y005752D01*
X000880Y005594D02*
X003510Y005594D01*
X003480Y005435D02*
X000880Y005435D01*
X000880Y005277D02*
X003507Y005277D01*
X003512Y005261D02*
X003544Y005199D01*
X003584Y005143D01*
X003633Y005094D01*
X003689Y005054D01*
X003751Y005022D01*
X003817Y005001D01*
X003885Y004990D01*
X004180Y004990D01*
X004180Y005430D01*
X003480Y005430D01*
X003480Y005395D01*
X003491Y005327D01*
X003512Y005261D01*
X003610Y005118D02*
X000880Y005118D01*
X000880Y004960D02*
X010480Y004960D01*
X010480Y005118D02*
X007779Y005118D01*
X007830Y005169D02*
X007900Y005338D01*
X007900Y005521D01*
X007830Y005691D01*
X007701Y005820D01*
X007531Y005890D01*
X006828Y005890D01*
X006659Y005820D01*
X006530Y005691D01*
X006460Y005521D01*
X006460Y005338D01*
X006530Y005169D01*
X006659Y005040D01*
X006828Y004970D01*
X007531Y004970D01*
X007701Y005040D01*
X007830Y005169D01*
X007874Y005277D02*
X010480Y005277D01*
X010480Y005435D02*
X007900Y005435D01*
X007870Y005594D02*
X010480Y005594D01*
X010480Y005752D02*
X007769Y005752D01*
X007701Y006040D02*
X007830Y006169D01*
X007900Y006338D01*
X007900Y006521D01*
X007830Y006691D01*
X007701Y006820D01*
X007531Y006890D01*
X006828Y006890D01*
X006659Y006820D01*
X006530Y006691D01*
X006460Y006521D01*
X006460Y006338D01*
X006530Y006169D01*
X006659Y006040D01*
X006828Y005970D01*
X007531Y005970D01*
X007701Y006040D01*
X007730Y006069D02*
X010480Y006069D01*
X010480Y005911D02*
X000880Y005911D01*
X000880Y004801D02*
X010480Y004801D01*
X010480Y004643D02*
X008599Y004643D01*
X008511Y004730D02*
X008210Y004730D01*
X008210Y003960D01*
X008980Y003960D01*
X008980Y004261D01*
X008511Y004730D01*
X008210Y004643D02*
X008150Y004643D01*
X008150Y004730D02*
X007849Y004730D01*
X007380Y004261D01*
X007380Y003960D01*
X008150Y003960D01*
X008150Y004730D01*
X008150Y004484D02*
X008210Y004484D01*
X008210Y004326D02*
X008150Y004326D01*
X008150Y004167D02*
X008210Y004167D01*
X008210Y004009D02*
X008150Y004009D01*
X008150Y003960D02*
X008210Y003960D01*
X008210Y003900D01*
X008980Y003900D01*
X008980Y003599D01*
X008511Y003130D01*
X008210Y003130D01*
X008210Y003900D01*
X008150Y003900D01*
X008150Y003130D01*
X007849Y003130D01*
X007380Y003599D01*
X007380Y003900D01*
X008150Y003900D01*
X008150Y003960D01*
X008150Y003850D02*
X008210Y003850D01*
X008210Y003692D02*
X008150Y003692D01*
X008150Y003533D02*
X008210Y003533D01*
X008210Y003375D02*
X008150Y003375D01*
X008150Y003216D02*
X008210Y003216D01*
X008520Y002750D02*
X007840Y002750D01*
X007360Y002270D01*
X007360Y001590D01*
X007840Y001110D01*
X008520Y001110D01*
X009000Y001590D01*
X009000Y002270D01*
X008520Y002750D01*
X008529Y002741D02*
X010480Y002741D01*
X010480Y002899D02*
X006530Y002899D01*
X006530Y002741D02*
X007831Y002741D01*
X007672Y002582D02*
X006530Y002582D01*
X006530Y002424D02*
X007514Y002424D01*
X007360Y002265D02*
X006490Y002265D01*
X006477Y002232D02*
X006530Y002360D01*
X006530Y003183D01*
X006560Y003183D01*
X006677Y003300D01*
X006677Y004060D01*
X006560Y004177D01*
X005800Y004177D01*
X005683Y004060D01*
X005683Y003300D01*
X005800Y003183D01*
X005830Y003183D01*
X005830Y002761D01*
X005784Y002780D01*
X005576Y002780D01*
X005383Y002700D01*
X005235Y002552D01*
X005167Y002389D01*
X005148Y002449D01*
X005112Y002519D01*
X005065Y002584D01*
X005009Y002640D01*
X004945Y002687D01*
X004874Y002723D01*
X004798Y002747D01*
X004720Y002760D01*
X004708Y002760D01*
X004708Y001958D01*
X004652Y001958D01*
X004652Y002760D01*
X004640Y002760D01*
X004562Y002747D01*
X004486Y002723D01*
X004415Y002687D01*
X004351Y002640D01*
X004295Y002584D01*
X004248Y002519D01*
X004212Y002449D01*
X004193Y002389D01*
X004125Y002552D01*
X003977Y002700D01*
X003784Y002780D01*
X003576Y002780D01*
X003383Y002700D01*
X003235Y002552D01*
X003155Y002359D01*
X003155Y001501D01*
X003235Y001308D01*
X003383Y001160D01*
X003576Y001080D01*
X003784Y001080D01*
X003977Y001160D01*
X004125Y001308D01*
X004193Y001471D01*
X004212Y001411D01*
X004248Y001341D01*
X004295Y001276D01*
X004351Y001220D01*
X004415Y001173D01*
X004486Y001137D01*
X004562Y001113D01*
X004640Y001100D01*
X004652Y001100D01*
X004652Y001902D01*
X004708Y001902D01*
X004708Y001100D01*
X004720Y001100D01*
X004798Y001113D01*
X004874Y001137D01*
X004945Y001173D01*
X005009Y001220D01*
X005065Y001276D01*
X005112Y001341D01*
X005148Y001411D01*
X005167Y001471D01*
X005235Y001308D01*
X005383Y001160D01*
X005576Y001080D01*
X005784Y001080D01*
X005977Y001160D01*
X006125Y001308D01*
X006205Y001501D01*
X006205Y001960D01*
X006378Y002133D01*
X006477Y002232D01*
X006351Y002107D02*
X007360Y002107D01*
X007360Y001948D02*
X006205Y001948D01*
X006205Y001790D02*
X007360Y001790D01*
X007360Y001631D02*
X006205Y001631D01*
X006193Y001473D02*
X007478Y001473D01*
X007636Y001314D02*
X006127Y001314D01*
X005966Y001156D02*
X007795Y001156D01*
X008565Y001156D02*
X010480Y001156D01*
X010480Y001314D02*
X008724Y001314D01*
X008882Y001473D02*
X010480Y001473D01*
X010480Y001631D02*
X009000Y001631D01*
X009000Y001790D02*
X010480Y001790D01*
X010480Y001948D02*
X009000Y001948D01*
X009000Y002107D02*
X010480Y002107D01*
X010480Y002265D02*
X009000Y002265D01*
X008846Y002424D02*
X010480Y002424D01*
X010480Y002582D02*
X008688Y002582D01*
X008597Y003216D02*
X010480Y003216D01*
X010480Y003058D02*
X006530Y003058D01*
X006593Y003216D02*
X007763Y003216D01*
X007604Y003375D02*
X006677Y003375D01*
X006677Y003533D02*
X007446Y003533D01*
X007380Y003692D02*
X006677Y003692D01*
X006677Y003850D02*
X007380Y003850D01*
X007380Y004009D02*
X006677Y004009D01*
X006570Y004167D02*
X007380Y004167D01*
X007444Y004326D02*
X000880Y004326D01*
X000880Y004484D02*
X007603Y004484D01*
X007761Y004643D02*
X000880Y004643D01*
X000880Y004167D02*
X002790Y004167D01*
X002800Y004177D02*
X002683Y004060D01*
X002683Y003300D01*
X002800Y003183D01*
X003560Y003183D01*
X003677Y003300D01*
X003677Y004060D01*
X003560Y004177D01*
X002800Y004177D01*
X002683Y004009D02*
X000880Y004009D01*
X000880Y003850D02*
X002683Y003850D01*
X002683Y003692D02*
X000880Y003692D01*
X000880Y003533D02*
X002683Y003533D01*
X002683Y003375D02*
X000880Y003375D01*
X000880Y003216D02*
X002767Y003216D01*
X003265Y002582D02*
X000880Y002582D01*
X000880Y002424D02*
X003182Y002424D01*
X003155Y002265D02*
X000880Y002265D01*
X000880Y002107D02*
X003155Y002107D01*
X003155Y001948D02*
X000880Y001948D01*
X000880Y001790D02*
X003155Y001790D01*
X003155Y001631D02*
X000880Y001631D01*
X000880Y001473D02*
X003167Y001473D01*
X003233Y001314D02*
X000880Y001314D01*
X000880Y001156D02*
X003394Y001156D01*
X003966Y001156D02*
X004451Y001156D01*
X004652Y001156D02*
X004708Y001156D01*
X004708Y001314D02*
X004652Y001314D01*
X004652Y001473D02*
X004708Y001473D01*
X004708Y001631D02*
X004652Y001631D01*
X004652Y001790D02*
X004708Y001790D01*
X004708Y002107D02*
X004652Y002107D01*
X004652Y002265D02*
X004708Y002265D01*
X004708Y002424D02*
X004652Y002424D01*
X004652Y002582D02*
X004708Y002582D01*
X004708Y002741D02*
X004652Y002741D01*
X004541Y002741D02*
X003879Y002741D01*
X004095Y002582D02*
X004294Y002582D01*
X004204Y002424D02*
X004178Y002424D01*
X004162Y003203D02*
X003859Y003203D01*
X003814Y003215D01*
X003773Y003239D01*
X003739Y003273D01*
X003715Y003314D01*
X003703Y003359D01*
X003703Y003662D01*
X004162Y003662D01*
X004162Y003698D01*
X003703Y003698D01*
X003703Y004001D01*
X003715Y004046D01*
X003739Y004087D01*
X003773Y004121D01*
X003814Y004145D01*
X003859Y004157D01*
X004162Y004157D01*
X004162Y003698D01*
X004198Y003698D01*
X004198Y004157D01*
X004501Y004157D01*
X004546Y004145D01*
X004587Y004121D01*
X004621Y004087D01*
X004645Y004046D01*
X004657Y004001D01*
X004657Y003698D01*
X004198Y003698D01*
X004198Y003662D01*
X004657Y003662D01*
X004657Y003359D01*
X004645Y003314D01*
X004621Y003273D01*
X004587Y003239D01*
X004546Y003215D01*
X004501Y003203D01*
X004198Y003203D01*
X004198Y003662D01*
X004162Y003662D01*
X004162Y003203D01*
X004162Y003216D02*
X004198Y003216D01*
X004198Y003375D02*
X004162Y003375D01*
X004162Y003533D02*
X004198Y003533D01*
X004198Y003692D02*
X004683Y003692D01*
X004683Y003850D02*
X004657Y003850D01*
X004655Y004009D02*
X004683Y004009D01*
X004683Y004060D02*
X004800Y004177D01*
X005560Y004177D01*
X005677Y004060D01*
X005677Y003300D01*
X005560Y003183D01*
X004800Y003183D01*
X004683Y003300D01*
X004683Y004060D01*
X004790Y004167D02*
X003570Y004167D01*
X003677Y004009D02*
X003705Y004009D01*
X003703Y003850D02*
X003677Y003850D01*
X003677Y003692D02*
X004162Y003692D01*
X004162Y003850D02*
X004198Y003850D01*
X004198Y004009D02*
X004162Y004009D01*
X003703Y003533D02*
X003677Y003533D01*
X003677Y003375D02*
X003703Y003375D01*
X003593Y003216D02*
X003813Y003216D01*
X003481Y002741D02*
X000880Y002741D01*
X000880Y002899D02*
X005830Y002899D01*
X005830Y003058D02*
X000880Y003058D01*
X000880Y000997D02*
X010480Y000997D01*
X010480Y000880D02*
X000880Y000880D01*
X000880Y019980D01*
X010480Y019980D01*
X010480Y000880D01*
X010480Y003375D02*
X008756Y003375D01*
X008914Y003533D02*
X010480Y003533D01*
X010480Y003692D02*
X008980Y003692D01*
X008980Y003850D02*
X010480Y003850D01*
X010480Y004009D02*
X008980Y004009D01*
X008980Y004167D02*
X010480Y004167D01*
X010480Y004326D02*
X008916Y004326D01*
X008757Y004484D02*
X010480Y004484D01*
X010480Y006228D02*
X007854Y006228D01*
X007900Y006386D02*
X010480Y006386D01*
X010480Y006545D02*
X007890Y006545D01*
X007818Y006703D02*
X010480Y006703D01*
X010480Y006862D02*
X010276Y006862D01*
X010414Y007020D02*
X010480Y007020D01*
X010468Y007179D02*
X010480Y007179D01*
X010467Y007337D02*
X010480Y007337D01*
X010480Y007496D02*
X010401Y007496D01*
X010480Y007654D02*
X010281Y007654D01*
X010416Y007813D02*
X010480Y007813D01*
X010468Y007971D02*
X010480Y007971D01*
X010465Y008130D02*
X010480Y008130D01*
X010480Y008288D02*
X010399Y008288D01*
X010480Y008447D02*
X010286Y008447D01*
X010418Y008605D02*
X010480Y008605D01*
X010468Y008764D02*
X010480Y008764D01*
X010463Y008922D02*
X010480Y008922D01*
X010480Y009081D02*
X010395Y009081D01*
X010480Y009239D02*
X010291Y009239D01*
X010420Y009398D02*
X010480Y009398D01*
X010468Y009556D02*
X010480Y009556D01*
X010480Y009715D02*
X010461Y009715D01*
X010480Y009873D02*
X010390Y009873D01*
X010480Y010032D02*
X010297Y010032D01*
X010422Y010190D02*
X010480Y010190D01*
X010468Y010349D02*
X010480Y010349D01*
X010480Y010507D02*
X010458Y010507D01*
X010480Y010666D02*
X010385Y010666D01*
X010302Y010824D02*
X010480Y010824D01*
X010480Y010983D02*
X010424Y010983D01*
X010468Y011141D02*
X010480Y011141D01*
X010480Y011300D02*
X010456Y011300D01*
X010480Y011458D02*
X010380Y011458D01*
X010307Y011617D02*
X010480Y011617D01*
X010480Y011775D02*
X010426Y011775D01*
X010468Y011934D02*
X010480Y011934D01*
X010480Y012092D02*
X010454Y012092D01*
X010480Y012251D02*
X010375Y012251D01*
X010312Y012409D02*
X010480Y012409D01*
X010480Y012568D02*
X010428Y012568D01*
X010468Y012726D02*
X010480Y012726D01*
X010480Y012885D02*
X010452Y012885D01*
X010480Y013043D02*
X010369Y013043D01*
X010317Y013202D02*
X010480Y013202D01*
X010480Y013360D02*
X010430Y013360D01*
X010468Y013519D02*
X010480Y013519D01*
X010480Y013677D02*
X010450Y013677D01*
X010480Y013836D02*
X010364Y013836D01*
X010322Y013994D02*
X010480Y013994D01*
X010480Y014153D02*
X010433Y014153D01*
X010468Y014311D02*
X010480Y014311D01*
X010480Y014470D02*
X010448Y014470D01*
X010480Y014628D02*
X010359Y014628D01*
X010480Y014787D02*
X010103Y014787D01*
X009918Y014787D02*
X007804Y014787D01*
X007830Y014945D02*
X010480Y014945D01*
X010480Y015104D02*
X007791Y015104D01*
X007653Y015262D02*
X010480Y015262D01*
X009662Y014628D02*
X007694Y014628D01*
X006480Y016847D02*
X006262Y016847D01*
X005885Y016847D02*
X005475Y016847D01*
X005674Y016689D02*
X005686Y016689D01*
X005098Y016847D02*
X004688Y016847D01*
X004887Y016689D02*
X004898Y016689D01*
X004886Y016055D02*
X004770Y016055D01*
X004886Y015896D02*
X000880Y015896D01*
X000880Y015738D02*
X004886Y015738D01*
X004886Y015579D02*
X000880Y015579D01*
X000880Y015421D02*
X004855Y015421D01*
X004668Y015262D02*
X000880Y015262D01*
X000880Y015104D02*
X004547Y015104D01*
X004510Y014945D02*
X000880Y014945D01*
X000880Y014787D02*
X001257Y014787D01*
X001442Y014787D02*
X004535Y014787D01*
X004638Y014628D02*
X001698Y014628D01*
X001038Y013994D02*
X000880Y013994D01*
X000880Y013836D02*
X000996Y013836D01*
X000910Y013677D02*
X000880Y013677D01*
X000880Y013519D02*
X000892Y013519D01*
X000880Y013360D02*
X000930Y013360D01*
X000880Y013202D02*
X001043Y013202D01*
X000991Y013043D02*
X000880Y013043D01*
X000880Y012885D02*
X000908Y012885D01*
X000892Y012726D02*
X000880Y012726D01*
X000880Y012568D02*
X000932Y012568D01*
X000880Y014153D02*
X000927Y014153D01*
X000892Y014311D02*
X000880Y014311D01*
X000880Y014470D02*
X000912Y014470D01*
X000880Y014628D02*
X001001Y014628D01*
X000880Y016055D02*
X004227Y016055D01*
X004094Y016213D02*
X000880Y016213D01*
X000880Y016372D02*
X004041Y016372D01*
X004045Y016530D02*
X000880Y016530D01*
X000880Y016689D02*
X004111Y016689D01*
X004310Y016847D02*
X000880Y016847D01*
X000880Y017006D02*
X010480Y017006D01*
X010480Y017164D02*
X000880Y017164D01*
X000880Y017323D02*
X010480Y017323D01*
X010480Y017481D02*
X000880Y017481D01*
X000880Y017640D02*
X010480Y017640D01*
X010480Y017798D02*
X000880Y017798D01*
X000880Y017957D02*
X010480Y017957D01*
X010480Y018115D02*
X000880Y018115D01*
X000880Y018274D02*
X010480Y018274D01*
X010480Y018432D02*
X000880Y018432D01*
X000880Y018591D02*
X010480Y018591D01*
X010480Y018749D02*
X000880Y018749D01*
X000880Y018908D02*
X010480Y018908D01*
X010480Y019066D02*
X000880Y019066D01*
X000880Y019225D02*
X010480Y019225D01*
X010480Y019383D02*
X000880Y019383D01*
X000880Y019542D02*
X010480Y019542D01*
X010480Y019700D02*
X000880Y019700D01*
X000880Y019859D02*
X010480Y019859D01*
X005780Y011458D02*
X005774Y011458D01*
X005780Y011300D02*
X005615Y011300D01*
X005580Y011141D02*
X005780Y011141D01*
X005829Y010983D02*
X005531Y010983D01*
X005390Y010824D02*
X005970Y010824D01*
X006129Y010666D02*
X005231Y010666D01*
X005073Y010507D02*
X006287Y010507D01*
X006446Y010349D02*
X004914Y010349D01*
X004838Y010190D02*
X006522Y010190D01*
X006680Y010032D02*
X004680Y010032D01*
X004573Y009873D02*
X006787Y009873D01*
X006554Y009715D02*
X004806Y009715D01*
X004886Y009556D02*
X006474Y009556D01*
X006460Y009398D02*
X004900Y009398D01*
X004859Y009239D02*
X006501Y009239D01*
X006619Y009081D02*
X004741Y009081D01*
X004757Y008764D02*
X006631Y008764D01*
X006633Y008766D02*
X006584Y008717D01*
X006544Y008661D01*
X006512Y008599D01*
X006491Y008533D01*
X006480Y008465D01*
X006480Y008430D01*
X007180Y008430D01*
X007430Y008430D01*
X007180Y008430D02*
X007880Y008430D01*
X007880Y008465D01*
X007869Y008533D01*
X007848Y008599D01*
X007816Y008661D01*
X007776Y008717D01*
X007727Y008766D01*
X007671Y008806D01*
X007609Y008838D01*
X007543Y008859D01*
X007475Y008870D01*
X007180Y008870D01*
X007180Y008430D01*
X007180Y008430D01*
X007180Y008430D01*
X007180Y007990D01*
X007475Y007990D01*
X007543Y008001D01*
X007609Y008022D01*
X007671Y008054D01*
X007727Y008094D01*
X007776Y008143D01*
X007816Y008199D01*
X007848Y008261D01*
X007869Y008327D01*
X007880Y008395D01*
X007880Y008430D01*
X007180Y008430D01*
X007180Y008430D01*
X007180Y008430D01*
X007180Y008870D01*
X006885Y008870D01*
X006817Y008859D01*
X006751Y008838D01*
X006689Y008806D01*
X006633Y008766D01*
X006515Y008605D02*
X004865Y008605D01*
X004900Y008447D02*
X006480Y008447D01*
X006480Y008430D02*
X006480Y008395D01*
X006491Y008327D01*
X006512Y008261D01*
X006544Y008199D01*
X006584Y008143D01*
X006633Y008094D01*
X006689Y008054D01*
X006751Y008022D01*
X006817Y008001D01*
X006885Y007990D01*
X007180Y007990D01*
X007180Y008430D01*
X006480Y008430D01*
X006503Y008288D02*
X004879Y008288D01*
X004790Y008130D02*
X006598Y008130D01*
X006659Y007820D02*
X006530Y007691D01*
X006460Y007521D01*
X006460Y007338D01*
X006530Y007169D01*
X006659Y007040D01*
X006828Y006970D01*
X007531Y006970D01*
X007701Y007040D01*
X007830Y007169D01*
X007900Y007338D01*
X007900Y007521D01*
X007830Y007691D01*
X007701Y007820D01*
X007531Y007890D01*
X006828Y007890D01*
X006659Y007820D01*
X006652Y007813D02*
X004708Y007813D01*
X004845Y007654D02*
X006515Y007654D01*
X006460Y007496D02*
X004900Y007496D01*
X004899Y007337D02*
X006461Y007337D01*
X006526Y007179D02*
X004834Y007179D01*
X004652Y007020D02*
X006708Y007020D01*
X006760Y006862D02*
X004600Y006862D01*
X004818Y006703D02*
X006542Y006703D01*
X006470Y006545D02*
X004890Y006545D01*
X004900Y006386D02*
X006460Y006386D01*
X006506Y006228D02*
X004854Y006228D01*
X004730Y006069D02*
X006630Y006069D01*
X006591Y005752D02*
X004740Y005752D01*
X004850Y005594D02*
X006490Y005594D01*
X006460Y005435D02*
X004880Y005435D01*
X004853Y005277D02*
X006486Y005277D01*
X006581Y005118D02*
X004750Y005118D01*
X004180Y005118D02*
X004180Y005118D01*
X004180Y005277D02*
X004180Y005277D01*
X004180Y005435D02*
X004180Y005435D01*
X004180Y005594D02*
X004180Y005594D01*
X004180Y005752D02*
X004180Y005752D01*
X003708Y007020D02*
X003642Y007020D01*
X003637Y007813D02*
X003652Y007813D01*
X003478Y007971D02*
X003826Y007971D01*
X004534Y007971D02*
X009553Y007971D01*
X009557Y008130D02*
X007762Y008130D01*
X007857Y008288D02*
X009622Y008288D01*
X009735Y008447D02*
X007880Y008447D01*
X007845Y008605D02*
X009604Y008605D01*
X009553Y008764D02*
X007729Y008764D01*
X007180Y008764D02*
X007180Y008764D01*
X007180Y008605D02*
X007180Y008605D01*
X007180Y008447D02*
X007180Y008447D01*
X007180Y008288D02*
X007180Y008288D01*
X007180Y008130D02*
X007180Y008130D01*
X007708Y007813D02*
X009606Y007813D01*
X009740Y007654D02*
X007845Y007654D01*
X007900Y007496D02*
X009620Y007496D01*
X009554Y007337D02*
X007899Y007337D01*
X007834Y007179D02*
X009553Y007179D01*
X009608Y007020D02*
X007652Y007020D01*
X007600Y006862D02*
X009745Y006862D01*
X005790Y004167D02*
X005570Y004167D01*
X005677Y004009D02*
X005683Y004009D01*
X005677Y003850D02*
X005683Y003850D01*
X005677Y003692D02*
X005683Y003692D01*
X005677Y003533D02*
X005683Y003533D01*
X005677Y003375D02*
X005683Y003375D01*
X005767Y003216D02*
X005593Y003216D01*
X005481Y002741D02*
X004819Y002741D01*
X005066Y002582D02*
X005265Y002582D01*
X005182Y002424D02*
X005156Y002424D01*
X004767Y003216D02*
X004547Y003216D01*
X004657Y003375D02*
X004683Y003375D01*
X004683Y003533D02*
X004657Y003533D01*
X004268Y001314D02*
X004127Y001314D01*
X004909Y001156D02*
X005394Y001156D01*
X005233Y001314D02*
X005092Y001314D01*
D19*
X005680Y001930D02*
X006180Y002430D01*
X006180Y003680D01*
X004180Y007430D02*
X003524Y007430D01*
X001349Y009605D01*
X001349Y010393D02*
X003312Y008430D01*
X004180Y008430D01*
X003737Y006430D02*
X001349Y008818D01*
D20*
X003737Y006430D02*
X004180Y006430D01*
X004180Y010430D02*
X004430Y010430D01*
X005180Y011180D01*
X005180Y011430D01*
X006074Y012324D01*
X006074Y016430D01*
X006861Y016430D02*
X006861Y012361D01*
X006180Y011680D01*
X006180Y011180D01*
X006930Y010430D01*
X007180Y010430D01*
X007430Y012930D02*
X007430Y013930D01*
X005286Y015286D02*
X004930Y014930D01*
X005286Y015286D02*
X005286Y016430D01*
X004930Y013930D02*
X004930Y012930D01*
M02*
